<?xml version="1.0" encoding="utf-8"?>
<!-- Generator: Adobe Illustrator 28.0.0, SVG Export Plug-In . SVG Version: 6.00 Build 0)  -->
<svg version="1.1" id="Layer_1" xmlns="http://www.w3.org/2000/svg" xmlns:xlink="http://www.w3.org/1999/xlink" x="0px" y="0px"
	 viewBox="0 0 200 200" style="enable-background:new 0 0 200 200;" xml:space="preserve">
<style type="text/css">
	.st0{fill:#FFFFFF;}
	.st1{clip-path:url(#SVGID_00000098201270436288493580000014364456382487637181_);}
	.st2{fill:#3137FD;}
	.st3{fill:#00FF1A;}
</style>
<rect class="st0" width="200" height="200"/>
<g id="_x3C_Primary_Logo_x3E_">
	<defs>
		<rect id="SVGID_1_" x="21.24" y="21.24" width="157.52" height="157.52"/>
	</defs>
	<clipPath id="SVGID_00000167360993386417941980000005813334181123813310_">
		<use xlink:href="#SVGID_1_"  style="overflow:visible;"/>
	</clipPath>
	<g style="clip-path:url(#SVGID_00000167360993386417941980000005813334181123813310_);">
		<path class="st0" d="M100,178.76c43.5,0,78.76-35.26,78.76-78.76c0-43.5-35.26-78.76-78.76-78.76c-43.5,0-78.76,35.26-78.76,78.76
			C21.24,143.5,56.5,178.76,100,178.76z"/>
		<path class="st2" d="M102.37,176.98c-0.85,0.03-1.69,0.04-2.53,0.04c-41.37,0-75.68-32.96-77.04-74.61
			c-0.67-20.55,6.73-40.16,20.83-55.2c14.1-15.04,33.19-23.7,53.74-24.36c42.5-1.38,78.19,32.07,79.57,74.56
			c0.67,20.55-6.73,40.16-20.83,55.2C142.01,167.66,122.93,176.31,102.37,176.98z"/>
		<path class="st3" d="M82.7,152.15c5.4,1.78,11.17,2.75,17.14,2.75c0.6,0,1.2-0.01,1.81-0.03c30.3-0.98,54.15-26.44,53.17-56.74
			c-0.48-14.66-6.65-28.26-17.38-38.32c-7.87-7.38-17.5-12.18-27.86-14.03l-1.68-1.93l-3.35-3.86l-2.29,3.34l-1.1,1.61
			c-0.42-0.01-0.84-0.02-1.26-0.02c-0.61,0-1.21,0.01-1.82,0.03c-14.66,0.48-28.26,6.65-38.32,17.38
			c-10.05,10.73-15.33,24.71-14.85,39.37c0.47,14.44,6.5,27.42,15.96,36.94c-0.18,0.64-0.31,1.27-0.41,1.9
			c-0.58,3.82,0.34,7.46,2.77,10.27c2.45,2.83,5.89,4.28,9.68,4.28c2.49,0,5.13-0.63,7.75-1.9c0.25-0.12,0.5-0.25,0.75-0.38
			L82.7,152.15L82.7,152.15z M119.37,59.91l-12.98,12.48l-2.47,2.38L63.65,113.5l-0.8,0.77l-0.05-0.1c-0.27-0.5-0.49-1.04-0.68-1.59
			l-0.02-0.05l0.04-0.04l0.81-0.86l52.8-55.91l0.71-0.75l3.66,4.22L119.37,59.91L119.37,59.91L119.37,59.91z M61.59,108.48v-0.03
			l0.02-0.02l1.05-1.3l47.05-58.34l0.65-0.81l3.66,4.22l-0.05,0.06l-0.64,0.72l-50.71,57.08l-0.89,1.01l-0.03-0.18
			C61.59,110.15,61.55,109.39,61.59,108.48z M104.64,41.38l3.31,3.8l-0.04,0.06l-0.59,0.78L63.8,103.24l-1.54,2.03l-0.15-0.08
			c0.52-1.84,1.38-3.63,2.55-5.31L104.64,41.38z M72.92,154.26c-3.56,0-6.77-1.35-9.06-3.99c-3.87-4.45-3.62-11.23,0.64-17.26
			l11.02-15.88l-1.68,0.99l-1.39,0.82l-1.5,0.88l-0.03-0.01c-0.77-0.11-1.52-0.29-2.23-0.55l-0.16-0.06l0.15-0.09l0.98-0.64
			l7.22-4.71l1.83-1.19l2.71-3.9l-1.93,1.35l-11.31,7.88l-0.99,0.69l-0.05-0.03c-0.49-0.27-0.97-0.59-1.41-0.93l-0.09-0.07
			l0.09-0.07l0.78-0.6l17.65-13.6l2.14-1.65l4.31-6.21l-2.32,1.9l-22.79,18.69l-0.82,0.67l-0.06-0.05c-0.18-0.19-0.33-0.35-0.46-0.5
			c-0.21-0.24-0.38-0.46-0.54-0.68l-0.05-0.06l0.06-0.05l0.73-0.66l31.97-28.95L99,83.31l7.01-10.1l1.82,2.1l0.61-0.55l13.33-12.07
			l0.76-0.69l3.66,4.22l-0.07,0.06l-0.73,0.6L111.5,78.28l-0.63,0.52l2.02,2.33l0.65-0.5l14.27-10.99l0.81-0.63l0.05,0.06l3.61,4.16
			l-0.85,0.59l-14.84,10.34l-0.68,0.47l2.02,2.33l0.69-0.45l15.2-9.92l0.87-0.57l3.66,4.22l-0.09,0.05l-0.81,0.48l-15.78,9.26
			l-0.72,0.42L123,92.8l0.73-0.41l16.13-8.85l0.92-0.51l3.25,3.76l-0.1,0.05l-17.56,8.58l-0.76,0.37l20.66,23.81l-65.22,32.47
			c-2.73,1.47-5.52,2.19-8.12,2.19L72.92,154.26L72.92,154.26z"/>
		<path class="st3" d="M85.47,142.69c-1.4-2.01-0.91-4.77,1.1-6.18l46.72-27.36l-9.38-10.82l-37.91,38.61
			c-1.85,1.61-4.65,1.41-6.26-0.44c-1.6-1.85-1.4-4.65,0.44-6.26l43.58-32.08l-9.4-10.83l-33.69,42.39
			c-1.67,1.79-4.48,1.89-6.27,0.21c-1.16-1.09-1.61-2.65-1.32-4.11l-6.17,8.89c-4.19,5.94-3.06,11.05-0.83,13.63
			c3.03,3.49,8.36,3.93,13.57,1.12l0.04-0.02l9.78-4.87C87.96,144.7,86.41,144.04,85.47,142.69L85.47,142.69z"/>
		<path class="st3" d="M133.43,109.31l-40.88,33.72l48.98-24.38L133.43,109.31L133.43,109.31z"/>
		<path class="st3" d="M106.27,78.01l-31,44.67l38.94-35.51L106.27,78.01z"/>
		<path class="st0" d="M31.42,76.65l-0.95,2.62l8.09-0.44l4.54,1.66l0.85-2.33l-4.54-1.66l-5.91-5.54l-0.92,2.52l3.87,3.24
			l-0.01,0.03L31.42,76.65L31.42,76.65z"/>
		<path class="st0" d="M47.35,71.42c1.77-3.27-0.34-4.94-3.62-6.72c-3.29-1.78-5.83-2.63-7.61,0.64c-1.77,3.27,0.34,4.94,3.62,6.72
			C43.03,73.83,45.58,74.69,47.35,71.42L47.35,71.42L47.35,71.42z M37.72,66.2c0.7-1.29,1.93-0.89,4.82,0.67
			c2.9,1.57,3.89,2.38,3.2,3.67c-0.7,1.29-1.92,0.9-4.82-0.67C38.03,68.31,37.03,67.49,37.72,66.2L37.72,66.2z"/>
		<path class="st0" d="M44.45,53.47l6.58,5.25l-0.02,0.03l-8.45-2.91l-1.78,2.24l9.61,7.66l1.41-1.78l-6.73-5.36l0.02-0.03l8.62,3
			l1.76-2.21l-9.61-7.66L44.45,53.47L44.45,53.47z"/>
		<path class="st0" d="M62.52,52.83l-1.36-1.51l-3.39,3.05l-2.21-2.46l3.07-2.76l-1.36-1.51L54.2,50.4l-1.93-2.15l3.26-2.93
			l-1.36-1.51l-5.11,4.59l8.22,9.14L62.52,52.83L62.52,52.83z"/>
		<path class="st0" d="M57.11,41.49l5.67,3.57l0.8,6.88l2.29-1.48l-0.79-4.45l3.75,2.54l2.34-1.52l-5.95-3.56l-0.9-6.65l-2.27,1.47
			l0.84,4.19L59.41,40L57.11,41.49L57.11,41.49z"/>
		<path class="st0" d="M76.05,31.64l0.71,12.69l2.45-0.8l-0.26-2.65l3.11-1.01l1.35,2.29l2.45-0.8l-6.9-10.68L76.05,31.64
			L76.05,31.64z M78.73,38.82l-0.58-5.62l0.03-0.01l2.84,4.89L78.73,38.82z"/>
		<path class="st0" d="M94.36,40.05l-0.31-2.01l-4.34,0.67l-1.57-10.14l-2.45,0.38l1.88,12.14L94.36,40.05z"/>
		<path class="st0" d="M96.38,39.93l6.87-0.04l-0.01-2.03l-4.39,0.02l-0.06-10.26l-2.48,0.02L96.38,39.93L96.38,39.93z"/>
		<path class="st0" d="M110.46,40.76l6.85,1.61l0.46-1.98l-4.44-1.04l0.76-3.22l4.02,0.95l0.47-1.98l-4.02-0.94l0.66-2.81l4.27,1.01
			l0.46-1.98l-6.69-1.57L110.46,40.76z"/>
		<path class="st0" d="M124.06,31.66L119.31,43l2.1,0.88l3.32-7.94l0.03,0.01l-0.53,9.11l2.6,1.09l4.74-11.34l-2.1-0.88l-3.25,7.77
			l-0.03-0.01l0.48-8.92L124.06,31.66L124.06,31.66z"/>
		<path class="st0" d="M140.35,44.32c1.35-2.1,1.18-3.87-1.11-5.34c-2.66-1.72-4.62-0.46-6.86,3.01c-2.3,3.58-3.03,5.81-0.47,7.46
			c0.97,0.62,1.9,0.74,2.91,0.24l0.03,0.02l-0.62,0.95l1.54,0.99l3.59-5.57L136,43.91l-0.99,1.53l1.37,0.89l-0.68,1.06
			c-0.72,1.11-1.86,1.14-2.35,0.82c-1.2-0.77-0.42-2.48,1.18-4.97c1.66-2.58,2.74-3.36,3.75-2.7c0.84,0.54,0.56,1.73,0.07,2.5
			L140.35,44.32L140.35,44.32z"/>
		<path class="st0" d="M145.92,44.08l-8.23,9.12l5.1,4.6l1.36-1.51l-3.26-2.94l6.87-7.62L145.92,44.08L145.92,44.08z"/>
		<path class="st0" d="M145.23,60.58l2.38-1.19l2.05,2.55l-1.67,2.07l1.62,2.01l7.54-10.24l-1.92-2.39l-11.62,5.17L145.23,60.58
			L145.23,60.58L145.23,60.58z M154.52,55.92l0.02,0.03l-3.56,4.39l-1.51-1.88L154.52,55.92L154.52,55.92L154.52,55.92z"/>
		<path class="st0" d="M160.86,60.89l-10.7,6.04l1.11,1.98l7.49-4.23l0.02,0.03l-6.01,6.87l1.39,2.46l10.7-6.04l-1.11-1.98
			l-7.33,4.14l-0.02-0.03l5.86-6.75L160.86,60.89L160.86,60.89z"/>
		<path class="st0" d="M163.9,82.05c3.41-1.19,5.44-2.55,4.31-5.8l-1.34-3.84l-11.61,4.04l1.29,3.69
			C157.63,83.25,159.78,83.49,163.9,82.05L163.9,82.05L163.9,82.05z M165.96,75.36l0.35,0.99c0.62,1.79-0.65,2.47-3.29,3.39
			c-3.15,1.1-4.29,1.13-4.86-0.5l-0.36-1.04L165.96,75.36z"/>
		<path class="st0" d="M33.89,121.46c1.88-0.55,3.14-1.17,2.61-2.99c-0.54-1.82-1.93-1.66-3.81-1.1c-1.88,0.55-3.14,1.17-2.6,2.99
			C30.62,122.17,32.02,122.01,33.89,121.46L33.89,121.46L33.89,121.46z M33.05,118.57c1.65-0.49,2.33-0.55,2.54,0.16
			c0.21,0.72-0.39,1.02-2.05,1.51c-1.66,0.49-2.33,0.56-2.54-0.16C30.79,119.36,31.39,119.06,33.05,118.57L33.05,118.57z"/>
		<path class="st0" d="M32.31,126.45l2.38-0.96l0.25,0.63c0.44,1.1,1.31,1.63,2.54,1.12c0.89-0.36,1.62-1.13,1.14-2.32l-0.83-2.06
			l-5.97,2.41L32.31,126.45L32.31,126.45L32.31,126.45z M37.39,124.4l0.2,0.49c0.24,0.59-0.01,0.95-0.59,1.18
			c-0.61,0.25-1.02,0.04-1.21-0.42l-0.21-0.52L37.39,124.4L37.39,124.4z"/>
		<path class="st0" d="M38.58,133.32l0.94-0.49l-0.97-1.88l1.35-0.69l1.03,1.99l0.94-0.49l-1.6-3.11l-5.72,2.94l1.64,3.2l0.94-0.49
			l-1.07-2.07l1.54-0.79L38.58,133.32L38.58,133.32z"/>
		<path class="st0" d="M39.92,140.88l5.42-3.47l-0.62-0.97L41,138.81l-0.01-0.02l2.89-3.66l-0.79-1.23l-5.42,3.47l0.62,0.97
			l3.8-2.43l0.01,0.02l-2.96,3.73L39.92,140.88L39.92,140.88z"/>
		<path class="st0" d="M48.6,148.66c0.64-0.57,0.74-1.27,0.36-1.85l0.01-0.01c0.55,0.35,1.16,0.23,1.68-0.23
			c0.92-0.82,0.72-1.65,0.03-2.42l-1.41-1.58l-4.8,4.29l1.42,1.59C46.87,149.55,47.85,149.33,48.6,148.66L48.6,148.66z M49.4,144.15
			l0.31,0.34c0.41,0.47,0.44,0.83-0.02,1.24c-0.45,0.4-0.85,0.33-1.31-0.19l-0.24-0.27L49.4,144.15L49.4,144.15z M46.35,147.54
			l-0.33-0.37l1.44-1.29l0.36,0.41c0.37,0.41,0.48,0.87-0.07,1.36C47.2,148.14,46.76,147.98,46.35,147.54L46.35,147.54z"/>
		<path class="st0" d="M52.69,155.14l3.12-5.87l-1.15-1.06l-5.57,3.63l0.97,0.89l1.13-0.81l1.23,1.13l-0.7,1.2L52.69,155.14
			L52.69,155.14z M52.07,151.29l2.4-1.73l0.01,0.01l-1.5,2.54L52.07,151.29L52.07,151.29z"/>
		<path class="st0" d="M60.41,153.02l-1.66-1.24l-3.84,5.16l1.6,1.19c1.35,1,2.34,0.46,3.7-1.37
			C61.33,155.24,61.82,154.07,60.41,153.02L60.41,153.02L60.41,153.02z M59.17,156.04c-1.04,1.4-1.52,1.76-2.23,1.23l-0.45-0.34
			l2.7-3.63l0.43,0.32C60.4,154.2,60.05,154.87,59.17,156.04L59.17,156.04z"/>
		<path class="st0" d="M64.17,155.68l-3.23,5.56l1,0.58l2.58-4.44l0.02,0.01l-1.61,5.01l0.85,0.49l3.55-3.88l0.02,0.01l-2.58,4.44
			l1,0.58l3.24-5.56l-1.62-0.94l-3.07,3.47L64.3,161l1.51-4.38L64.17,155.68L64.17,155.68z"/>
		<path class="st0" d="M72.57,160.17l-1.15-0.53l-2.71,5.84l1.15,0.54L72.57,160.17L72.57,160.17z"/>
		<path class="st0" d="M75.03,161.25l-2.22,6.04l1.09,0.4l1.56-4.23h0.02l-0.11,4.77l1.35,0.5l2.22-6.04l-1.09-0.4l-1.52,4.14
			l-0.02-0.01l0.09-4.66L75.03,161.25z"/>
		<path class="st0" d="M82.01,170.26l1.37-5.19l1.33,0.35l0.27-1.03l-3.87-1.02l-0.27,1.03l1.33,0.35l-1.37,5.19L82.01,170.26
			L82.01,170.26z"/>
		<path class="st0" d="M90.75,168.71c0.32-1.93,0.31-3.34-1.56-3.65c-1.87-0.31-2.33,1.02-2.65,2.95c-0.32,1.93-0.31,3.34,1.56,3.65
			C89.97,171.98,90.43,170.65,90.75,168.71L90.75,168.71z M87.78,168.22c0.28-1.7,0.51-2.34,1.25-2.21c0.74,0.12,0.75,0.8,0.47,2.5
			c-0.28,1.71-0.51,2.34-1.25,2.21C87.52,170.6,87.5,169.93,87.78,168.22L87.78,168.22z"/>
		<path class="st0" d="M96.43,170.4h-0.02l-1.25-4.5l-1.46-0.09l-0.41,6.42l1.16,0.07l0.28-4.5h0.02l1.26,4.6l1.44,0.09l0.4-6.42
			L96.71,166L96.43,170.4L96.43,170.4z"/>
		<path class="st0" d="M106.99,172.29c1.65-0.16,1.87-1.39,1.74-2.77l-1.26,0.12c0.13,1.38-0.17,1.66-0.63,1.7
			c-0.54,0.05-0.84-0.27-1.03-2.21c-0.17-1.81-0.09-2.48,0.55-2.54c0.57-0.05,0.79,0.33,0.88,1.27l1.26-0.12
			c-0.09-0.93-0.35-2.27-2.15-2.1c-1.89,0.18-1.99,1.59-1.8,3.53C104.73,171.12,105.1,172.48,106.99,172.29L106.99,172.29z"/>
		<path class="st0" d="M115.05,170.92l1.24-0.26l-1.28-6.31l-1.24,0.25l0.49,2.41l-1.45,0.29l-0.49-2.41l-1.24,0.25l1.28,6.31
			l1.24-0.25l-0.57-2.8l1.45-0.3L115.05,170.92L115.05,170.92z"/>
		<path class="st0" d="M122.77,168.82l1.26-0.4l-3.52-5.64l-1.49,0.47l0.36,6.64l1.26-0.4l-0.13-1.39l1.59-0.5L122.77,168.82
			L122.77,168.82z M120.38,167.03l-0.29-2.94l0.02-0.01l1.45,2.58L120.38,167.03L120.38,167.03L120.38,167.03z"/>
		<path class="st0" d="M131.08,165.47l1.06-0.48l-2.64-5.87l-1.71,0.77l1.04,4.51l-0.02,0.01l-2.68-3.78l-1.71,0.77l2.64,5.87
			l1.06-0.48l-2.11-4.69l0.02-0.01l3.13,4.23l0.9-0.41l-1.09-5.14l0.01-0.01L131.08,165.47L131.08,165.47z"/>
		<path class="st0" d="M136.46,157.37c-0.49-0.83-1.36-1.43-2.47-0.78l-1.9,1.13l3.29,5.54l1.09-0.64l-1.31-2.21l0.58-0.35
			C136.76,159.44,137.14,158.52,136.46,157.37z M135.15,159.29l-0.48,0.29l-1-1.68l0.45-0.27c0.55-0.32,0.94-0.14,1.26,0.41
			C135.71,158.6,135.58,159.04,135.15,159.29L135.15,159.29L135.15,159.29z"/>
		<path class="st0" d="M138.8,153.42l-1.03,0.73l3.73,5.25l1.03-0.73L138.8,153.42L138.8,153.42z"/>
		<path class="st0" d="M147.01,155.31c1.45-1.23,0.73-2.44-0.54-3.93c-1.26-1.49-2.35-2.4-3.79-1.17c-1.45,1.22-0.73,2.44,0.54,3.93
			C144.48,155.63,145.56,156.53,147.01,155.31L147.01,155.31z M143.29,150.93c0.57-0.48,1.09-0.05,2.21,1.26
			c1.12,1.32,1.45,1.9,0.88,2.38c-0.57,0.48-1.09,0.06-2.21-1.26C143.07,152,142.73,151.41,143.29,150.93z"/>
		<path class="st0" d="M152.95,149.47l1-1.04l-4.67-4.44l-0.8,0.84l3.19,3.04l-0.01,0.01l-4.25-1.93l-1.01,1.06l4.66,4.44l0.8-0.84
			l-3.27-3.11l0.01-0.02L152.95,149.47z"/>
		<path class="st0" d="M157.44,144.38c0.83-1.09,0.85-2.1-0.24-2.93c-0.62-0.48-1.16-0.59-2.08-0.09l-0.94,0.51
			c-0.51,0.28-0.78,0.23-1.09-0.02c-0.3-0.23-0.5-0.57-0.15-1.03c0.29-0.38,0.7-0.33,1.17,0.04l0.74-0.96l-0.14-0.11
			c-0.98-0.76-1.87-0.41-2.56,0.48c-0.73,0.95-0.68,1.93,0.32,2.69c0.85,0.66,1.55,0.54,2.55-0.11c0.74-0.48,1.09-0.58,1.55-0.22
			c0.43,0.33,0.41,0.78,0.17,1.08c-0.41,0.53-0.82,0.42-1.3,0.06l-0.15-0.11l-0.77,1l0.21,0.16
			C155.68,145.54,156.56,145.51,157.44,144.38L157.44,144.38L157.44,144.38z"/>
		<path class="st0" d="M162.01,137.49l0.66-1.08l-5.48-3.38l-0.66,1.08l2.09,1.29l-0.78,1.26l-2.09-1.29l-0.66,1.08l5.48,3.38
			l0.66-1.08l-2.43-1.5l0.78-1.26L162.01,137.49L162.01,137.49z"/>
		<path class="st0" d="M164.94,132.13l-5.75-2.9l-0.57,1.13l5.75,2.9L164.94,132.13z"/>
		<path class="st0" d="M166.94,127.73l-2.38-0.96l0.25-0.63c0.45-1.11,0.19-2.08-1.05-2.58c-0.89-0.36-1.95-0.31-2.43,0.87
			l-0.83,2.05l5.97,2.42L166.94,127.73L166.94,127.73L166.94,127.73z M163.88,125.88l-0.21,0.52l-1.81-0.73l0.2-0.49
			c0.24-0.59,0.66-0.68,1.25-0.44C163.91,124.98,164.07,125.41,163.88,125.88L163.88,125.88L163.88,125.88z"/>
		<path class="st0" d="M167.66,120.27l-0.18-0.05l-0.35,1.22l0.25,0.07c1.14,0.33,1.96-0.02,2.35-1.4c0.38-1.32,0.01-2.26-1.3-2.64
			c-0.76-0.22-1.3-0.12-1.97,0.68l-0.69,0.82c-0.37,0.45-0.64,0.49-1.02,0.38c-0.36-0.1-0.68-0.35-0.52-0.9
			c0.13-0.46,0.53-0.56,1.11-0.39l0.34-1.17l-0.18-0.05c-1.19-0.34-1.89,0.31-2.2,1.39c-0.33,1.15,0.08,2.04,1.28,2.39
			c1.03,0.3,1.63-0.07,2.33-1.04c0.52-0.72,0.8-0.94,1.37-0.77c0.52,0.15,0.66,0.57,0.56,0.94
			C168.66,120.39,168.24,120.44,167.66,120.27L167.66,120.27L167.66,120.27z"/>
	</g>
</g>
</svg>
