<?xml version="1.0" encoding="UTF-8"?>
<svg id="Layer_1" xmlns="http://www.w3.org/2000/svg" version="1.1" viewBox="0 0 200 200">
  <!-- Generator: Adobe Illustrator 29.0.1, SVG Export Plug-In . SVG Version: 2.1.0 Build 192)  -->
  <defs>
    <style>
      .st0 {
        fill: #fff;
      }

      .st1 {
        fill: #ec1c24;
      }
    </style>
  </defs>
  <rect class="st0" width="200" height="200"/>
  <g>
    <path class="st1" d="M156.43,124.65c12.74-.53,22.67-11.33,22.14-24.07-.25-6.03-2.79-11.6-7.14-15.76,1.75,3.36,2.76,7.09,2.92,10.99.29,6.97-2.15,13.64-6.88,18.78-4.73,5.14-11.17,8.12-18.14,8.41-.37.02-.74.02-1.11.02-.48,0-.97-.02-1.45-.05,3.03,1.23,6.31,1.81,9.67,1.67Z"/>
    <path class="st1" d="M158.93,78.89c4.73,5.31,7.11,12.15,6.7,19.25-.66,11.44-8.49,20.79-18.86,23.95.83.05,1.67.05,2.51.02,6.73-.28,12.95-3.16,17.52-8.12,4.56-4.96,6.92-11.4,6.64-18.13-.28-6.73-3.16-12.95-8.12-17.52-4.65-4.28-10.61-6.62-16.89-6.66,3.99,1.5,7.58,3.94,10.49,7.21Z"/>
    <path class="st1" d="M145.51,120.91c-.6-.01-1.2-.03-1.8-.02-.2,0-.41.04-.6.12-.53.2-.85.6-1.01,1.14-.1.33-.14.67-.14,1,0,.34.04.67.14,1,.16.54.49.93,1.01,1.14.19.07.4.11.6.12.6,0,1.2,0,1.8-.02.19,0,.22-.04.22-.25v-3.97c0-.22-.03-.25-.22-.25Z"/>
    <path class="st1" d="M179.48,100.72c.45,13.16-9.83,24.29-23.02,24.84-.34.01-.69.02-1.03.02-2.98,0-5.88-.55-8.6-1.59,3.53,2.71,7.95,4.33,12.74,4.33,11.57,0,20.98-9.41,20.98-20.98,0-2.31-.38-4.54-1.08-6.62Z"/>
    <path class="st1" d="M145.44,105.31c5.13,0,7.02-3.28,7.02-6.62v-15.69c0-.18-.15-.33-.33-.33h-2.25c-.18,0-.33.15-.33.33v15.69c0,1.06-.06,4.3-4.13,4.3-3.34,0-4.37-2.03-4.37-4.18v-15.49c0-.36-.29-.65-.65-.65h-3.53c-.36,0-.65.29-.65.65v15.49c0,3,3.4,6.49,9.21,6.49Z"/>
    <path class="st1" d="M129.99,100.34c0,2.35-3.46,3.73-8.74,1.04-.13-.07-.28.03-.28.17v2.15c0,.13.08.25.2.3,6.93,2.74,12.66.08,12.66-4.56,0-7.87-9.52-8.12-9.52-12.31,0-1.49,1.71-4.39,7.92-.98.13.07.29-.02.29-.17v-1.94c0-.12-.06-.23-.17-.28-4.54-2.45-11.78-1.57-11.78,4.38,0,6.47,9.42,7.8,9.42,12.2Z"/>
    <path class="st1" d="M40.41,104.93c.14,0,.27-.09.31-.22l1.89-5.72h7.65l2.07,5.72c.05.13.17.22.31.22h4.45c.22,0,.38-.22.31-.43l-7.47-21.6c-.05-.13-.17-.22-.31-.22h-4.41c-.14,0-.27.09-.31.23l-6.97,21.6c-.07.21.09.43.31.43h2.17ZM46.47,86.89l3,9.88h-6.15l3.15-9.88Z"/>
    <path class="st1" d="M87.05,104.93h2.17c.14,0,.27-.09.31-.22l1.89-5.72h7.65l2.07,5.72c.05.13.17.22.31.22h4.45c.22,0,.38-.22.31-.43l-7.47-21.6c-.05-.13-.17-.22-.31-.22h-4.41c-.14,0-.27.09-.31.23l-6.97,21.6c-.07.21.09.43.31.43ZM95.27,86.89l3,9.88h-6.15l3.15-9.88Z"/>
    <path class="st1" d="M37.97,93.8c0-7.81-4.02-11.13-8.93-11.13h-8.95c-.36,0-.65.29-.65.65v20.95c0,.36.29.65.65.65h8.95c4.91,0,8.93-3.32,8.93-11.13ZM27.43,102.71h-3.17v-17.82h3.17c3.31,0,5.41,1.53,5.41,8.91s-2.09,8.91-5.41,8.91Z"/>
    <path class="st1" d="M67.75,104.93h3.87c.36,0,.65-.29.65-.65v-9.81h7.42v9.81c0,.36.29.65.65.65h3.87c.36,0,.65-.29.65-.65v-20.95c0-.36-.29-.65-.65-.65h-3.87c-.36,0-.65.29-.65.65v8.73h-7.42v-8.73c0-.36-.29-.65-.65-.65h-3.87c-.36,0-.65.29-.65.65v20.95c0,.36.29.65.65.65Z"/>
    <path class="st1" d="M113.53,104.28v-19.21h5.62c.18,0,.32-.15.32-.32v-1.75c0-.18-.15-.32-.32-.32h-16.38c-.18,0-.32.15-.32.32v1.75c0,.18.15.32.32.32h5.62v19.21c0,.36.29.65.65.65h3.85c.36,0,.65-.29.65-.65Z"/>
    <rect class="st1" x="59.14" y="82.67" width="5.18" height="22.25" rx=".43" ry=".43"/>
    <path class="st1" d="M59.21,108.61h-4.47c-.14,0-.25.11-.25.25v8.15c0,.14.11.25.25.25h4.47c.07,0,.13-.06.13-.13v-.71c0-.07-.06-.13-.13-.13h-2.71v-2.88h2.37c.07,0,.13-.06.13-.13v-.71c0-.07-.06-.13-.13-.13h-2.37v-2.88h2.71c.07,0,.13-.06.13-.13v-.71c0-.07-.06-.13-.13-.13Z"/>
    <path class="st1" d="M28.9,108.61h-.81c-.07,0-.13.06-.13.13v6.43l-3.23-6.42c-.04-.09-.13-.14-.23-.14h-1.73c-.14,0-.25.11-.25.25v8.28c0,.07.06.13.13.13h.81c.07,0,.13-.06.13-.13v-6.43l3.23,6.42c.04.09.13.14.23.14h1.73c.14,0,.25-.11.25-.25v-8.28c0-.07-.06-.13-.13-.13Z"/>
    <path class="st1" d="M53.31,108.61h-.81c-.07,0-.13.06-.13.13v6.43l-3.23-6.42c-.04-.09-.13-.14-.23-.14h-1.73c-.14,0-.25.11-.25.25v8.28c0,.07.06.13.13.13h.81c.07,0,.13-.06.13-.13v-6.43l3.23,6.42c.04.09.13.14.23.14h1.73c.14,0,.25-.11.25-.25v-8.28c0-.07-.06-.13-.13-.13Z"/>
    <path class="st1" d="M61.41,110.34c0-.58.67-1.71,3.08-.38.05.03.11,0,.11-.07v-.76s-.02-.09-.07-.11c-1.77-.95-4.58-.61-4.58,1.7,0,2.52,3.67,3.04,3.67,4.75,0,.91-1.35,1.45-3.4.41-.05-.03-.11,0-.11.07v.84c0,.05.03.1.08.12,2.7,1.06,4.92.03,4.92-1.77,0-3.06-3.7-3.16-3.7-4.79Z"/>
    <path class="st1" d="M73.36,108.69c-.02-.05-.07-.09-.12-.09h-1.71c-.05,0-.1.04-.12.09l-2.71,8.4c-.03.08.03.17.12.17h.84c.05,0,.1-.04.12-.09l.73-2.22h2.97l.81,2.23c.02.05.07.08.12.08h1.73c.09,0,.15-.09.12-.17l-2.9-8.4ZM70.79,114.09l1.22-3.84,1.17,3.84h-2.39Z"/>
    <path class="st1" d="M33.84,108.61h-3.48c-.14,0-.25.11-.25.25v8.15c0,.14.11.25.25.25h3.48c1.91,0,3.47-1.29,3.47-4.33s-1.56-4.33-3.47-4.33ZM33.21,116.4h-1.23v-6.93h1.23c1.29,0,2.1.59,2.1,3.47s-.81,3.47-2.1,3.47Z"/>
    <rect class="st1" x="19.44" y="108.61" width="2.01" height="8.66" rx=".43" ry=".43"/>
    <rect class="st1" x="66" y="108.61" width="2.01" height="8.66" rx=".43" ry=".43"/>
    <path class="st1" d="M42.04,108.53c-1.51,0-3.85.65-3.85,4.2s1.57,4.6,3.85,4.6,3.93-.8,3.93-4.47-2.34-4.33-3.93-4.33ZM42.06,116.52c-1.16,0-1.96-.85-1.96-3.74s1.19-3.42,1.96-3.42c.81,0,2,.54,2,3.53s-.84,3.64-2,3.64Z"/>
    <path class="st1" d="M113.98,108.65h-4.45c-.14,0-.25.11-.25.25v8.11c0,.14.11.25.25.25h4.45c.07,0,.13-.06.13-.13v-.71c0-.07-.06-.13-.13-.13h-2.7v-2.86h2.35c.07,0,.13-.06.13-.13v-.71c0-.07-.06-.13-.13-.13h-2.35v-2.86h2.7c.07,0,.13-.06.13-.13v-.71c0-.07-.06-.13-.13-.13Z"/>
    <path class="st1" d="M97.82,110.38c0-.58.66-1.7,3.06-.38.05.03.11,0,.11-.06v-.75s-.02-.09-.06-.11c-1.76-.95-4.56-.61-4.56,1.69,0,2.5,3.65,3.02,3.65,4.72,0,.91-1.34,1.44-3.38.4-.05-.03-.11,0-.11.07v.83c0,.05.03.1.08.12,2.68,1.06,4.9.03,4.9-1.76,0-3.04-3.68-3.14-3.68-4.76Z"/>
    <path class="st1" d="M123.14,110.38c0-.58.66-1.7,3.06-.38.05.03.11,0,.11-.06v-.75s-.02-.09-.06-.11c-1.76-.95-4.56-.61-4.56,1.69,0,2.5,3.65,3.02,3.65,4.72,0,.91-1.34,1.44-3.38.4-.05-.03-.11,0-.11.07v.83c0,.05.03.1.08.12,2.68,1.06,4.9.03,4.9-1.76,0-3.04-3.68-3.14-3.68-4.76Z"/>
    <path class="st1" d="M93.03,108.73c-.02-.05-.07-.09-.12-.09h-1.7c-.05,0-.1.04-.12.09l-2.7,8.36c-.03.08.03.17.12.17h.84c.05,0,.1-.04.12-.09l.73-2.21h2.96l.8,2.21s.07.08.12.08h1.72c.09,0,.15-.09.12-.17l-2.89-8.36ZM90.47,114.1l1.22-3.82,1.16,3.82h-2.38Z"/>
    <path class="st1" d="M108.3,108.65h-6.34c-.07,0-.13.06-.13.13v.68c0,.07.06.13.13.13h2.17v7.43c0,.14.11.25.25.25h1.49c.14,0,.25-.11.25-.25v-7.43h2.17c.07,0,.13-.06.13-.13v-.68c0-.07-.06-.13-.13-.13Z"/>
    <path class="st1" d="M87.52,108.65h-1.98c-.14,0-.24.08-.28.21l-1.79,5.87-1.89-5.95c-.04-.08-.13-.14-.22-.14h-1.9c-.14,0-.25.11-.25.25v8.23c0,.07.06.12.13.12h.81c.07,0,.12-.06.12-.13v-6.36l2,6.35c.04.08.13.14.22.14h1.16c.09,0,.18-.05.22-.14l1.94-6.41v6.42c0,.07.06.12.13.12h1.47c.14,0,.25-.11.25-.25v-8.23c0-.07-.06-.12-.13-.12Z"/>
    <path class="st1" d="M120.03,113.74c-.24-.66-.57-.82-1.04-.98v-.02c1.01-.09,1.69-.94,1.68-1.91,0-1.55-1.06-2.21-2.33-2.2l-3.1.02c-.14,0-.25.11-.25.25v8.11c0,.14.11.25.25.25h1.38c.14,0,.25-.11.25-.25v-3.69s.66,0,.66,0c.24,0,.51.1.67.59.16.49,1.13,2.99,1.13,2.99.08.22.2.36.44.36h1.24c.21,0,.27-.14.18-.35,0,0-1.01-2.68-1.19-3.17ZM117.67,112.36h-.79s0-2.83,0-2.83h.77c.88,0,1.34.38,1.35,1.4,0,.99-.42,1.42-1.33,1.43Z"/>
    <g>
      <path class="st1" d="M129.87,112.5c.38-.15.81-.45,1.31-.88.49-.44.92-.97,1.28-1.61.36-.64.54-1.32.54-2.03,0-.62-.09-1.04-.27-1.26-.18-.22-.47-.34-.88-.34-.19,0-.39.05-.62.14-.23.09-.43.19-.6.29-.17.1-.28.16-.33.2l-.17-.89s.11-.07.33-.19c.22-.12.48-.23.77-.33.3-.1.6-.15.91-.15.86,0,1.52.22,1.96.67.45.44.67,1.03.67,1.76,0,.83-.3,1.61-.89,2.36s-1.31,1.41-2.14,2h3.14v1.58h-5.02v-1.31Z"/>
      <path class="st1" d="M135.84,109.71c0-2.85.99-4.27,2.97-4.27s2.96,1.42,2.96,4.27c0,1.37-.24,2.42-.71,3.14-.47.73-1.22,1.09-2.26,1.09-1.98,0-2.97-1.41-2.97-4.23ZM139.52,112.78c.16-.19.28-.53.35-1.01s.1-1.16.1-2.06-.03-1.6-.1-2.08c-.07-.48-.19-.82-.35-1.02-.17-.2-.4-.3-.71-.3s-.54.1-.71.3-.28.54-.35,1.02c-.07.48-.1,1.17-.1,2.08s.03,1.59.1,2.07.19.81.35,1,.4.29.71.29.54-.1.71-.29Z"/>
      <path class="st1" d="M142.72,112.5c.38-.15.81-.45,1.31-.88.49-.44.92-.97,1.28-1.61.36-.64.54-1.32.54-2.03,0-.62-.09-1.04-.27-1.26-.18-.22-.47-.34-.88-.34-.19,0-.39.05-.62.14-.23.09-.43.19-.6.29-.17.1-.28.16-.33.2l-.17-.89s.11-.07.33-.19c.22-.12.48-.23.77-.33.3-.1.6-.15.91-.15.86,0,1.52.22,1.96.67.45.44.67,1.03.67,1.76,0,.83-.3,1.61-.89,2.36s-1.31,1.41-2.14,2h3.14v1.58h-5.02v-1.31Z"/>
      <path class="st1" d="M149.43,113.74c-.31-.13-.56-.28-.74-.44-.18-.16-.27-.25-.27-.27l.48-.71s.07.09.21.22c.14.13.32.24.54.35.22.11.47.16.76.16.47,0,.83-.14,1.08-.43.25-.29.38-.77.38-1.45,0-.63-.11-1.07-.32-1.34-.21-.27-.52-.41-.91-.41-.2,0-.38.04-.54.11-.16.08-.28.17-.35.28l-.06.13-.57-.09.46-4.28h3.6l-.08,1.65h-2.87l-.15,1.51c.23-.08.47-.11.7-.11.85,0,1.54.22,2.04.65.51.43.76,1.06.76,1.88,0,.63-.15,1.15-.44,1.57-.29.42-.67.74-1.14.94-.46.2-.95.3-1.47.3-.44,0-.81-.07-1.12-.2Z"/>
    </g>
  </g>
</svg>