<?xml version="1.0" encoding="utf-8"?>
<!-- Generator: Adobe Illustrator 28.1.0, SVG Export Plug-In . SVG Version: 6.00 Build 0)  -->
<svg version="1.1" id="Layer_1" xmlns="http://www.w3.org/2000/svg" xmlns:xlink="http://www.w3.org/1999/xlink" x="0px" y="0px"
	 viewBox="0 0 200 200" style="enable-background:new 0 0 200 200;" xml:space="preserve">
<style type="text/css">
	.st0{fill:#FFFFFF;}
	.st1{fill:#3A8FA3;}
	.st2{fill:#3590A5;}
	.st3{fill:#462D7E;}
</style>
<rect class="st0" width="200" height="200"/>
<g>
	<g>
		<path class="st1" d="M106.3,162.84c1.13,0,2.07-0.93,2.07-2.05c0-1.15-0.93-2.08-2.07-2.08c-1.13,0-2.06,0.93-2.06,2.08
			C104.23,161.92,105.16,162.84,106.3,162.84"/>
		<path class="st1" d="M112.41,152.91c-0.98,0-1.95,0.29-2.48,0.86c-0.5,0.55-2.16,2.59-2.16,2.59s-0.58,0.78-1.45,0.84h-0.01h-0.01
			c-0.87-0.05-1.45-0.84-1.45-0.84s-1.66-2.04-2.16-2.59c-0.53-0.57-1.5-0.86-2.48-0.86c-0.97-0.03-1.74,0.44-1.74,0.44l5.38,6.48
			c0.03-0.08,0.65-1.72,2.45-1.72h0.01h0.01c1.8,0,2.42,1.64,2.45,1.72l5.38-6.48C114.15,153.36,113.39,152.88,112.41,152.91"/>
	</g>
	<polygon class="st1" points="126.2,152.91 126.2,157.9 121.62,152.91 117.19,152.91 126.15,162.84 129.29,162.84 129.29,158.09 
		129.29,152.91 	"/>
	<polygon class="st1" points="130.67,152.91 130.67,157.43 130.67,162.84 133.93,162.84 133.93,157.46 133.93,152.91 	"/>
	<g>
		<path class="st1" d="M169.68,156.75h-0.56h-0.98v-1.37h0.98h0.5c0.05,0.03,0.5,0.18,0.5,0.69
			C170.13,156.57,169.68,156.75,169.68,156.75 M171.78,158.72c1.49-0.66,2.15-1.76,1.8-3.58c-0.24-1.47-1.67-2.21-3.21-2.24h-1.25
			h-4.22v9.93h3.29v-3.28c0-0.1,0.08-0.08,0.13-0.08l0.8,1.45l1.06,1.91h3.55L171.78,158.72z"/>
		<path class="st1" d="M158.43,159.77c-1.06,0-1.91-0.85-1.91-1.91c0-1.04,0.85-1.91,1.91-1.91c1.04,0,1.91,0.88,1.91,1.91
			C160.34,158.92,159.47,159.77,158.43,159.77 M158.43,152.58c-2.92,0-5.28,2.39-5.28,5.28c0,2.92,2.36,5.31,5.28,5.31
			c2.92,0,5.31-2.39,5.31-5.31C163.74,154.94,161.35,152.58,158.43,152.58"/>
	</g>
	<polygon class="st1" points="146.4,152.91 146.4,155.79 147.73,155.79 147.73,160.99 147.73,162.84 151.16,162.84 151.16,158.03 
		151.16,155.79 152.43,155.79 152.43,152.91 	"/>
	<g>
		<path class="st1" d="M140.26,152.58c2.64,0,4.85,1.93,5.27,4.41h-3.35c-0.34-0.61-1.01-1.02-1.76-1.02
			c-1.12,0-2.02,0.88-2.02,1.98c0,1.1,0.91,2.01,2.02,2.01c0.75,0,1.41-0.4,1.76-1.02h3.33c-0.51,2.41-2.66,4.23-5.24,4.23
			c-2.93,0-5.33-2.38-5.33-5.3C134.94,154.96,137.33,152.58,140.26,152.58"/>
	</g>
	<g>
		<path class="st2" d="M53.5,152.99h1.27c0.65,0,0.98,0.25,0.98,0.76c0,0.1-0.01,0.21-0.04,0.34l-0.65,3.1
			c-0.11,0.54-0.47,0.88-1.06,1.05c-0.14,0.04-0.33,0.06-0.57,0.06l-0.94,4.44h-1.06L53.5,152.99z M54.37,153.86l-0.75,3.55h0.04
			c0.09,0,0.15,0,0.18-0.01c0.09-0.03,0.14-0.1,0.17-0.21l0.65-3.1c0.01-0.03,0.01-0.06,0.01-0.08c0-0.1-0.05-0.15-0.16-0.15H54.37z
			"/>
		<path class="st2" d="M58.15,158.11l-0.19,4.62h-1.13l0.46-4.44h-0.06l-0.94,4.44h-1.06l2.07-9.74h1.27c0.65,0,0.98,0.25,0.98,0.76
			c0,0.1-0.01,0.21-0.04,0.34l-0.65,3.1C58.77,157.64,58.53,157.95,58.15,158.11z M58.17,153.86l-0.75,3.55h0.04
			c0.09,0,0.15,0,0.18-0.01c0.09-0.03,0.14-0.1,0.17-0.21l0.65-3.1c0.01-0.03,0.01-0.06,0.01-0.08c0-0.1-0.05-0.15-0.16-0.15H58.17z
			"/>
		<path class="st2" d="M60.85,152.99h2.29l-0.19,0.87h-1.24l-0.75,3.56h1.07l-0.19,0.87h-1.07l-0.75,3.56h1.24l-0.19,0.87h-2.29
			L60.85,152.99z"/>
		<path class="st2" d="M64,159.41l-0.5,2.32c-0.01,0.03-0.01,0.06-0.01,0.08c0,0.1,0.06,0.15,0.17,0.15c0.13,0,0.21-0.08,0.25-0.23
			l0.61-2.88c0-0.02,0.01-0.04,0.01-0.06c0-0.19-0.17-0.41-0.52-0.67c-0.37-0.27-0.56-0.58-0.56-0.95c0-0.08,0.01-0.16,0.03-0.25
			l0.62-2.92c0.15-0.73,0.65-1.1,1.49-1.1c0.71,0,1.07,0.26,1.07,0.79c0,0.1-0.01,0.2-0.04,0.31l-0.5,2.33h-1.06l0.5-2.33
			c0-0.03,0.01-0.05,0.01-0.08c0-0.1-0.05-0.15-0.16-0.15h-0.01c-0.13,0-0.21,0.08-0.24,0.23l-0.62,2.91c0,0.01-0.01,0.03-0.01,0.05
			c0,0.18,0.18,0.4,0.53,0.66c0.37,0.27,0.56,0.58,0.56,0.94c0,0.07-0.01,0.15-0.03,0.23l-0.63,2.94c-0.16,0.74-0.65,1.11-1.49,1.11
			c-0.71,0-1.06-0.27-1.06-0.79c0-0.1,0.01-0.2,0.04-0.31l0.5-2.32H64z"/>
		<path class="st2" d="M68.21,152.99h2.29l-0.19,0.87h-1.24l-0.75,3.56h1.07l-0.19,0.87h-1.07l-0.75,3.56h1.24l-0.19,0.87h-2.29
			L68.21,152.99z"/>
		<path class="st2" d="M73.22,152.99h1.02l-2.07,9.74h-0.81l0.3-4.76l-1.01,4.76h-1l2.07-9.74h0.81l-0.32,4.72L73.22,152.99z"/>
		<path class="st2" d="M77.93,152.99l-0.19,0.87h-0.73l-1.88,8.87h-1.05l1.88-8.87h-0.73l0.19-0.87H77.93z"/>
		<path class="st2" d="M79.1,152.99h2.29l-0.19,0.87h-1.24l-0.75,3.56h1.07l-0.19,0.87h-1.07l-0.75,3.56h1.24l-0.19,0.87h-2.29
			L79.1,152.99z"/>
		<path class="st2" d="M82.62,152.99h1.34c0.65,0,0.98,0.25,0.98,0.76c0,0.1-0.01,0.21-0.04,0.34l-1.6,7.54
			c-0.15,0.73-0.64,1.1-1.46,1.1h-1.29L82.62,152.99z M83.48,153.86l-1.69,7.99h0.2c0.13,0,0.21-0.08,0.24-0.23l1.6-7.54
			c0.01-0.03,0.01-0.06,0.01-0.08c0-0.1-0.05-0.15-0.16-0.15H83.48z"/>
		<path class="st2" d="M88.73,152.99h1.34c0.65,0,0.98,0.25,0.98,0.76c0,0.1-0.01,0.21-0.04,0.34l-0.65,3.1
			c-0.08,0.35-0.23,0.57-0.46,0.66c0.14,0.07,0.2,0.2,0.2,0.4c0,0.08-0.01,0.17-0.03,0.27l-0.66,3.11c-0.15,0.73-0.64,1.1-1.46,1.1
			h-1.29L88.73,152.99z M88.66,158.3l-0.75,3.56h0.2c0.13,0,0.21-0.08,0.24-0.23l0.66-3.11c0.01-0.03,0.01-0.05,0.01-0.08
			c0-0.07-0.03-0.12-0.09-0.14c-0.02-0.01-0.08-0.01-0.17-0.01H88.66z M89.6,153.86l-0.75,3.56h0.1c0.09,0,0.15,0,0.17-0.01
			c0.09-0.03,0.15-0.1,0.18-0.21l0.65-3.1c0.01-0.03,0.01-0.06,0.01-0.08c0-0.1-0.05-0.15-0.16-0.15H89.6z"/>
		<path class="st2" d="M93.46,152.99l-0.42,3.92l1.23-3.92h1.11l-2.13,5.52l-0.05,0.11l-0.87,4.1h-1.06l0.87-4.1l0.01-0.11
			l0.21-5.52H93.46z"/>
	</g>
	<g>
		<path class="st3" d="M79.01,66.81c-0.95,4.47-3.67,6.72-8.14,6.73c-3.68,0-5.52-1.52-5.52-4.57c0-0.65,0.08-1.37,0.25-2.16
			l3.96-18.64c0.95-4.47,3.66-6.71,8.12-6.71c3.69,0,5.53,1.52,5.53,4.57c0,0.64-0.08,1.36-0.25,2.14L79.01,66.81z M77.8,48.17
			c0.05-0.23,0.08-0.43,0.08-0.62c0-0.75-0.41-1.12-1.23-1.13h-0.03c-1,0-1.63,0.59-1.88,1.76l-3.96,18.64
			c-0.05,0.23-0.08,0.43-0.08,0.62c0,0.76,0.41,1.13,1.23,1.13c1.03,0,1.66-0.59,1.91-1.76L77.8,48.17z"/>
		<path class="st3" d="M86.75,41.94h6.79c3.39,0.01,5.08,1.5,5.08,4.46c0,0.68-0.09,1.44-0.26,2.27l-0.96,4.58
			c-0.6,2.82-2.12,4.64-4.55,5.47l1.94,14.32h-5.64l-0.7-13.38h-0.28l-2.84,13.38h-5.17L86.75,41.94z M90.87,46.89L89.16,55h0.62
			c0.56,0,0.93-0.03,1.1-0.09c0.7-0.26,1.15-0.81,1.34-1.66l0.96-4.58c0.05-0.23,0.08-0.43,0.08-0.62c0-0.77-0.41-1.15-1.23-1.15
			H90.87z"/>
		<path class="st3" d="M96,73.04l6.6-31.1h5.17l-5.55,26.15h7.01l-1.06,4.96H96z"/>
		<path class="st3" d="M116.15,41.94h12.18l-1.06,4.96h-7.01L118.56,55h6.03l-1.06,4.97h-6.03l-1.72,8.11h7.01l-1.06,4.96h-12.18
			L116.15,41.94z M127.74,38.46l-5.13,2.92h-4.44l5.92-4.55h4.01L127.74,38.46z"/>
		<path class="st3" d="M138.38,61.88l-0.89,11.15h-5.22l0.51-6.46h-3.81l-2.24,6.46h-5.2l3.84-11.11l7.39-19.99h6.71L138.38,61.88z
			 M133.18,61.6l0.76-9.41l-3.25,9.41H133.18z"/>
		<path class="st3" d="M145.47,41.94h5.11l0.2,15.32l3.25-15.32h4.85l-6.6,31.1h-5.11l-0.12-14.9l-3.17,14.9h-5L145.47,41.94z"/>
		<path class="st3" d="M160.01,48.17c0.95-4.47,3.66-6.71,8.12-6.71c3.69,0,5.53,1.52,5.53,4.57c0,0.64-0.08,1.36-0.25,2.14
			l-0.93,4.41h-5.17l0.93-4.41c0.05-0.23,0.08-0.43,0.08-0.62c0-0.75-0.41-1.12-1.23-1.13h-0.03c-1,0-1.63,0.59-1.88,1.76
			l-0.59,2.77c-0.03,0.13-0.05,0.27-0.05,0.42c0,1.19,1,2.64,3.01,4.33c1.94,1.62,2.91,3.49,2.91,5.62c0,0.54-0.06,1.09-0.19,1.65
			l-0.82,3.85c-0.95,4.48-3.66,6.73-8.12,6.73c-3.69-0.01-5.53-1.54-5.53-4.58c0-0.64,0.08-1.36,0.25-2.14l0.93-4.41h5.17
			l-0.93,4.41c-0.05,0.23-0.08,0.43-0.08,0.62c0,0.76,0.41,1.13,1.24,1.13c1.01,0,1.65-0.59,1.9-1.76l0.75-3.48
			c0.03-0.16,0.05-0.32,0.05-0.48c0-1.27-0.99-2.75-2.98-4.44c-1.92-1.61-2.87-3.49-2.87-5.65c0-0.56,0.06-1.13,0.19-1.72
			L160.01,48.17z"/>
	</g>
	<g>
		<path class="st3" d="M33.42,98.69l9.17-20.62h5.11l-6.6,31.1h-4.99l3.05-14.31l-6.09,14.31h-3.64l-0.09-14.4l-3.06,14.4h-5.03
			l6.6-31.1h5.11L33.42,98.69z"/>
		<path class="st3" d="M59.31,98.02l-0.89,11.15H53.2l0.51-6.46h-3.81l-2.24,6.46h-5.2l3.84-11.11l7.39-19.99h6.71L59.31,98.02z
			 M54.1,97.74l0.76-9.41l-3.25,9.41H54.1z"/>
		<path class="st3" d="M64.76,84.3c0.95-4.47,3.66-6.71,8.12-6.71c3.69,0,5.53,1.52,5.53,4.57c0,0.64-0.08,1.36-0.25,2.14
			l-0.93,4.41h-5.17l0.93-4.41c0.05-0.23,0.08-0.43,0.08-0.62c0-0.75-0.41-1.12-1.23-1.13h-0.03c-1,0-1.63,0.59-1.88,1.76
			l-0.59,2.77c-0.03,0.13-0.05,0.27-0.05,0.42c0,1.19,1,2.64,3.01,4.33c1.94,1.62,2.91,3.49,2.91,5.62c0,0.54-0.06,1.09-0.19,1.65
			l-0.82,3.85c-0.95,4.48-3.66,6.73-8.12,6.73c-3.69-0.01-5.53-1.54-5.53-4.58c0-0.64,0.08-1.36,0.25-2.14l0.93-4.41h5.17
			l-0.93,4.41c-0.05,0.23-0.08,0.43-0.08,0.62c0,0.76,0.41,1.13,1.24,1.13c1.01,0,1.65-0.59,1.9-1.76l0.75-3.48
			c0.03-0.16,0.05-0.32,0.05-0.48c0-1.27-0.99-2.75-2.98-4.44c-1.92-1.61-2.87-3.49-2.87-5.65c0-0.56,0.06-1.13,0.19-1.72
			L64.76,84.3z"/>
		<path class="st3" d="M94.11,78.07l-1.06,4.96h-4.12l-5.55,26.15h-5.17l5.55-26.15h-4.12l1.06-4.96H94.11z"/>
		<path class="st3" d="M95.63,78.07h12.18l-1.06,4.96h-7.01l-1.71,8.11h6.03l-1.06,4.97h-6.03l-1.72,8.11h7.01l-1.06,4.96H89.03
			L95.63,78.07z"/>
		<path class="st3" d="M109.8,78.07h6.79c3.39,0.01,5.08,1.5,5.08,4.46c0,0.68-0.09,1.44-0.26,2.27l-0.96,4.58
			c-0.6,2.82-2.12,4.64-4.55,5.47l1.94,14.32h-5.64l-0.7-13.38h-0.28l-2.84,13.38h-5.17L109.8,78.07z M113.92,83.03l-1.71,8.11h0.62
			c0.56,0,0.93-0.03,1.1-0.09c0.7-0.26,1.15-0.81,1.34-1.66l0.96-4.58c0.05-0.23,0.08-0.43,0.08-0.62c0-0.77-0.41-1.15-1.23-1.15
			H113.92z"/>
		<path class="st3" d="M124.02,84.3c0.95-4.47,3.66-6.71,8.12-6.71c3.69,0,5.53,1.52,5.53,4.57c0,0.64-0.08,1.36-0.25,2.14
			l-0.93,4.41h-5.17l0.93-4.41c0.05-0.23,0.08-0.43,0.08-0.62c0-0.75-0.41-1.12-1.23-1.13h-0.03c-1,0-1.63,0.59-1.88,1.76
			l-0.59,2.77c-0.03,0.13-0.05,0.27-0.05,0.42c0,1.19,1,2.64,3.01,4.33c1.94,1.62,2.91,3.49,2.91,5.62c0,0.54-0.06,1.09-0.19,1.65
			l-0.82,3.85c-0.95,4.48-3.66,6.73-8.12,6.73c-3.69-0.01-5.53-1.54-5.53-4.58c0-0.64,0.08-1.36,0.25-2.14l0.93-4.41h5.17
			l-0.93,4.41c-0.05,0.23-0.08,0.43-0.08,0.62c0,0.76,0.41,1.13,1.24,1.13c1.01,0,1.65-0.59,1.9-1.76l0.75-3.48
			c0.03-0.16,0.05-0.32,0.05-0.48c0-1.27-0.99-2.75-2.98-4.44c-1.92-1.61-2.87-3.49-2.87-5.65c0-0.56,0.06-1.13,0.19-1.72
			L124.02,84.3z"/>
	</g>
	<g>
		<path class="st3" d="M41.72,113.88h7.16c3.39,0.01,5.08,1.5,5.08,4.46c0,0.68-0.09,1.44-0.26,2.27l-0.96,4.58
			c-0.46,2.11-1.45,3.53-2.98,4.24c0.9,0.52,1.35,1.41,1.35,2.69c0,0.47-0.06,0.98-0.19,1.55l-0.96,4.6
			c-0.95,4.46-3.6,6.7-7.94,6.71h-6.9L41.72,113.88z M43.08,131.92l-1.72,8.11h1.54c1.01,0,1.65-0.59,1.9-1.76l0.96-4.6
			c0.04-0.2,0.06-0.38,0.06-0.56c0-0.54-0.23-0.9-0.68-1.09c-0.16-0.07-0.51-0.11-1.06-0.11H43.08z M45.84,118.84l-1.71,8.11h0.99
			c0.56,0,0.93-0.03,1.1-0.09c0.7-0.26,1.15-0.81,1.34-1.66l0.96-4.58c0.05-0.23,0.08-0.43,0.08-0.62c0-0.77-0.41-1.15-1.23-1.15
			H45.84z"/>
		<path class="st3" d="M66.27,133.83l-0.89,11.15h-5.22l0.51-6.46h-3.81l-2.24,6.46h-5.2l3.84-11.11l7.39-19.99h6.71L66.27,133.83z
			 M61.07,133.55l0.76-9.41l-3.25,9.41H61.07z"/>
		<path class="st3" d="M73.36,113.88h7.16c3.39,0.01,5.08,1.5,5.08,4.46c0,0.68-0.09,1.44-0.26,2.27l-3.74,17.66
			c-0.95,4.46-3.6,6.7-7.94,6.71h-6.9L73.36,113.88z M77.47,118.84l-4.49,21.19h1.54c1.01,0,1.65-0.59,1.9-1.76l3.74-17.66
			c0.05-0.23,0.08-0.43,0.08-0.62c0-0.77-0.41-1.15-1.23-1.15H77.47z"/>
		<path class="st3" d="M94.8,134.5l9.17-20.62h5.11l-6.6,31.1h-4.99l3.05-14.31l-6.09,14.31H90.8l-0.09-14.4l-3.06,14.4h-5.03
			l6.6-31.1h5.11L94.8,134.5z"/>
		<path class="st3" d="M111.92,113.88h5.17l-6.6,31.1h-5.17L111.92,113.88z"/>
		<path class="st3" d="M119.94,113.88h5.11l0.2,15.32l3.25-15.32h4.85l-6.6,31.1h-5.11l-0.12-14.9l-3.17,14.9h-5L119.94,113.88z"/>
		<path class="st3" d="M148.27,113.88l-1.06,4.96h-4.12l-5.55,26.15h-5.17l5.55-26.15h-4.12l1.06-4.96H148.27z"/>
		<path class="st3" d="M157.61,138.76c-0.95,4.47-3.67,6.72-8.14,6.73c-3.68,0-5.52-1.52-5.52-4.57c0-0.65,0.08-1.37,0.25-2.16
			l3.96-18.64c0.95-4.47,3.66-6.71,8.12-6.71c3.69,0,5.53,1.52,5.53,4.57c0,0.64-0.08,1.36-0.25,2.14L157.61,138.76z M156.4,120.11
			c0.05-0.23,0.08-0.43,0.08-0.62c0-0.75-0.41-1.12-1.23-1.13h-0.03c-1,0-1.63,0.59-1.88,1.76l-3.96,18.64
			c-0.05,0.23-0.08,0.43-0.08,0.62c0,0.76,0.41,1.13,1.23,1.13c1.03,0,1.66-0.59,1.91-1.76L156.4,120.11z"/>
		<path class="st3" d="M165.35,113.88h5.11l0.2,15.32l3.25-15.32h4.85l-6.6,31.1h-5.11l-0.12-14.9l-3.17,14.9h-5L165.35,113.88z"/>
	</g>
</g>
</svg>
