<?xml version="1.0" encoding="UTF-8"?>
<svg id="Layer_1" xmlns="http://www.w3.org/2000/svg" version="1.1" viewBox="0 0 200 200">
  <!-- Generator: Adobe Illustrator 29.0.1, SVG Export Plug-In . SVG Version: 2.1.0 Build 192)  -->
  <defs>
    <style>
      .st0 {
        fill: #3c3c3b;
      }

      .st1 {
        fill: #fff;
      }

      .st2 {
        fill: #0069b3;
      }

      .st3 {
        fill: #8b7442;
      }
    </style>
  </defs>
  <rect class="st1" width="200" height="200"/>
  <g>
    <rect class="st2" x="20.51" y="124.12" width="77.78" height="3.35"/>
    <path class="st3" d="M88.16,83.29l-5.45,11.42h4.55l3.24-7.52,3.24,7.52h4.99l-5.34-11.03,5.25-10.79h-4.58l-2.95,7.16-3-7.16h-5.01l5.07,10.39ZM82.19,94.71v-3.35h-7.32v-6.29h6.53v-3.35h-6.53v-5.47h7.09v-3.35h-11.49v21.82h11.72ZM56.03,94.71v-15.95h.06l5.74,15.95h5.8v-21.82h-4.11v15.11h-.06l-5.6-15.11h-5.95v21.82h4.11ZM42.3,95.07c7.26,0,7.26-5.56,7.26-11.27s0-11.27-7.26-11.27-7.26,5.5-7.26,11.27,0,11.27,7.26,11.27M42.3,91.81c-2.48,0-2.8-2.42-2.8-8.01s.32-8.01,2.8-8.01,2.8,2.42,2.8,8.01-.32,8.01-2.8,8.01M24.95,94.71h4.4v-9.09l5.89-12.73h-4.49l-3.35,7.57-3.15-7.57h-4.81l5.51,12.73v9.09Z"/>
    <path class="st3" d="M151.19,120.3v-15.95h.06l5.65,15.95h5.71v-21.82h-4.05v15.11h-.06l-5.51-15.11h-5.86v21.82h4.05ZM144.88,120.3v-3.35h-7.2v-6.26h6.43v-3.35h-6.43v-5.49h6.98v-3.35h-11.31v21.82h11.54ZM117.98,120.3h4.33v-8.88h3.21c5.08,0,5.77-3.93,5.77-6.41,0-3.99-1.55-6.53-5.51-6.53h-7.81v21.82ZM122.31,101.84h2.18c1.95,0,2.41,1.51,2.41,3.29,0,1.45-.89,2.93-2.18,2.93h-2.41v-6.22ZM107.93,120.66c7.15,0,7.15-5.56,7.15-11.27s0-11.27-7.15-11.27-7.15,5.5-7.15,11.27,0,11.27,7.15,11.27M107.93,117.4c-2.44,0-2.76-2.42-2.76-8.01s.32-8.01,2.76-8.01,2.76,2.42,2.76,8.01-.32,8.01-2.76,8.01"/>
    <path class="st0" d="M98.17,114.35c0-6.86-8.73-6.5-8.73-10.64,0-1.51.83-2.33,2.24-2.33,1.75,0,2.01,1.66,2.01,3.29h4.22c.29-4.56-1.81-6.56-6.03-6.56-5.28,0-6.83,2.72-6.83,6.13,0,6.5,8.73,6.74,8.73,10.67,0,1.48-.72,2.48-2.18,2.48-2.38,0-2.47-1.75-2.47-3.84h-4.33c-.23,3.78.78,7.1,6.14,7.1,3.3,0,7.23-.66,7.23-6.32M82.5,114.35c0-6.86-8.73-6.5-8.73-10.64,0-1.51.83-2.33,2.24-2.33,1.75,0,2.01,1.66,2.01,3.29h4.22c.29-4.56-1.81-6.56-6.03-6.56-5.28,0-6.83,2.72-6.83,6.13,0,6.5,8.73,6.74,8.73,10.67,0,1.48-.72,2.48-2.18,2.48-2.38,0-2.47-1.75-2.47-3.84h-4.33c-.23,3.78.78,7.1,6.14,7.1,3.3,0,7.23-.66,7.23-6.32M66.28,98.48h-4.33v21.82h4.33v-21.82ZM39.47,120.3h4.71l3.59-15.95h.06l3.24,15.95h4.79l4.59-21.82h-4.25l-2.58,15.32h-.06l-3.1-15.32h-5.11l-3.27,15.32h-.06l-2.7-15.32h-4.45l4.59,21.82ZM33.9,114.35c0-6.86-8.73-6.5-8.73-10.64,0-1.51.83-2.33,2.24-2.33,1.75,0,2.01,1.66,2.01,3.29h4.22c.29-4.56-1.81-6.56-6.03-6.56-5.28,0-6.83,2.72-6.83,6.13,0,6.5,8.73,6.74,8.73,10.67,0,1.48-.72,2.48-2.18,2.48-2.38,0-2.47-1.75-2.47-3.84h-4.33c-.23,3.78.78,7.1,6.14,7.1,3.3,0,7.23-.66,7.23-6.32"/>
    <g>
      <path class="st3" d="M165.59,110.4v-2.13c3.81-5.08,4.61-5.67,4.61-7.18,0-.61-.23-1.18-.92-1.18-1.01,0-1.06.95-1.06,1.73h-2.44c-.17-2.25,1.09-3.5,3.33-3.5,2.1,0,3.54.85,3.54,3.12,0,2.72-3.17,5.81-4.49,7.26h4.61v1.87h-7.18Z"/>
      <path class="st3" d="M176.19,103.18l.03.03c.38-.57,1.04-.81,1.75-.81,1.99,0,2.58,1.37,2.58,3.99,0,3.24-1.21,4.16-3.69,4.16-2.01,0-3.28-.83-3.21-3h2.44c0,.33.03.64.17.87s.36.36.75.36c.97,0,1.09-.75,1.09-2.39,0-.78.07-2.43-1.04-2.43-.71,0-.92.8-.92,1.35h-2.36v-7.02h6.33v1.87h-3.93v3.02Z"/>
    </g>
  </g>
</svg>