<?xml version="1.0" encoding="UTF-8"?>
<svg id="Layer_1" xmlns="http://www.w3.org/2000/svg" version="1.1" viewBox="0 0 200 200">
  <!-- Generator: Adobe Illustrator 29.0.1, SVG Export Plug-In . SVG Version: 2.1.0 Build 192)  -->
  <defs>
    <style>
      .st0 {
        fill: #6f7171;
      }

      .st1 {
        fill: #211e1f;
      }

      .st2 {
        fill: #fff;
      }

      .st3 {
        fill: #f26f26;
      }
    </style>
  </defs>
  <rect class="st2" width="200" height="200"/>
  <g>
    <path class="st3" d="M96.68,97.97s-.05-.04-.08-.04h-1.72s-.09.04-.1.09l-1.81,9.32s0,.06.02.09c.02.02.05.04.08.04h1.73c.05,0,.1-.04.11-.09l1.8-9.31s0-.06-.02-.09"/>
    <path class="st3" d="M103.21,98.48c-.51-.36-1.33-.55-2.45-.55h-2.44c-.05,0-.09.04-.1.09l-1.82,9.32s0,.06.02.09c.02.02.05.04.08.04h1.73c.05,0,.1-.04.11-.09l.71-3.69,2.01,3.72s.06.05.1.05h1.95s.07-.02.09-.05c.02-.03.02-.07,0-.11l-2.01-3.34c.5-.05.91-.14,1.23-.26.44-.18.83-.48,1.16-.87.48-.59.72-1.3.72-2.09,0-.97-.37-1.73-1.09-2.25M102.35,100.82c0,.5-.18.89-.56,1.18-.3.24-.8.36-1.48.36h-1l.5-2.65h1.03c1.02,0,1.51.36,1.51,1.11"/>
    <path class="st3" d="M107.85,97.94h-1.72c-.05,0-.09.04-.1.09l-1.81,9.32s0,.06.02.09c.02.02.05.04.08.04h1.73c.05,0,.09-.04.1-.09l1.8-9.31s0-.06-.02-.09c-.02-.02-.05-.04-.08-.04"/>
    <path class="st3" d="M117.6,97.98s-.05-.05-.09-.05h-1.86s-.08.02-.09.06l-3.8,7.09-1.34-7.06s-.05-.09-.1-.09h-1.7s-.06.01-.08.04c-.02.02-.03.06-.02.09l1.77,9.31s.05.09.11.09h2.06s.08-.02.1-.05l5.05-9.32s.02-.07,0-.11"/>
    <path class="st3" d="M122.31,97.94h-2.08s-.07.02-.09.05l-5.15,9.31s-.02.07,0,.11c.02.03.05.05.09.05h1.89s.07-.02.09-.05l1.42-2.58h3.32l.49,2.55s.05.09.1.09h1.77s.06-.01.08-.04c.02-.03.03-.06.02-.09l-1.86-9.31c-.01-.05-.05-.09-.1-.09M121.47,103.04h-2.04l1.52-2.93.52,2.93Z"/>
    <path class="st3" d="M134.43,97.97s-.05-.04-.08-.04h-1.72s-.09.04-.1.09l-1.29,6.62-2.06-6.63s-.06-.07-.1-.07h-2.28c-.05,0-.09.04-.1.09l-1.82,9.32s0,.06.02.09c.02.02.05.04.08.04h1.73s.09-.04.1-.09l1.27-6.56,2.04,6.57s.06.08.1.08h2.3s.09-.04.1-.09l1.81-9.31s0-.06-.02-.09"/>
    <path class="st3" d="M143.69,97.97s-.05-.04-.08-.04h-1.72c-.05,0-.09.04-.1.09l-1.29,6.62-2.06-6.63s-.06-.07-.1-.07h-2.27c-.05,0-.1.04-.11.09l-1.81,9.32s0,.06.02.09c.02.02.05.04.08.04h1.73s.1-.04.11-.09l1.27-6.56,2.04,6.57s.06.08.1.08h2.3c.05,0,.1-.04.11-.09l1.81-9.31s0-.06-.02-.09"/>
    <path class="st3" d="M149.89,97.94h-2.08s-.07.02-.09.05l-5.15,9.31s-.02.07,0,.11c.02.03.05.05.09.05h1.88s.08-.02.09-.05l1.42-2.58h3.33l.49,2.55s.05.09.1.09h1.77s.06-.01.08-.04c.02-.03.03-.06.02-.09l-1.86-9.31c0-.05-.06-.09-.11-.09M149.05,103.04h-2.04l1.52-2.93.52,2.93Z"/>
    <path class="st3" d="M161.73,97.98s-.05-.05-.09-.05h-1.86s-.08.02-.1.06l-3.8,7.09-1.34-7.06s-.06-.09-.11-.09h-1.7s-.06.01-.08.04c-.02.02-.03.06-.02.09l1.77,9.31s.05.09.11.09h2.06s.08-.02.09-.05l5.05-9.32s.02-.07,0-.11"/>
    <path class="st3" d="M166.44,97.94h-2.08s-.07.02-.09.05l-5.15,9.31s-.02.07,0,.11c.02.03.05.05.09.05h1.88s.08-.02.1-.05l1.42-2.58h3.33l.49,2.55s.05.09.1.09h1.77s.06-.01.08-.04c.02-.03.03-.06.02-.09l-1.86-9.31c0-.05-.05-.09-.1-.09M165.6,103.04h-2.04l1.52-2.93.52,2.93Z"/>
    <path class="st3" d="M175.81,98.48c-.51-.36-1.33-.55-2.45-.55h-2.44c-.05,0-.1.04-.1.09l-1.82,9.32s0,.06.02.09c.02.02.05.04.08.04h1.73c.05,0,.1-.04.11-.09l.71-3.69,2.01,3.72s.05.05.09.05h1.95s.08-.02.09-.05c.02-.03.02-.07,0-.11l-2.01-3.34c.5-.05.91-.14,1.23-.26.44-.18.83-.48,1.16-.87.48-.59.72-1.3.72-2.09,0-.97-.37-1.73-1.09-2.25M174.96,100.82c0,.5-.18.89-.56,1.18-.3.24-.8.36-1.48.36h-1l.5-2.65h1.03c1.02,0,1.51.36,1.51,1.11"/>
    <path class="st3" d="M180.54,97.97s-.05-.04-.08-.04h-1.72s-.09.04-.1.09l-1.81,9.32s0,.06.02.09c.02.02.05.04.08.04h1.73c.05,0,.1-.04.11-.09l1.8-9.31s0-.06-.02-.09"/>
    <path class="st3" d="M57.88,125.04s-17.8-6.7-13.77-26.93c0,0,2.43.9,2.6-1.45.17-2.35-2.36-2.56-3.13-1.89,0,0-2.86,2.01-2.54,7.76.32,5.75,2.99,18.41,16.84,22.51"/>
    <path class="st3" d="M40.86,96.65c.11-.47.51-1.58,2.88-3.32,2.37-1.74,1.91-2.66,1.33-4.3-.58-1.63.43-2.74.43-2.74-4.3,3.09-4.64,10.35-4.64,10.35"/>
    <path class="st3" d="M39.07,92.07c.07,1.9.36,8.98.36,8.98,1.47-19.2,11.17-22.37,14.31-21.76,3.14.61,2,2.29,2,2.29-.53-1.36-2.02-1.2-2.63-.66-.61.54-1.44,3.61,1.86,3.47,3.3-.14,4.05-5.28.09-6.63-3.96-1.35-7.83,1.73-7.83,1.73.59-3.45-.35-4.33-.35-4.33-.29,2.1-1.22,2.6-4.38,3.86-3.16,1.26-3.65,5.1-3.65,5.1-3.34-1.46-4.62.64-4.62.64,3.65-.05,4.77,5.4,4.84,7.31"/>
    <path class="st3" d="M23.42,126.61c1.41-6.81,11.61-4.45,11.61-4.45,0,0,7.8,2.26,12.02,4.21,4.22,1.96,11.16,4.22,19.75.51,0,0-8.65,1.87-17.31-4.81-8.66-6.68-11.25-17.76-11.34-23.34-.09-5.57-2.03-11.07-5.99-12.4-3.96-1.33-5.13,1.38-5.22,1.66-.09.28-.68,2.71,1.79,3.17,0,0,2.68.28,1.56-3.04,0,0,1.35-1.02,3.03,1.38,1.69,2.4-.84,5.52-1.43,6.72-.59,1.21-1.47,3.16.11,5.77,0,0-3.64-1.3-5.42.76-1.77,2.05-.02,3.53.36,3.61.38.08,1.81.27,2.12-1.4,0,0-.09-1.25,2.39,1.26,2.48,2.51,6.42,11.86,15.03,16.17,0,0-2.35-.35-7.06-4.38-4.71-4.03-7.64-.72-7.64-.72,0,0-4.47-4.34-9.66-1.08-5.19,3.26-1.17,9.17-1.17,9.17,0,0-3.32,2.93-.11,6.63,3.2,3.7,8.24,2.37,8.24,2.37,0,0-7.06-.99-5.65-7.8"/>
    <path class="st3" d="M64.36,128.54s-7.19,3.28-17.77-.95c-10.58-4.24-15.85-6.54-19.56-1.4-3.7,5.14,4.84,10.3,6.59,4.15,0,0,.43-1.32-.82-2.86,0,0,3.29-1.06,4.87,1.16,0,0-3.1,1.4-2.04,4.95,0,0,1.55-2.1,3.98-1.27,2.43.83,6.64.75,8.03-.34,0,0-1.97,2.74.83,4.77,0,0,.08-2.7,3.54-3.4,3.46-.7,10.28-1.86,12.35-4.81M29.82,131.38c-.92,0-1.67-.75-1.67-1.67s.75-1.67,1.67-1.67,1.67.75,1.67,1.67-.75,1.67-1.67,1.67"/>
    <path class="st3" d="M78.72,77.12c6.73,0,10.32,4.53,10.77,13.58l2.35.45,3.26-16.61h-2.47c-.75.83-1.35,1.39-1.8,1.68-.52.3-2.32.19-5.38-.34-2.69-.97-5.5-1.46-8.41-1.46-3.74,0-6.92.78-9.54,2.36-4.79,2.99-7.18,7.33-7.18,13.02,0,3.89,1.76,7.71,5.27,11.45,1.64,1.42,3.25,2.81,4.83,4.15,1.57,1.35,3.18,2.73,4.82,4.15,3.51,3.14,5.27,6.17,5.27,9.09,0,1.13-.2,2.38-.61,3.54-8.51,4.01-14.78.37-14.87-1.91,0,0,3.65-.06,2.8-3.7-.86-3.63-8.34-2.41-7.74,2.64.6,5.06,6.88,7.37,12.41,6.58,0,0,2.86-.19,6.68-2.04-.41.71-.91,1.35-1.52,1.85-2.22,1.81-4.91,2.57-7.73,2.59-.31,0-.62,0-.92.02-.44.02-.87.07-1.3.16-3.07.67-6,3.33-4.71,8.35.18-.28.38-.56.58-.83,1.09-1.43,2.5-2.62,4.16-3.32,2.06-.87,4.26-.62,6.43-.78,1.73-.14,3.45-.44,5.1-.99,3.22-1.06,6.18-3.08,8.11-5.89,1.94-2.84,2.91-6.21,2.91-10.1,0-3.21-.89-6.25-2.64-9.13-.2.05-.5-.18-.65-.25-.46-.23-.93-.44-1.42-.59-1.98-.61-5.22-.43-6.78.16-1.55.59-2.41-.12-2.41-.12.1.09,1.09-.29,1.25-.33.39-.11.79-.21,1.18-.32.68-.18,1.37-.37,2.05-.55,1.53-.41,2.98-.77,4.58-.61.13.01.25.03.37.05-.29-.35-.59-.7-.91-1.05-.82-.03-1.86.1-3.12.55-3.99,1.43-8.16,3.06-13.07.55-4.91-2.51-4.17-6.72-4.17-6.72,0,0,.74-3.47.59-4.3,0,0-.85-.1-1.37-.36-.52-.26-.94-.24-1.74,0-.8.23-1.18-.2-1.18-.2,0,0,2.27-.69,2.1-2.11s1.55-2.41,2.75-2.82c1.21-.41,4.13-1.03,3.9-3.22,0,0-.31.34-.88.31-.57-.03-.83-1.23.13-1.41.95-.18,2.15,1.92.14,4.41,0,0-.74.29.37,1.33,1.1,1.04-.23,4.21.48,5.12.7.9,1.01.28,2,1.31,0,0-3.88.92-2.27,4.67,1.49,3.47,8.51,3.51,11.91-.32-.27-.23-.55-.45-.84-.67l-1.75-1.34c-1.45.17-2.25.71-1.55,1.48,0,0,.96-.61,1.22.48.26,1.08-1.6,1.2-2.16-.14-.56-1.34.42-1.96.42-1.96,0,0-.92.36-1.08,1.22-.16.86.58,1.78,1.68,2.23,0,0-2.23,1.38-5.37.22-3.15-1.16-2.43-4.8-.61-5.29,1.82-.49,1.84.27,3.77.19.43-.02.94-.06,1.5-.1l-1.79-1.36c-3.14-2.39-4.71-5.05-4.71-7.97,0-2.62.76-4.73,2.3-6.34,1.53-1.61,3.61-2.41,6.23-2.41M63.61,118.7c-.69,0-1.25-.56-1.25-1.25s.56-1.25,1.25-1.25,1.25.56,1.25,1.25-.56,1.25-1.25,1.25M82.39,106.02c3.28.08,4.88,2,4.88,2,5.3,12.36-5.46,18.94-5.46,18.94,11.32-10.52.58-20.95.58-20.95"/>
    <path class="st1" d="M125.73,94.71l1.62-8.34h1.94c.89,0,1.57.17,2.03.5.57.41.85,1,.85,1.76,0,.88-.27,1.58-.82,2.1-.55.53-1.29.79-2.21.79h-1.24l-.61,3.19h-1.55ZM128.62,87.77l-.45,2.35h.84c1.08,0,1.62-.44,1.62-1.31,0-.69-.45-1.04-1.36-1.04h-.65Z"/>
    <path class="st1" d="M132.53,94.71l1.63-8.34h2.19c.98,0,1.7.16,2.14.47.63.45.94,1.1.94,1.94,0,.69-.21,1.3-.62,1.81-.28.34-.62.59-1,.75-.31.12-.72.19-1.23.24l1.88,3.13h-1.75l-1.92-3.56-.69,3.56h-1.55ZM135.42,87.77l-.49,2.56h1.01c.63,0,1.1-.11,1.39-.34.36-.28.54-.66.54-1.14,0-.72-.48-1.09-1.45-1.09h-1Z"/>
    <polygon class="st1" points="140.04 94.71 141.67 86.37 143.2 86.37 141.59 94.71 140.04 94.71"/>
    <polygon class="st1" points="143.63 94.71 145.25 86.37 147.29 86.37 149.25 92.67 150.48 86.37 152.01 86.37 150.39 94.71 148.32 94.71 146.39 88.46 145.18 94.71 143.63 94.71"/>
    <path class="st1" d="M158.94,92.46c.06-.07.14-.18.24-.31h1.66c-.36.84-.9,1.5-1.62,1.99-.72.48-1.53.72-2.42.72-1.12,0-2.05-.37-2.81-1.1-.76-.73-1.13-1.64-1.13-2.72,0-1.38.43-2.52,1.29-3.44.86-.92,1.93-1.38,3.21-1.38.97,0,1.8.26,2.48.76.67.51,1.12,1.21,1.35,2.1h-1.59c-.43-.97-1.18-1.46-2.24-1.46-.82,0-1.52.32-2.1.97-.58.65-.86,1.43-.86,2.36,0,.73.23,1.34.69,1.81.46.47,1.04.7,1.75.7.86,0,1.56-.33,2.11-1"/>
    <polygon class="st1" points="161.81 94.71 163.44 86.37 167.67 86.37 167.41 87.77 164.7 87.77 164.34 89.7 167.11 89.7 166.85 91.1 164.06 91.1 163.62 93.31 166.45 93.31 166.17 94.71 161.81 94.71"/>
    <path class="st1" d="M173.91,88.37c0,.07-.01.19-.04.36h-1.64c.03-.14.04-.23.04-.27,0-.24-.09-.44-.26-.6-.17-.16-.4-.24-.68-.24-.29,0-.53.09-.72.26-.19.18-.29.39-.29.65,0,.23.08.43.22.58.15.15.47.38.96.67.63.37,1.08.7,1.32.98.38.42.58.91.58,1.46,0,.75-.28,1.38-.83,1.88-.56.51-1.24.76-2.07.76-.77,0-1.41-.21-1.91-.64-.51-.43-.76-.97-.76-1.62,0-.13.02-.27.06-.45h1.53c-.03.11-.04.22-.04.34,0,.28.11.52.34.7.22.19.52.28.87.28s.67-.1.91-.31c.24-.2.36-.46.36-.77,0-.25-.08-.47-.25-.66-.17-.19-.47-.41-.9-.66-.49-.28-.8-.47-.92-.55-.13-.08-.27-.21-.43-.39-.39-.42-.59-.89-.59-1.43,0-.71.26-1.3.77-1.77.52-.47,1.16-.71,1.92-.71.71,0,1.29.2,1.74.6.45.4.68.92.68,1.55"/>
    <path class="st1" d="M180.56,88.37c0,.07-.01.19-.04.36h-1.64c.03-.14.04-.23.04-.27,0-.24-.09-.44-.26-.6-.18-.16-.4-.24-.68-.24-.29,0-.54.09-.72.26-.19.18-.29.39-.29.65,0,.23.08.43.22.58.15.15.47.38.96.67.64.37,1.08.7,1.32.98.38.42.58.91.58,1.46,0,.75-.28,1.38-.83,1.88-.55.51-1.24.76-2.07.76-.77,0-1.4-.21-1.91-.64-.51-.43-.76-.97-.76-1.62,0-.13.02-.27.06-.45h1.52c-.03.11-.04.22-.04.34,0,.28.11.52.34.7.22.19.52.28.87.28s.67-.1.91-.31c.24-.2.36-.46.36-.77,0-.25-.08-.47-.25-.66-.17-.19-.47-.41-.9-.66-.49-.28-.8-.47-.92-.55-.13-.08-.27-.21-.42-.39-.39-.42-.59-.89-.59-1.43,0-.71.26-1.3.77-1.77.52-.47,1.16-.71,1.92-.71.71,0,1.29.2,1.75.6.45.4.68.92.68,1.55"/>
    <polygon class="st1" points="93.16 112.19 93.38 111.05 97.29 111.05 97.07 112.19 95.78 112.19 94.68 117.88 93.41 117.88 94.52 112.19 93.16 112.19"/>
    <polygon class="st1" points="96.75 117.88 98.09 111.05 99.35 111.05 98.82 113.77 101.09 113.77 101.62 111.05 102.88 111.05 101.56 117.88 100.29 117.88 100.86 114.92 98.6 114.92 98.02 117.88 96.75 117.88"/>
    <path class="st1" d="M106.04,111.05h1.53l1.36,6.84h-1.3l-.37-1.94h-2.55l-1.06,1.94h-1.39l3.78-6.84ZM105.32,114.8h1.72l-.44-2.47-1.28,2.47Z"/>
    <polygon class="st1" points="109.59 117.88 110.93 111.05 112.19 111.05 110.86 117.88 109.59 117.88"/>
    <polygon class="st1" points="112.19 117.88 113.53 111.05 114.79 111.05 113.68 116.74 115.91 116.74 115.69 117.88 112.19 117.88"/>
    <path class="st1" d="M119.93,111.05h1.53l1.36,6.84h-1.3l-.37-1.94h-2.55l-1.07,1.94h-1.38l3.78-6.84ZM119.21,114.8h1.72l-.44-2.47-1.28,2.47Z"/>
    <polygon class="st1" points="123.49 117.88 124.82 111.05 126.49 111.05 128.1 116.21 129.1 111.05 130.36 111.05 129.03 117.88 127.34 117.88 125.75 112.76 124.76 117.88 123.49 117.88"/>
    <path class="st1" d="M130.36,117.88l1.33-6.84h1.82c1.26,0,2.17.37,2.74,1.11.4.51.59,1.14.59,1.88,0,.97-.28,1.81-.84,2.52-.37.47-.81.81-1.32,1.02-.51.21-1.17.31-1.96.31h-2.36ZM132.73,112.19l-.88,4.56c.26,0,.56.01.89.01.78,0,1.39-.17,1.85-.49.31-.23.55-.51.7-.83.19-.41.29-.87.29-1.37,0-.74-.25-1.27-.74-1.57-.34-.2-.82-.31-1.47-.31h-.63Z"/>
    <polygon class="st1" points="143.13 112.46 142.08 117.88 140.81 117.88 142.14 111.05 144.14 111.05 144.67 116.39 147.09 111.05 149.2 111.05 147.87 117.88 146.61 117.88 147.66 112.46 145.08 117.88 143.71 117.88 143.13 112.46"/>
    <path class="st1" d="M152.35,111.05h1.53l1.36,6.84h-1.3l-.37-1.94h-2.55l-1.07,1.94h-1.39l3.78-6.84ZM151.63,114.8h1.72l-.44-2.47-1.28,2.47Z"/>
    <path class="st1" d="M160.79,112.69c0,.06-.01.15-.03.3h-1.34c.02-.12.03-.19.03-.23,0-.2-.07-.36-.21-.49-.15-.13-.33-.2-.55-.2-.24,0-.44.07-.6.21-.16.15-.23.32-.23.53,0,.19.06.35.19.48.12.13.39.31.79.55.52.31.88.57,1.09.8.31.35.47.75.47,1.2,0,.62-.23,1.13-.68,1.54-.46.41-1.02.62-1.7.62-.63,0-1.15-.18-1.57-.53-.42-.35-.63-.79-.63-1.33,0-.1.02-.23.05-.37h1.25c-.02.09-.03.18-.03.28,0,.23.09.42.28.57.18.15.42.23.72.23s.55-.08.75-.25c.2-.17.3-.38.3-.63,0-.21-.07-.39-.21-.54-.14-.16-.38-.34-.74-.54-.4-.23-.66-.38-.76-.45-.1-.07-.22-.17-.35-.32-.32-.34-.48-.73-.48-1.17,0-.58.21-1.06.64-1.45.42-.39.95-.58,1.58-.58.58,0,1.06.16,1.43.49.37.33.56.75.56,1.27"/>
    <polygon class="st1" points="161.58 112.19 161.81 111.05 165.71 111.05 165.5 112.19 164.2 112.19 163.11 117.88 161.84 117.88 162.95 112.19 161.58 112.19"/>
    <polygon class="st1" points="165.18 117.88 166.51 111.05 169.98 111.05 169.77 112.19 167.55 112.19 167.25 113.77 169.52 113.77 169.31 114.92 167.03 114.92 166.67 116.74 168.98 116.74 168.76 117.88 165.18 117.88"/>
    <path class="st1" d="M169.86,117.88l1.33-6.84h1.79c.8,0,1.39.13,1.75.39.51.37.77.9.77,1.59,0,.57-.17,1.06-.51,1.49-.23.28-.51.49-.82.62-.25.1-.59.16-1,.19l1.54,2.56h-1.43l-1.58-2.92-.56,2.92h-1.27ZM172.23,112.19l-.4,2.1h.83c.52,0,.9-.09,1.14-.28.29-.23.44-.54.44-.93,0-.6-.4-.89-1.19-.89h-.82Z"/>
    <path class="st1" d="M180.56,112.69c0,.06-.01.15-.03.3h-1.34c.02-.12.03-.19.03-.23,0-.2-.07-.36-.22-.49-.14-.13-.33-.2-.55-.2-.24,0-.44.07-.6.21-.16.15-.24.32-.24.53,0,.19.06.35.19.48.12.13.38.31.79.55.52.31.88.57,1.09.8.31.35.47.75.47,1.2,0,.62-.23,1.13-.68,1.54-.46.41-1.02.62-1.7.62-.63,0-1.15-.18-1.57-.53-.42-.35-.63-.79-.63-1.33,0-.1.02-.23.05-.37h1.25c-.02.09-.03.18-.03.28,0,.23.09.42.28.57.18.15.42.23.72.23s.55-.08.75-.25c.2-.17.3-.38.3-.63,0-.21-.07-.39-.21-.54-.14-.16-.38-.34-.74-.54-.4-.23-.65-.38-.76-.45-.1-.07-.22-.17-.35-.32-.32-.34-.48-.73-.48-1.17,0-.58.21-1.06.63-1.45.42-.39.95-.58,1.58-.58.58,0,1.06.16,1.43.49.37.33.56.75.56,1.27"/>
    <path class="st0" d="M122.43,66.64s-.35-.65-.71-.92c0,0,0,0,0,0l-.33.26s-.32.34,0,.74c.32.41.72.18.72.18l.34-.27h0Z"/>
    <path class="st0" d="M122.44,64.68h0s-.1.21-.1.21c-.17.28-.34.55-.44.72-.01,0-.02,0-.03,0l-.14.11h0c.12.09.24.22.35.36.21.26.35.54.37.56l.14-.11c.2-.06.49-.15.8-.25l.12-.02.06-.02h.05s0,0,0,0c0,0,1.15-.14,1.34-.17l.27-.39-.14-.04.18-.3-.2-.05.18-.37-.4-.06.14-.39h-.33s.09-.34.09-.34h-.33s.08-.33.08-.33l-.41.03.04-.4-.41.09v-.2s-.33.1-.33.1v-.15s-.45.17-.45.17c-.08.18-.5,1.26-.5,1.26M122.57,64.7s.09-.1.15-.17c-.05.11-.09.19-.09.19h0s-.01.02-.01.02c-.02-.01-.04-.02-.06-.03M122.44,64.83h0s.06.03.09.05l-.04.06c-.08.11-.15.21-.22.31-.02-.02-.05-.03-.07-.04.07-.12.15-.25.23-.38M122.85,64.82l-.03.06s-.07-.06-.11-.09h0s0,0,0,0c0,0,.15-.14.34-.32-.12.21-.21.36-.21.36h0ZM122.41,65.37s-.06-.06-.09-.08c.08-.12.18-.24.27-.37.05.03.09.07.13.1-.1.12-.21.24-.31.35M122.76,65.06c.06.05.11.1.15.15-.12.11-.24.22-.35.32-.04-.04-.07-.08-.11-.12.1-.11.2-.24.31-.36M121.92,65.62s0-.01.01-.02c0,0-.01.01-.01.02h0ZM121.94,65.64c.06-.1.13-.22.21-.35.02.01.04.03.06.04-.09.13-.18.24-.24.33-.01-.01-.02-.02-.04-.03M122,65.68s.02-.03.03-.05c-.01.02-.02.03-.03.05M122.02,65.7c.07-.09.15-.21.24-.33.03.02.06.05.09.08-.1.12-.2.23-.27.31-.02-.02-.04-.04-.07-.06M122.11,65.77s.01-.02.02-.02c0,0-.01.02-.02.02M122.22,65.89s.01-.01.02-.02c0,0-.01.01-.02.02h0ZM122.29,65.96l-.04-.04c.08-.08.18-.17.29-.27.03.03.05.06.08.1-.12.09-.22.17-.31.24l-.02-.02ZM122.32,66.01s0,0,0,0c0,0,0,0,0,0M122.4,66.13h0s0,0,0,0c0,0,0,0,0,0M122.39,66.1s-.04-.07-.04-.07h0c.09-.07.19-.15.31-.24.02.03.05.07.07.1-.12.08-.23.15-.33.21M122.48,66.27h0s0,0,.01,0c0,0,0,0-.01,0M122.5,66.29c.1-.05.22-.11.36-.18.02.04.04.08.06.11-.14.06-.27.11-.37.15-.01-.03-.02-.05-.04-.08M123.97,65.68c-.2.13-.37.23-.39.25-.02-.04-.04-.08-.06-.12h.05s0,0,0,0c0,0,.17-.05.4-.12M123.58,65.93h0s0,0,0,0ZM123.43,66.02c-.15.06-.3.12-.43.17-.02-.04-.04-.07-.06-.12.13-.07.27-.14.42-.21.03.05.05.11.07.15M122.91,66.03s-.05-.09-.08-.14c.13-.08.26-.17.4-.26,0,.01.02.03.02.04.03.05.06.1.08.15-.15.07-.29.14-.42.21M122.55,66.4h0s.02,0,.04-.01c-.01,0-.02,0-.04.01M122.58,66.49h0s0,0,.01,0c0,0,0,0-.01,0M122.58,66.47s0-.03-.01-.04c.1-.04.23-.09.37-.15.01.03.03.05.03.07-.15.05-.28.09-.39.12M123.45,66.2c-.14.04-.27.08-.4.12,0-.02-.02-.04-.04-.08.14-.05.28-.11.43-.17.02.04.03.08.04.11l-.04.02ZM123.65,66.09s-.01-.04-.02-.06h0s0,0,0,0c0,0,.08-.01.2-.04-.07.04-.14.07-.18.1M125.04,65.71c.05-.01.1-.03.15-.04h0s0,.01.01.02c-.16.06-.38.13-.48.16-.07.03-.54.17-1.04.33,0-.01,0-.03-.02-.05.4-.13.78-.24.94-.29.19-.04.34-.07.41-.09l.02-.04ZM125.22,65.33h0s0,.01.01.02c-.14.06-.32.14-.43.19l-.06-.02c-.06.03-.2.11-.38.2-.21.08-.48.19-.75.3,0-.01-.01-.03-.02-.05.53-.21,1.03-.41,1.11-.44.11-.04.35-.13.52-.19M124.67,65.16c.11-.05.36-.16.54-.24,0,0,0,0,0,0,0,0,0,.01.01.01-.17.09-.39.21-.49.26-.09.04-.65.32-1.21.6,0-.02-.02-.04-.03-.05.56-.27,1.1-.54,1.18-.58M123.51,65.69l-.04.03s-.05-.09-.07-.14c0-.01-.01-.02-.02-.04h.04s0-.01,0-.01c0,0,.34-.14.68-.29-.3.22-.59.44-.59.44h0ZM124.44,64.77c.1-.06.34-.2.51-.3h0s.01.01.02.02c-.16.11-.36.25-.46.32-.08.06-.6.39-1.13.73,0-.02-.02-.03-.03-.05.52-.33,1.02-.66,1.1-.71M122.75,65.94s.05.09.08.13c-.13.07-.25.13-.36.18-.02-.03-.04-.06-.05-.09.09-.06.21-.13.33-.21M122.79,65.84s-.05-.07-.07-.11c.12-.09.25-.19.38-.29.03.05.06.09.09.14-.14.09-.27.18-.4.26M123.29,65.33h0s.17-.09.39-.2c-.19.18-.33.31-.33.31h0s-.02.02-.02.02c-.02-.04-.05-.08-.08-.12l.04-.02ZM124.24,64.48c.1-.08.31-.24.47-.35h0s0,.01.02.02c-.15.12-.34.28-.43.36-.07.06-.56.44-1.06.82-.01-.02-.02-.03-.03-.05.49-.38.96-.74,1.03-.8M123.14,65.13h0s.18-.11.4-.25c-.18.2-.32.36-.32.36h0s-.03.03-.03.03c0,0-.01-.01-.01-.02-.03-.03-.05-.07-.08-.1l.04-.02ZM123.06,65.39c-.13.1-.26.2-.38.3-.02-.02-.03-.04-.05-.06-.01-.02-.02-.03-.04-.05.11-.1.23-.21.35-.32.04.05.08.09.11.14M122.2,65.87s-.05-.05-.07-.07c.08-.09.17-.2.27-.31.03.03.07.07.1.11-.11.11-.21.2-.3.27M124.47,63.82s0,0,0,0c-.14.14-.33.33-.42.41-.07.06-.51.47-.97.89-.01-.01-.03-.03-.04-.05.46-.43.92-.85.99-.92.09-.08.28-.24.42-.37,0,0,0,.01.01.02M123.06,65.04h0s-.03.04-.03.04c-.05-.05-.1-.1-.14-.14l.04-.03h0s.29-.23.58-.46c-.23.3-.45.59-.45.59M124.11,63.46s0,0,0,0c-.12.15-.29.36-.37.46-.06.07-.45.53-.86,1.01-.02-.01-.03-.03-.05-.04.41-.48.82-.96.88-1.03.08-.09.25-.27.38-.42,0,0,0,.01.01.02M123.7,63.34h0c-.1.15-.25.36-.31.46-.05.07-.37.51-.71.98-.02-.01-.03-.02-.05-.03.17-.24.35-.48.48-.67.13-.14.24-.27.28-.31v-.06c.07-.1.19-.25.28-.37,0,0,0,.01.01.02M123.36,63.29s0,0,0,0c-.02.04-.05.09-.08.14h-.04c-.03.07-.1.21-.18.38-.09.15-.3.49-.53.86-.02,0-.03-.02-.05-.02.28-.46.54-.89.59-.96.06-.09.18-.27.28-.42,0,0,0,0,.01.01"/>
    <path class="st0" d="M117.43,71.46c.03-.09.05-.33-.26-.48-.3-.15-1.46-.18-1.46-.18-.42-.05-.6-.83-.97-1.34-.37-.51-.23-.93-1.2-.93-.28,0-.63.17-.99.4.09-.74-.15-1.71-1-2.99-.03-.05-.06-.09-.07-.11v-.02c-.07-.07-1.41-1.82-3.16-1.82-.4,0-.78.09-1.15.27-.54.26-.89.67-1.03,1.21-.32,1.22.51,2.77.91,3.42l-2.74,1.9c-.07-.1-.18-.16-.34-.16l-.97.57c-.12.01-.29,0-.39-.07-.19-.14-.42-.51-.42-.51l-.28-.23s-.93.88-1.25,1.16c-.32.28-.46,1.25-.6,1.76-.14.51.14.74.18,1.25l-.32,1.3c-.04.56-2.13,3.89-2.55,4.96-.42,1.07-.7,2.27-.88,3.13-.19.85,1.3,1.04,1.3,1.04,2.36.37,7.92-.51,8.52-.88.6-.37,1.95,0,1.95,0,4.82,1.29,3.7,7.18,3.7,7.18-1.05.57-2.64,2.08-3.04,4.99h13.33c-.15-1.24-.3-2.18-.37-2.35-.23-.51-.6-2.22-.6-2.22,0,0,.51-.09,1.02-.32.51-.23-.14-1.53-.37-3.47-.23-1.95,0-5.75,0-5.75l.7.09s2.82,2.22,3.94,2.64c1.11.42,1.71-.14,1.95-.23.23-.09,2.6-1.16,3.2-1.95.6-.79,4.58-2.83,5.47-2.92.88-.09.69-.37.93-.83.23-.46,1.02-1.39,1.02-1.39,0,0,.05-.7-.05-1.25-.09-.56-.28-.19-.51-.6-.23-.42-.6-.79-1.07-.6-.46.19-1.67,1.34-1.85,2.04-.18.69-.51.93-1.02,1.39-.51.46-4.03,1.9-5.09,2.13-1.07.23-2.27,1.44-2.73,1.34-.46-.09-1.11-.46-1.99-2.5-.88-2.04-3.01-2.78-4.03-3.1-1.02-.32-3.38.32-3.38.32l-.37-.05-.09-.32v-.14c0-.14-.05-.23.28-.51.33-.28.88-1.02.88-1.53s.05-1.25-.19-1.43c-.22-.17-.35-.55-.41-.94,0-.03,0-.05,0-.08M106.46,65.55c.12-.44.4-.77.85-.99.32-.16.67-.24,1.01-.24,1.54,0,2.79,1.56,2.88,1.68.02.03.04.06.07.11.84,1.25,1.12,2.29.87,3.09-.53.4-1.06.89-1.47,1.21-.09.01-.18.02-.28.02-1.5,0-2.79-1.33-2.9-1.45-.1-.15-1.4-2.09-1.05-3.43M100.89,79.5c0-.46.97-3.15,1.16-3.89.19-.74.97-.97,1.07-1.34.09-.37.37-.97.32-1.11-.03-.08.01-.55.04-.93l.96-.72s.04-.34-.07-.6l.07.1,2.75-1.89s.04.06.05.07v.02c.07.06,1.34,1.43,2.95,1.55-.58.29-.49,1.43-.49,1.43-1.25-.37-1.95,1.25-1.95,1.25-.79,2.78.74,4.22,1.25,3.99.51-.23,1.02-.93.65-1.58-.37-.65-.46-.83-.51-1.62-.05-.79.46-.28.46-.28.23,1.76,1.2,2.18,1.76,2.18s1.16.09,1.67.19c.51.09-.18.51-.18.51l-.84.09s-.14.74-.37.79c-.23.05-.37.09-.83,0-.46-.09-.65.14-.97.23-.32.09-1.34.32-2.04.42-.69.09-.65.23-.93.28-.28.05-.69.6-1.06.74-.37.14-1.44,1.02-1.67,1.11-.23.09-.97.6-2.32.65-.9.03-1.11.06-1.16.08.03-.14.23-1.27.23-1.7"/>
    <path class="st0" d="M111.41,69.75l.3-.19c.14-.12.29-.24.44-.35,0-.02.01-.05.02-.07l-.27.18-.27-.31.47-.3.13.15s0-.09.01-.13l-.06-.07.06-.04s0-.08,0-.12l-.12.08-.28-.31.34-.22s-.02-.07-.02-.1l-.38.25-.28-.31.47-.3.12.14c-.03-.09-.06-.18-.1-.27h0s-.28-.3-.28-.3l.12-.08s-.03-.06-.04-.09l-.14.09-.27-.31.22-.15s-.03-.05-.05-.08l-.23.16-.27-.31.3-.19s-.03-.04-.04-.06c0,0,0-.01-.01-.02l-.31.2-.28-.31.33-.21s-.04-.05-.07-.07l-.32.21-.28-.31.3-.2s-.05-.04-.07-.07l-.29.19-.27-.31.23-.15s-.05-.04-.08-.06l-.22.14-.28-.31.12-.08s-.06-.04-.09-.05l-.09.06-.16-.18c-.1-.04-.2-.08-.3-.12l-.43.28-.28-.31.14-.09c-.05,0-.11,0-.16,0l-.05.03-.03-.04h0s-.08,0-.12,0l.07.08-.47.3-.24-.26s-.06.03-.1.04l.25.28-.47.3-.28-.31s-.05.04-.08.06l.27.3-.47.3-.15-.16s-.03.07-.04.1l.11.12-.18.11s-.02.09-.03.13l.27-.17.27.31-.47.3-.1-.11c0,.05,0,.1,0,.16h0s0,0,0,0c0,.04,0,.08,0,.11l.06-.04.27.31-.26.17s.01.07.02.1l.3-.2.28.31-.45.29c.04.11.08.21.12.32l.12.13-.05.03s.03.06.04.09l.07-.05.27.31-.17.11s.03.06.05.09l.18-.12.27.31-.26.17s.04.06.05.08l.27-.18.27.31-.3.2s.05.04.07.07l.29-.19.27.31-.25.16s.05.04.08.07l.23-.15.27.31-.15.1s.06.04.09.06l.13-.08.27.31h0c.08.04.16.08.23.11l-.08-.09.47-.3.27.31-.33.21s.08.03.12.04l.28-.18.25.28c.07,0,.15.01.22.01l.42-.27.09.1s.05-.04.07-.06l-.08-.09.47-.31.03.04s.05-.04.08-.06l-.03-.03ZM112.02,68.62l-.47.3-.27-.31.47-.3.27.31ZM109.3,67.37l-.28-.31.47-.3.28.31-.47.3ZM109.83,67.14l.27.31-.47.3-.28-.31.47-.31ZM108.96,66.99l-.28-.31.47-.3.27.31-.47.3ZM108.62,66.61l-.27-.31.47-.31.27.31-.47.3ZM108.53,66.66l-.47.3-.27-.31.47-.3.28.31ZM108.6,66.74l.28.31-.47.31-.27-.31.47-.31ZM108.94,67.12l.27.31-.47.3-.27-.31.47-.31ZM109.28,67.5l.27.31-.47.3-.28-.31.47-.3ZM109.62,67.89l.27.31-.47.31-.27-.31.47-.3ZM109.7,67.83l.47-.3.28.31-.47.3-.28-.31ZM110.51,67.91l.28.31-.47.3-.28-.31.47-.3ZM110.85,68.29l.27.31-.47.31-.28-.31.47-.31ZM110.6,67.85l.47-.3.28.31-.47.3-.27-.31ZM110.53,67.78l-.27-.31.47-.3.27.31-.47.31ZM110.19,67.4l-.27-.31.47-.3.28.31-.47.31ZM109.85,67.02l-.28-.31.47-.31.27.31-.47.31ZM109.51,66.63l-.27-.31.47-.31.28.31-.47.31ZM109.17,66.25l-.27-.31.47-.3.27.31-.47.3ZM108.83,65.87l-.27-.31.47-.3.27.31-.47.3ZM108.74,65.92l-.47.3-.28-.31.47-.3.27.31ZM107.94,65.84l-.28-.31.47-.3.27.31-.47.3ZM107.85,65.9l-.47.3-.27-.31.47-.31.27.31ZM107.92,65.97l.27.31-.47.3-.27-.31.47-.31ZM107.98,67.02l-.47.3-.28-.31.47-.3.28.31ZM108.05,67.1l.28.31-.47.3-.28-.31.47-.3ZM108.39,67.48l.27.31-.47.3-.28-.31.47-.3ZM108.73,67.86l.27.31-.47.3-.28-.31.47-.3ZM109.07,68.25l.27.31-.47.3-.27-.31.47-.3ZM109.41,68.63l.27.31-.47.3-.27-.31.47-.3ZM109.49,68.57l.47-.31.27.31-.47.31-.27-.31ZM110.3,68.65l.28.31-.47.31-.27-.31.47-.3ZM110.64,69.03l.27.31-.47.3-.27-.31.47-.3ZM110.72,68.98l.47-.31.27.31-.47.3-.28-.31ZM111.68,68.24l-.47.3-.27-.31.47-.3.28.31ZM111.89,67.5l-.47.3-.28-.31.47-.3.28.31ZM111.55,67.12l-.47.3-.28-.31.47-.3.28.31ZM111.21,66.73l-.47.31-.28-.31.47-.3.28.31ZM110.87,66.35l-.47.31-.28-.31.47-.31.28.31ZM110.53,65.97l-.47.3-.28-.31.47-.3.28.31ZM110.19,65.59l-.47.3-.28-.31.47-.31.28.31ZM109.84,65.2l-.47.31-.27-.31.47-.31.27.31ZM109.23,64.51l.28.31-.47.3-.28-.31.47-.3ZM108.95,65.18l-.47.31-.27-.31.47-.31.27.31ZM108.34,64.49l.27.31-.47.31-.27-.31.47-.3ZM107.79,64.85l.28.31-.47.3-.28-.31.47-.3ZM106.77,65.51l.47-.3.28.31-.47.3-.27-.31ZM106.56,66.25l.47-.3.28.31-.47.3-.27-.31ZM106.9,66.64l.47-.3.27.31-.47.31-.28-.31ZM106.69,67.38l.47-.31.28.31-.47.3-.28-.31ZM107.03,67.76l.47-.3.27.31-.47.3-.28-.31ZM107.37,68.14l.47-.3.27.31-.47.3-.27-.31ZM107.71,68.53l.47-.31.28.31-.47.3-.27-.31ZM108.05,68.91l.47-.3.27.31-.47.3-.27-.31ZM108.39,69.29l.47-.3.28.31-.47.31-.28-.31ZM109.01,69.98l-.27-.31.47-.31.28.31-.47.3ZM109.28,69.32l.47-.31.27.31-.47.31-.27-.31ZM109.62,69.7l.47-.3.27.31-.47.3-.27-.31ZM110.24,70.39l-.27-.31.47-.31.27.31-.47.3ZM110.79,70.03l-.27-.31.47-.3.27.31-.47.3ZM111.07,69.36l.47-.3.27.31-.47.3-.27-.31Z"/>
    <path class="st1" d="M92.91,132.34l.24-1.22,1.84-1.42c1.71-1.4,2.8-2.4,2.8-3.42,0-.61-.42-1.04-1.17-1.04s-1.37.22-1.82.5l-.38-1.36c.68-.42,1.67-.74,2.66-.74,1.72,0,2.66,1.01,2.66,2.33,0,1.75-1.4,2.96-2.9,4.12l-.85.61v.03h3.07l-.29,1.62h-5.85Z"/>
    <path class="st1" d="M107.06,126.58c0,2.67-1.29,5.91-3.99,5.91-1.79,0-2.49-1.35-2.49-3.08,0-2.7,1.38-5.77,4.01-5.77,1.83,0,2.46,1.41,2.46,2.94M102.45,129.47c0,.64.09,1.51.84,1.51,1.3,0,1.89-3.26,1.89-4.4,0-.58-.09-1.45-.82-1.45-1.26,0-1.92,3.08-1.92,4.33"/>
    <g>
      <path class="st1" d="M107.27,132.49l.23-1.22,1.85-1.43c1.71-1.4,2.82-2.4,2.82-3.44,0-.6-.42-1.04-1.18-1.04s-1.37.23-1.82.51l-.38-1.36c.69-.43,1.68-.74,2.66-.74,1.74,0,2.68,1.01,2.68,2.34,0,1.75-1.41,2.97-2.91,4.13l-.85.61v.03h3.08l-.3,1.62h-5.87Z"/>
      <path class="st1" d="M121.17,125.53h-3.03l-.4,1.33c.14-.02.22-.02.36-.02.56,0,1.25.13,1.78.52.6.41.94,1.11.94,1.91,0,2.15-1.81,3.36-3.97,3.36-1.03,0-1.89-.24-2.23-.51l.49-1.51c.34.2,1.03.42,1.76.42.93,0,1.96-.51,1.96-1.43,0-.76-.48-1.31-2.13-1.31-.41,0-.71.03-1.06.05l1.24-4.44h4.6l-.33,1.63Z"/>
    </g>
  </g>
</svg>