<?xml version="1.0" encoding="UTF-8" standalone="no"?>
<svg
   id="Layer_1"
   version="1.1"
   viewBox="0 0 2036.07 959.99998"
   width="2036.0699"
   height="960"
   xmlns="http://www.w3.org/2000/svg"
   xmlns:svg="http://www.w3.org/2000/svg">
  <!-- Generator: Adobe Illustrator 29.0.1, SVG Export Plug-In . SVG Version: 2.1.0 Build 192)  -->
  <defs
     id="defs4">
    <style
       id="style2">
      .st0 {
        fill: #b08747;
      }
    </style>
  </defs>
  <g
     id="g366"
     transform="translate(0.01033237,-239.825)">
    <polygon
       class="st0"
       points="651.22,907.26 618.37,907.26 611.32,889.25 644.54,889.25 631.36,854.55 627.83,843.6 624.31,854.55 594.61,933.42 571.04,933.42 621.15,807.22 637.3,807.22 686.85,933.42 661.24,933.42 "
       id="polygon6"
       transform="translate(9.8443543e-5)" />
    <rect
       class="st0"
       x="727.68005"
       y="807.22998"
       width="24.5"
       height="126.2"
       id="rect8" />
    <path
       class="st0"
       d="M 873.37,933.43 844.42,892.04 H 830.5 v 41.39 H 806 v -126.2 h 40.46 c 14.85,0 26.17,3.37 33.96,10.11 7.79,6.74 11.69,16.8 11.69,30.16 0,9.77 -2.23,18.28 -6.68,25.52 -4.46,7.24 -10.77,12.47 -18.93,15.68 l 34.34,44.73 z M 830.5,874.78 h 15.96 c 13.86,0 20.79,-8.29 20.79,-24.87 0,-7.55 -1.61,-13.3 -4.83,-17.26 -3.22,-3.96 -8.6,-5.94 -16.14,-5.94 H 830.5 Z"
       id="path10" />
    <polygon
       class="st0"
       points="953.73,807.22 976.93,897.05 977.86,897.05 1000.31,827.27 993.82,807.22 1017.94,807.22 1047.08,897.05 1047.82,897.05 1071.2,807.22 1095.33,807.22 1057.1,933.42 1036.5,933.42 1011.08,855.29 985.47,933.42 965.61,933.42 928.3,807.22 "
       id="polygon12"
       transform="translate(9.8443543e-5)" />
    <polygon
       class="st0"
       points="1194.81,907.26 1161.96,907.26 1154.91,889.25 1188.13,889.25 1174.95,854.55 1171.43,843.6 1167.9,854.55 1138.21,933.42 1114.64,933.42 1164.75,807.22 1180.89,807.22 1230.44,933.42 1204.83,933.42 "
       id="polygon14"
       transform="translate(9.8443543e-5)" />
    <polygon
       class="st0"
       points="1285.75,933.42 1285.75,881.64 1244.55,807.22 1271.64,807.22 1299.12,860.3 1327.32,807.22 1351.63,807.22 1310.25,881.64 1310.25,933.42 "
       id="polygon16"
       transform="translate(9.8443543e-5)" />
    <path
       class="st0"
       d="m 1417.7,936.39 c -13.36,0 -24.07,-2.78 -32.11,-8.35 v -25.61 c 9.65,8.66 20.6,12.99 32.85,12.99 15.22,0 22.83,-5.87 22.83,-17.63 0,-4.57 -1.52,-8.13 -4.55,-10.67 -3.03,-2.53 -8.32,-4.67 -15.87,-6.4 l -4.64,-1.11 c -21.28,-5.2 -31.92,-17.26 -31.92,-36.19 0,-12.37 3.87,-21.99 11.6,-28.86 7.73,-6.87 18.84,-10.3 33.31,-10.3 14.47,0 24.5,2.72 32.29,8.17 v 25.61 c -3.46,-3.21 -8.17,-6.12 -14.1,-8.72 -5.94,-2.6 -12.31,-3.9 -19.12,-3.9 -7.18,0 -12.37,1.24 -15.59,3.71 -3.22,2.47 -4.83,6.31 -4.83,11.5 0,4.7 1.33,8.26 3.99,10.67 2.66,2.41 7.82,4.54 15.5,6.4 l 4.64,1.11 c 11.38,2.72 19.74,6.84 25.05,12.34 5.32,5.51 7.98,13.27 7.98,23.29 0,12.87 -3.96,23.08 -11.88,30.62 -7.92,7.55 -19.74,11.32 -35.45,11.32"
       id="path18" />
    <path
       class="st0"
       d="m 1118.54,672.05 49.3,-52.85 V 514.67 c 0,-0.77 0.97,-1.58 0.97,-1.58 l 7.14,-3.58 v -6.03 h -66.11 v 5.92 l 6.79,4.33 c 1.95,1.18 2.11,1.99 2.11,2.67 v 60.07 H 986.4 l -29.87,37.89 v -97.69 c 0,0 0.18,-1.89 0.18,-1.89 0.06,-0.08 0.51,-0.5 1.57,-1.05 l 6.26,-3.92 0.66,-0.36 v -5.97 h -66 v 5.9 l 6.52,4.24 c 0.96,0.66 1.39,1.02 1.54,1.02 l 0.04,-0.02 0.02,179.56 -0.35,2.32 c -0.27,0.42 -0.77,0.91 -1.24,1.22 l -6.54,4.39 v 5.79 h 66 v -5.86 l -6.89,-4.38 c -1.07,-0.59 -1.56,-0.94 -1.73,-0.94 h -0.04 c 0,0 0,-82.37 0,-82.37 l 7.13,2.18 9.16,-5.26 c 1.65,-1.02 3.11,-1.72 4.15,-1.96 0.55,-0.19 1.64,-0.43 3.7,-0.43 h 137.87 z"
       id="path20" />
    <path
       class="st0"
       d="m 1820.82,583.42 c -7.74,-24.5 -25.48,-44.6 -52.71,-59.75 -24.55,-13.74 -59.37,-20.41 -106.44,-20.41 h -179.69 v 5.83 l 7.76,5.02 0.07,-0.04 -0.03,21.31 h 171.61 c 34.69,0 60.07,4.63 75.46,13.65 24.51,14.31 36.45,32.88 36.51,56.76 0,11.99 -3.21,22.96 -9.54,32.59 -6.27,9.58 -15.88,17.79 -28.58,24.39 -16.62,8.6 -41.95,12.97 -75.28,12.97 h -89.47 V 550.09 h -48.94 l 0.03,144.21 -0.31,2.13 c -0.31,0.39 -0.83,0.9 -1.3,1.33 l -6.03,3.81 -0.53,0.38 v 5.85 h 146.72 c 28.22,0 50.42,-1.6 65.97,-4.75 21.31,-4.45 40.21,-12.2 56.19,-23.01 16.32,-10.96 28,-23.67 34.7,-37.76 4.99,-10.3 7.51,-21.69 7.51,-33.83 0,-8.64 -1.24,-17.06 -3.69,-25.03"
       id="path22" />
    <path
       class="st0"
       d="m 1175.75,700.08 c -1.44,-0.23 -2.25,-0.53 -2.7,-0.78 l 123.16,-128.09 -28.47,-30.34 -159.37,166.53 h 73.36 v -7.01 h -2.56 c -1.23,0 -2.36,-0.17 -3.41,-0.32"
       id="path24" />
    <path
       class="st0"
       d="m 1280.97,532.95 31.47,33.41 32.54,32.75 h -54.96 l -30.13,31.55 6.52,4.46 7.11,-3.84 c 0.68,-0.29 1.38,-0.57 1.99,-0.62 0.46,-0.08 2.29,-0.1 5.15,-0.1 h 94 c 0,0 64.85,69.33 64.85,69.33 0,0 -0.99,1.2 -6.62,1.2 h -2.52 v 7.03 h 73.34 l -194.39,-204.83 -28.33,29.68 z"
       id="path26" />
    <path
       class="st0"
       d="m 809.78,509.4 6.56,4.24 c 1.52,1.03 2.29,1.98 2.29,2.83 l 0.05,177.53 -0.47,2.28 c -0.6,0.53 -1.28,1.12 -1.77,1.43 l -6.67,4.3 v 5.95 h 65.49 v -5.89 l -6.05,-4.27 c -0.84,-0.58 -1.32,-0.96 -1.51,-0.96 l -0.07,0.03 -0.03,-180.16 0.17,-1.92 1.49,-1.38 5.99,-4.02 v -5.94 h -65.49 v 5.92 z"
       id="path28" />
    <path
       class="st0"
       d="m 535.14,668.64 -8.61,4.94 c -2.3,1.42 -3.58,1.86 -3.83,1.97 l -146.63,0.39 c -33.49,0 -58.96,-4.35 -75.7,-12.9 -25.25,-13.12 -37.55,-31.82 -37.6,-57.16 0,-11.4 3.29,-22.22 9.75,-32.13 12.66,-18.64 30.87,-31.31 56.98,-36.15 6.91,-1.24 13.57,-1.54 17.96,-1.54 h 75.53 c 4.51,-0.2 3.82,0.89 3.96,1.37 l -0.83,5.29 h 6.26 l 32.34,-39.08 h -90.2 c -20.86,0 -37.14,0.68 -48.41,2.02 -5.97,0.75 -11.59,1.74 -17.16,3.04 -14.75,3.36 -29.15,8.98 -42.81,16.7 -22.06,12.51 -37.86,28.42 -46.97,47.29 -5.11,10.77 -7.67,22.77 -7.62,35.67 -0.05,32.97 17.7,59.29 52.76,78.21 15.8,8.68 33.59,14.69 52.87,17.86 14.42,2.35 34.26,3.55 58.97,3.55 h 136.38 l 32.5,-39.49 h -2.66 l -7.25,0.16 z"
       id="path30" />
    <path
       class="st0"
       d="M 470.07,619.48 501.83,579.8 H 288.05 l -21.52,32.11 h 192.72 c 3.62,0.39 4.87,1.28 5,1.88 l -0.79,5.69 z"
       id="path32" />
    <path
       class="st0"
       d="m 456.84,540.87 6.08,2.13 0.86,0.22 9.29,-4.68 c 2.55,-1.71 5.11,-2.54 7.81,-2.54 h 118.11 l 0.04,158.28 -0.52,2.21 c -0.5,0.61 -1.06,1 -1.44,1.17 l -6.74,4.46 v 5.86 h 65.98 v -5.95 l -6.86,-4.17 -1.64,-1.52 c -0.03,-0.37 -0.09,-0.97 -0.05,-1.71 V 536 h 104.77 c 4.02,0.47 4.54,1.4 4.52,1.5 v 5.59 h 5.89 l 32.5,-39.6 H 486.65 l -29.82,37.39 z"
       id="path34" />
  </g>
</svg>
