<?xml version="1.0" encoding="utf-8"?>
<!-- Generator: Adobe Illustrator 28.1.0, SVG Export Plug-In . SVG Version: 6.00 Build 0)  -->
<svg version="1.1" id="Layer_1" xmlns="http://www.w3.org/2000/svg" xmlns:xlink="http://www.w3.org/1999/xlink" x="0px" y="0px"
	 viewBox="0 0 200 200" style="enable-background:new 0 0 200 200;" xml:space="preserve">
<style type="text/css">
	.st0{fill:#FFFFFF;}
	.st1{fill-rule:evenodd;clip-rule:evenodd;fill:#F2A555;}
	.st2{fill-rule:evenodd;clip-rule:evenodd;fill:#FFFFFF;stroke:#FFFFFF;stroke-width:0.9239;}
	.st3{clip-path:url(#SVGID_00000045612055723125402030000012768046209162029974_);}
	.st4{fill:#313490;}
	.st5{fill:#00A24E;stroke:#FFFFFF;stroke-width:0.9447;}
</style>
<rect class="st0" width="200" height="200"/>
<g>
	<g>
		<g>
			<g>
				<g>
					<path class="st1" d="M100,21.27c43.39,0,78.76,35.42,78.76,78.71c0,43.39-35.37,78.76-78.76,78.76
						c-43.34,0-78.76-35.37-78.76-78.76C21.24,56.68,56.66,21.27,100,21.27z"/>
					<path class="st2" d="M100,44.09c30.84,0,55.98,25.09,55.98,55.88c0,30.84-25.14,55.98-55.98,55.98
						c-30.8,0-55.93-25.14-55.93-55.98C44.07,69.18,69.2,44.09,100,44.09z"/>
					<g>
						<defs>
							<path id="SVGID_1_" d="M100,44.09c30.84,0,55.98,25.09,55.98,55.88c0,30.84-25.14,55.98-55.98,55.98
								c-30.8,0-55.93-25.14-55.93-55.98C44.07,69.18,69.2,44.09,100,44.09z"/>
						</defs>
						<clipPath id="SVGID_00000108285596996412722490000013813223557728120488_">
							<use xlink:href="#SVGID_1_"  style="overflow:visible;"/>
						</clipPath>
						<g style="clip-path:url(#SVGID_00000108285596996412722490000013813223557728120488_);">
							<g>
								<path class="st4" d="M96.68,66.39c0.09,0-2.16-1.72-4.64-2.02c0.18,0-2.51-1.54-5.16-1.48c0,0-0.52-3.53-3.97-3.27
									c0.26-0.09-1.94,0.22-2.31-0.48c0.09-0.09-1.26-0.94-2.92-0.2c0.26-0.18-1.78-0.31-1.55,1.72
									c-0.01-0.18,0.56,1.58-0.48,2.49c0.18,0-0.49,1.87,0.15,2.47c0.17-0.09,1.66-1.19,1.6,0.49c0.09,0,1.72,1.82,3.14,1.88
									c0.18,0.09,0.34-0.72-0.91-1.04c0.09,0.09-2.52-1.89,1.73-1.81c0,0,1.69,0.4,2.06,1.28c0.09,0,0.56,1.32,1.67-0.57
									c0,0.09,0.24-0.98,1.22-0.91c0-0.18,2.13,0.13,3.01,0.11c0-0.09,3.29,0.81,0.56,1.14c0.18-0.09-1.59-0.14-2.05-0.66
									c0,0-1.69-0.14-1.84,1.01c-0.08,0.18,0.4,2.2,2.16,1.63c-0.09-0.09,2.56-0.23,1.25,0.5c0-0.09-1.83,1.19,0.75,1.84
									c-0.09,0,1.34,0.85,0.92,1.57c0.09,0.09,1.3,2.71,3.19,0.28c0-0.09,0.1-3.63,1.91-1.64c-0.09-0.09,1.43,0.68,1.43,0.68
									S99.99,68,96.68,66.39"/>
								<path class="st4" d="M44.03,86.65c0.16-0.03,0.32-0.06,0.5-0.07c0,0,0.98-2.21,0-1.86c-0.95-0.47-2.06-1.29-2.06-1.29
									s-3.62-3.72-3.43-3.29c-0.73-0.87-3.85-1.95-4.02-1.86c-2.77-1.18-5.79,2.08-5.53,2.25c-2.86,2.9-3.4,6.36-3.4,6.36
									s0.88-0.46,1.04-0.82c0.17-0.36,0.94-1.61,1.37-2.07c0.43-0.45,1.14-0.64,1.23-0.38c0.09,0.26,0.63,0.6,1.01,1.83
									c0.38,1.23,1.27,1.48,1.54,1.47c0.27-0.01,0.05,2.21-0.13,2.13c0.94,2.37,2.68,1.18,2.14,0.75c-0.54-0.43-0.7-3.52-0.35-3.8
									c0.35-0.27,0.49-1.87,1.27-2.59c0.78-0.72,1.78,0.32,1.79,1.02c0.02,0.71-0.51,0.81-1.47,1.45
									c-0.96,0.64-0.86,0.9-0.14,1.51c0.72,0.6,0.96-0.55,1.93-0.84c0.97-0.29,1.58-0.39,3.2,0.73
									C41.79,88.15,42.52,86.97,44.03,86.65"/>
								<path class="st4" d="M44.01,69.77c-0.36,0.68-1.11,1.16-1.37,1.27c-0.44,0.19-2.89,1.39-2.88,1.57
									c-1.04,1.17-2.56,4.21-2.47,4.39c-1.12,1.35,0.91,1.13,0.91,1.13s2.37-0.85,2.81-0.86c0.44-0.01,0.55,0.7,0.64,0.96
									c0.09,0.26,0.89,0.33,1.86,0.31c0.97-0.02,0.27,0.08,1.17,0.95c0.9,0.86,1.63,1.55,1.63,1.55c1.55,1.91,0.58,2.2,0.31,2.21
									c-0.26,0-1.14,0.47-1.05,0.38c0.8,0.12,0.12,1.33,0.03,1.42c-0.36,0.94-0.52,1.54-0.52,1.54c0.12,0.01,0.25,0.03,0.38,0.05
									c2.58,0.47,3-0.38,3.35-0.43c0.75-0.11,1.12,0.37,1.12,0.51c0,0.13,1.41-0.3,2.08,0.04c0.67,0.34,2.32-0.98,1.65-1.27
									c-0.67-0.29,0.62-1.74,1.02-1.92c0.4-0.19,2.91-2.32,3.05-2.33c0.13,0,0.82-0.77,0.77-1.17c-0.05-0.4-1.28,0.03-1.28,0.03
									c-1.12,0.03-2.03,0.13-1.99,0.13c-2.2,0.67-2.76-0.91-2.58-0.83c-0.22-1.85-3.25-3.02-3.43-3.29c0,0-0.93-1.31-1.04-2.16
									c-0.11-0.85-0.82-2.22-1.33-2.8C46.33,70.57,45.02,67.82,44.01,69.77z"/>
								<path class="st4" d="M49.33,74.95c0.27-0.22,0.69-0.13,0.64-0.18c1.86,0.05,3.13,1.43,3.04,1.35
									c2.72,3.21,2.51,1.63,2.42,1.54c0.23-1.77-1.15-3.96-1.33-3.95c-0.82-1.22-1.64-2-1.46-2c0.74-2.32,2.4,0.48,2.4,0.57
									c1.44,1.3,2.58,4.45,2.49,4.55c1.74-1.54-0.72-4.67-0.63-4.76c1.31-0.56,0.93-1.7,0.57-1.96c-3.06-2.23,2.7-2.18,2.79-2.1
									c2.81-0.77,3.12,1.17,3.21,1.26c2.73,3.57-2.89,1.39-1.84,0.84c-1.97-1.2-0.57,2.31-0.57,2.31s2.31,4.55,2.22,4.55
									c2.95,5.24,2.51,1.63,2.43,1.72c0.65-2.76,2.6,1.36,2.6,1.36s2.03,3.58,1.94,3.76c4.63,5.03,1.86-0.13,1.86-0.13
									s-2.4-4.72-2.5-4.99c-2.14-4.64,0.81-7.45,0.63-7.36c2.06-2.7,1.5-0.39,1.33-0.12c-0.17,0.27-1.38,1.71-1.54,2.16
									c-0.17,0.44,1.18,1.3,1.09,1.21c0.26,3.98,3,7.54,3.17,7.45c3.19,4.18,1.43,0.59,1.61,0.67c-2.62-2.6-2.39-7.91-2.21-7.74
									c2.28-0.85,1.8-2.6,1.71-2.51c-0.14-2.56,3.31-2.2,3.31-2.2s3.53-0.43,3.98-0.18c0.45,0.26,2.18-1.46,2.18-1.46
									s-0.82-0.95-0.91-0.95c-0.99-0.86-1.51-0.23-1.42-0.23c-0.6,0.72-1.73,1.63-1.65,1.36c-0.71,0.02-2.48-0.21-2.39-0.21
									c-1.57,0.83-2.76-0.91-2.94-0.91c0.5-1.16-2.24-1.45-2.24-1.45s1.74-1.28,1.74-1.37c-1.59,0.04-3.29-0.64-3.28-0.55
									c-0.29-1.06-1.12-2.81-1.22-2.98c-0.14-2.21,0.7-0.46,0.79-0.37c0.46,0.96,1.27,1.3,1.36,1.47c1.36,1.3,1.13-0.73,1.23-0.56
									c-0.54-0.61,1.11-1.7,0.85-1.7c0.96-0.73-0.94-2.63-0.94-2.37c-0.13-1.94-2.74,0.15-2.74,0.15c-2.05-0.49-3.5,1.76-3.4,2.02
									c-0.4,1.96-1.74,1.37-1.74,1.37l-0.82-1.22c0,0-0.79,0.19-1.05,0.38c-0.26,0.18-1.65,1.36-1.65,1.28
									c-1.22,1-0.68,1.34-0.68,1.34s2.15,1.28,1.97,1.2c0.82,1.31,2.05,0.49,1.87,0.4c0.34-0.45,1.15,0.06,1.25,0.41
									c0.1,0.35,1.17,1.04,1.17,1.04s1.78,0.58,1.78,0.67c1.79,1.02,0.2,1.15,0.11,1.15c-1.77-0.05-2.1,1.11-2.1,1.11
									c-1.81,2.25-0.83-1.66-0.66-1.84c0.67-1.61-1.35-0.86-1.7-0.67c-0.35,0.18-3.14-2.14-3.05-2.06
									c-1.42-0.14-2.35-2.43-2.28-3.04c0.07-0.62-0.21-1.59-0.47-1.23c-0.26,0.36-4.75,1.26-4.3,1.42
									c-5.82,0.93-6.82,3.69-6.91,3.78c0.51,3-2.06,3.05-2.06,2.88c0,0-1.02,0.08-0.8,0.64c0.03,0.06,2.48,1.45,2.98,4.18
									c-0.03-0.03-0.07,1.95,0.75,1.9"/>
								<path class="st4" d="M58.95,81.61c-0.47,0.69-1.48,1.09-1.48,1.09s-1.26,0.96-1.48,1.27c-0.21,0.31-0.35,0.36-0.91,0.99
									c-0.56,0.63-0.08,0.44,0.11,0.93c0.19,0.48-0.25,1.51-0.91,1.7c-0.66,0.19-1.71,0.48-1.71,0.48c5.24,0.95,8.29,3,8.84,3.61
									c0.54,0.61,2.25,1.63,1.65,2.53c-0.6,0.9,0.05,2.21-0.04,2.3c2.92,3.92,2.8,6.48,2.83,7.81c0.03,1.33,1,1.22,1.26,0.86
									c0.26-0.36,1.96-3.4,2.84-3.42c0.88-0.02,2.63-1.12,2.6-2.18c-0.02-1.06-1.95-4.38-0.36-4.51c0,0,0.31-0.01-0.02-0.8
									c-0.04-0.04-0.67-4.32-0.35-5.7c0.63-1.65-0.07-1.28-0.07-1.28c-1.39,1.18-1.77,0.04-1.77,0.13
									c-0.38-1.23-1.26-0.95-1.08-0.95c-1.14,0.64-1.25-0.33-1.24-0.24c0,0,0,0,0,0c0.47-2.43-2.38-0.47-3.45-0.51
									c0.5-0.89,2.18-3.22,1.38-4.21c-0.58-0.72-1.59-0.03-2.27-0.4c-0.74-0.4-0.69-1.69-0.73-2.42
									c-0.04-0.09-0.33-1.01-0.85-2.46c-0.52-1.45-1.07-2.32-1.21-2.67c-0.14-0.35-0.41-2.42-0.55-2.69
									c-0.14-0.26-0.28-0.83,0.06-1.33c0-0.18,0.06-1.11-0.97,0.2c-0.04,0.13-0.69,0.94-0.03,2.52c0,0.18,0.52,1.4,0.46,2.6
									c0.04-0.04-0.42,1.11-0.59,1.38c-0.17,0.27-0.46,1.12-1.21,1.4c-0.04,0.04-0.57,0.32,0.06,0.57c0.05,0.13,0.12,1.5,1.92,0.8
									C59.76,78.93,61.53,77.79,58.95,81.61z"/>
								<path class="st4" d="M73.07,94.75c1.14-0.74,1.96-2.5,2.23-2.93c0.34-0.54,0.6-0.9,2.02-0.75c1.42,0.15,1.16,0.24,2.4,0.66
									c1.25,0.41,0.9,0.78,1.1,1.83c0.2,1.06,1.7,0.76,4.03,2.39c2.34,1.63,1.52,0.59,2.5,0.83c0.98,0.24,3.52-1.05,4.05-1.06
									c0.53-0.01,2.27-1.55,3.02-3.25c0.76-1.7-0.82-5.03-1.18-5.37c-0.36-0.35-0.58-2.2-0.84-1.93
									c-0.26,0.27-0.57,2.31-0.21,2.39c-0.08,4.25-2.48,3.68-2.47,4.21c-1.36-1.39-1.85,0.31-1.85,0.48
									c-0.7,0.55-3.1-0.2-3.19-0.28c-0.74-1.4-3.5-2.22-3.5-2.4c-1.7-0.67-4.47-2.02-4.65-2.2c-1.02-0.86-2.84-0.49-3.92-0.22
									c0,0-0.16-0.07-0.26,0.7c-0.09-0.03-0.4,7.06,0.65,6.89"/>
								<path class="st4" d="M79.52,86.5c0,0-1.72-1.64-1.45-1.74c0.01,0.26-1.38-2.36-1.93-3.23c0.09,0.17-2.18-2.87-0.91-5.2
									c-0.36-0.35,1.7-3.31,1.65-1.54c-0.09,0,0.7,3.44,1.08,0.68c-0.18-0.08,0.5-1.16,1.02-1.62c0.52-0.45,1.81-2.16,2.18-1.55
									c0,0,1.35,1.12,2.12-0.13c0,0,2.67-3.24,4.1-2.75c-0.53-0.08-1.27,2.86-1.43,3.22c-0.17,0.36-2.49,3.33-3.11,3.43
									c-0.62,0.1-1.98,2.34-1.86,3.85c0-0.09,1.02,2.1-1.1,2.15c0.08-0.09-1.93,0.57,1.35,0.94c0,0,0.62-0.19-0.28,1.33
									c-0.09,0-1.51-0.19-1.23,0.43c0,0.04,0.14,0.48,0.24,0.97C80.05,86.22,79.75,86.89,79.52,86.5z"/>
								<path class="st4" d="M83.2,80.27c-0.01,0.01-0.01,0.03-0.02,0.04c-0.29,1.16-0.78,1.83-1.2,2.22c0,0-0.46,0.92,0.33,0.63
									c0.13,0,0.63,0.3,0.16,1.19c-0.47,0.9-0.71-0.29-0.76-0.43c-0.05-0.13-0.69,0.86-0.82,1.04c-0.13,0.18-0.79,0.15-0.6,0.85
									c-0.04,0.04-0.47,1.5,0.65,1.46c2.48,0.99,3.08-0.9,3.09-0.53c0.06-1.06,1.71-2.51,1.62-2.6c1.64-1.89,0.47,1.23,0.56,1.14
									c-0.51,0.9,0.74,1.49,0.74,1.58c1.23-0.29,1.69,0.49,1.78,0.58c0.01,0.44,0.55,1.05,0.64,0.96
									c2.19-0.76,2.02-4.82,2.11-4.74c1.59-0.21,3.65-2.91,3.74-3c0.95-0.91,1.04-4.89,1.04-4.89c1.59-3.84-0.65-1.4-1.17-1.04
									c-0.52,0.37-1.11,1.97-1.11,1.88c0.03,1.15-1.35,3.04-1.35,3.22c-1.02,1.88-0.98-0.33-0.98-0.6
									c-0.01-0.27-0.04-1.68-0.06-2.65c-0.02-0.97-0.56-1.4-1.18-1.57c-0.62-0.16-0.89-0.07-1.97-0.93
									c-1.08-0.86-2.39-0.04-2.99,0.86c-0.6,0.9-0.63,0.81-0.75,2.23l0.19,3.84c0,0-0.46,1.07-0.67-0.29
									c0-0.09-0.76-2.59-0.76-2.59S83.59,79.56,83.2,80.27z"/>
								<path class="st4" d="M46.74,88.38c-0.53-0.07-1.24,0.03-3.01,0.15c-1.77,0.13-2.56,0.23-2.92-0.02
									c-0.36-0.26-2.24-1.19-5.11,1c0,0-3.15,1.84-3.05,6c-0.17,0.18,0.69-0.63,1.98-2.26c0-0.09,1.36-2.77,3.85-1.94
									c-0.36-0.26,4.41-0.63,1.87,0.58c-0.17,0.18-3.95,1.59-5.47,4.81c-0.18,0-2.24,2.79-1.67,8.62
									c-0.17,0.18,0.66,1.75,1.55-1.8c-0.37-0.44-0.51-3.17,1.94-4.38c0,0,2.79-1.65,3.13-2.37c0.34-0.72,2.95-2.63,2.28-0.94
									c0,0.18-2.09,1.64-2.43,2c-0.35,0.36-1.04,1-1.02,1.79c0.02,0.79,0.55,0.78,1.41-0.21c0.86-0.99,0.16-0.62,2.54-1.38
									c2.37-0.76,4.4-1.16,5.92-0.22c0.09,0,2.25,1.63,3.54-0.08c-0.27-0.17,2.52-1.83,4.35,0.7c0-0.09,3.39,1.34,4.01,1.15
									c0.61-0.19,1.06,0.06,1.13-0.73c0.07-0.8,0.3-2.22-0.41-2.73c-0.72-0.52-1-1.13-1.1-1.75c-0.1-0.62-1.14-3.6-3-3.56
									c-0.09,0-3.83-1.15-3.83-1.15s-1.59,0.17,0.88,1.71c0.23,0.17,3.62,1.42,3.68,2.57c0,0.04,1.55,2.09,1.78,2.39
									c0,0.13-0.53,0.28-1.8-1.38c0.05,0.09-0.79-1.53-1.41-1.87c-0.63-0.34-0.72-0.38-2.24-1.06c-1.52-0.67-1.39-0.9-2.21-1.81
									c-0.82-0.91-0.92-1.35-1.94-1.73c-1.03-0.38-0.56,0.77,0.08,1.46c0.63,0.69,1.4,1.12,1.94,1.82
									c0.54,0.7,2.74,2.15,2.74,2.15s1.89,1.42-1.58,0.61c0.09-0.05-1.57-0.98-2.87-1.84c-1.3-0.86-2.44-2.16-2.23-2.69
									C48.27,89.45,48.87,88.64,46.74,88.38z"/>
								<path class="st4" d="M36.14,105.25c0.4-0.35,2.54-1.38,2.71-1.74c0.17-0.36,0.31-1.95,0.75-2.05
									c0.44-0.1,1.21-1.44,1.99-1.99c0,0.09,0.85-1.52,4.05-1.06c-0.09,0.09,2.58,0.47,4.53,0.96c-0.09,0,2.92,0.2,3.45-0.17
									c0-0.09,2.21-0.31,3.2,0.73c-0.09,0,4.19,1.32,4.19,1.32s2.94,0.91,1.31,3.25c0.18-0.09-1.67,0.48-2.35,1.82
									c0.08-0.18-0.78,0.9-4.49,0.9c0,0-3.1-0.02-5.72,1.45c-0.09,0.09-2.34,2.18-2.61,2.18c-0.26,0.01-1.48,5.25-2.69,6.43
									c-0.17,0.09-0.42,5.05,0.05,6.37c0.09,0,0.75,2.11,1.82,2.26c-0.18-0.08,3.61,2.93,3.17,7.36c0.01,0.18-1.22,1-1.9-1.82
									c0.08-0.18-0.83-1.4-1.28-1.74c-0.45-0.34-1.61-0.67-1.53-1.21c0.08-0.53-2.62-2.33-2.46-3.22c0.16-0.89-1.32-3.86-2.89-2.5
									c0.08-0.18-0.4,1.78,1.29,2.27c-0.08,0.18,1.37,1.83-0.94,1.35c0.09,0.09-3.13-1.52-2.9-7.1c-0.09,0-2.49-4.55,0.12-6.55
									c-0.09,0,0.57-2.23,2.33-2.8c0.17-0.18,2.32-3.24,0.21-2.57c-0.09,0-3.88,0.7-4.33,4.34c0.09,0.18-0.6,4.97-1.8,2.43
									c0,0.18-0.63-4.41,0.57-6.12C33.81,107.95,35.1,106.15,36.14,105.25z"/>
								<path class="st4" d="M39.32,131.14c0.18,0.04,0.29,0.25,0.46,0.39c1.17,0.95,2.06,1.32,2.3,1.89
									c0.23,0.57,0.73,3.17,0.87,3.57c0.14,0.39,0.29,3.04,0.08,3.58c-0.21,0.54-0.25,0.94-0.18,1.99c0.07,1.06,1.4,3.38,1.45,3.6
									c0.05,0.22,1.09,1.44,1.5,2.04c0.41,0.61,0.97,1.84,1.65,2.62c0.68,0.78-0.33,1.25-0.55,1.25c-0.22,0-1.22-1.08-1.04-1.04
									c-1.06-0.07-0.21,2.44-0.26,2.35c0.55,0.87,0.3,1.81,0.3,1.81s-1.31,0.82-1.92,1.19c-0.61,0.37-0.15,1.33,0.04,1.59
									c0.18,0.26,0.56,1.49-0.5,1.6c-1.06,0.11-1.14,0.64-2.37,0.76c-1.24,0.12-0.29-1.14,1.28-2.15
									c1.57-1.01-0.99-0.95-1.26-0.95c-0.26,0.01-0.97,0.11-1.3,1c-0.33,0.89-0.41,1.51-0.05,1.86c0.36,0.35,0.33,2.65,1.05,3.43
									c0.73,0.78,2.29-0.49,4.14-0.71c1.85-0.22,1.29-1.53,2.02-0.58c0.73,0.96,1.66-0.83,1.66-1.1
									c-0.01-0.27,0.47-2.93,0.73-3.02c0.29,1.23,2.41,5.17,2.42,5.43c-0.04,2.39-2.95,2.81-4,3.1c-1.05,0.29-2.43-1.89-3.22-1.34
									c-0.79,0.55-4.67,0.9-4.85,0.81c-3.43,1.14-5.2-3.25-5.38-3.33c-0.62-8.04,8.07-7.26,7.99-6.64
									c2.88-1.83-2.49-12.33-2.56-11.89c-0.57-1.76-3.49-5.85-3.58-5.85c0.24-0.84-0.63-2.29-1.32-3.33c0,0-0.44,0.04,0.86-0.14
									c1.3-0.18,1.37-0.89,1.27-1.3c-0.1-0.41-0.02-0.68,0.39-0.81c0.41-0.13,1.49,0.56,1.26,0.95c-0.23,0.39-1.82,1.81-1.83,2.64
									c-0.01,0.83,0.42,1.7,0.73,2.37c0.31,0.67,1.57,1.82,1.91,2.43c0.34,0.61,1.55,2.15,1.55,2.15s0.33,1.61,0.4,2.06
									c0.07,0.44,1.41,3.92,1.54,4.33c0.13,0.41,0.85-0.37,0.59-1.22c-0.26-0.85-1.32-2.39-1.39-2.59
									c-0.06-0.21-0.16-3.36-0.17-3.51c0-0.15,0.35-1.42,0.26-2.72c-0.09-1.3-1-1.07-0.9,1.91c-0.24-0.41-0.41,0.01-0.78-0.51
									c-0.37-0.52-1.06-2.43-1.18-2.6c-0.12-0.18-0.58,0.42-0.98-0.39c-0.4-0.82-0.79-1.07-0.53-1.46
									c0.26-0.39-0.64-1.08,0.32-1.6c0.96-0.52,1.92,0.08,2.09-0.46C40.53,134.08,37.34,130.73,39.32,131.14z"/>
								<path class="st4" d="M38.26,129.96c0.09-0.96-0.83-2.11-1.15-2.97c-0.33-0.88-1.41-1.74-1.82-2.26
									c-0.41-0.52-0.91-3.12-0.97-4.05c-0.06-0.93-0.29-1.32-0.04-1.99c0.25-0.67,1.15-3.87-1.57-2.93
									c-0.05-0.18-1.74-0.49-2.13-2.12c-0.39-1.63-0.75-1.71-0.36-2.2c0.39-0.49,0.16-0.8,0.45-1.56c0.29-0.76,0.85-1.66,0.51-2.8
									c-0.33-1.14-0.75-1.88-0.5-2.69c0.25-0.8,0.51-1.07,0.68-1.48c0.17-0.4-0.07-3.14,0.14-3.59c0.21-0.45,0.41,0.43,0.42-0.94
									c0.01-1.37-0.85-2.32-0.78-3.52c0.06-1.2-0.07-1.37-0.32-2.51c-0.25-1.14-0.38-1.05-0.3-1.67c0.07-0.62-0.83-1.66-0.83-1.66
									s-0.47-1.41,0.13-2.13c-0.09,0.09,0.13-2.13-1.07-0.6c-0.09,0-1.39,1-0.48,2.49c0,0.09,0.24,2.91-0.94,1.35
									c0,0.09-0.91-1.13-1.67,0.3c-0.18-0.17-1.48,1.18-0.83,2.41c-0.09,0,0.41,2.56,1.31,3.07c-0.09,0.09,3.5,2.31,2.93,4.36
									c0.01,0.26,0.84,1.84-0.35,4.17c0.09,0.17-0.8,3.82-1.47,1.27c-0.09-0.09-1.66-2.97-1.5-3.86c0.09,0,0.69-0.9-1.12-2.45
									c-0.09,0,0.03-2.48,0.01-3.36c0-0.09-0.47-1.41-1.07-0.24c-0.09-0.09-0.38,3.02-0.42,4.88c0-0.09-1.02,5.77-0.61,8.42
									c-0.09,0,0.71,4.05,3.92,5.13c0,0,0.29,1.05,0.65,1.49c0,0,1.54,1.74-0.24,1.33c0.27,0.17-1.07-0.24-1.34-0.59
									c-0.27-0.35-0.58-2.2-2.43-1.89c0.09,0.09,1.74,2.53,2.19,3.14c0.18,0,4.55,9.54,5.22,11.83c-0.09,0,2.21,3.75,3.72,4.34
									c0,0,0.95,0.95-0.29-2.87c-0.04-0.04-2.11-3.23-2.25-3.67c-0.14-0.44-1.78-2.35-1.82-4.2c-0.04-1.86,1.24-3.75,0.04-6.06
									c-1.2-2.32-1.79-2.88-1.98-3.63c-0.19-0.75-2.86-1.4-2.84-2.19c0.03-0.8-0.13-1.72-0.01-2.3c0.12-0.58,0.72-1.3,0.72-1.48
									c0-0.18-0.31,3.72,1.05,3.69c0.09,0,1.75-5.04,3.56,4.88c-0.09,0.13,0.75,3.88,0.58,4.19c-0.17,0.31,0.45,2.43,0.88-2.01
									c0.05,0.09-0.02-0.8,0.68-1.17c0.7-0.37,0.94,0.51,0.82,1c-0.12,0.49-0.56,0.76-0.57,2.31c-0.01,1.55-1.64,1.85-1.77,1.94
									c-0.13,0.09-0.18,1.95-0.08,2.22c0.09,0.26,1.11,2.23,1.52,2.44c0.4,0.21,1.73,2.48,1.73,2.48s0.89,2.28,0.94,2.59
									c0.05,0.31,0.73,2.86,0.66-2.05c0.04-0.09-0.11-1.19-1.21-2.67c-0.22-0.13-1.43-2.44,1.11-0.02
									c0.09,0.13,0.82,1.13,0.87,1.31c0.05,0.18,0.15,0.7,0.29,1.23c0.13,0.48-0.25,1.52,0.1,1.9c0.47,0.52,1.23-1.38,1.28-1.65
									C38.25,130.04,38.26,130,38.26,129.96z"/>
								<path class="st4" d="M49.6,135.47c0,0-2.33-1.23-1.71,0.79c-0.04,0.05,1.65,2.66,1.88,2.74c0.22,0.08,0.82,1.04,0.82,1.04
									l0.5,4.59c0,0-1.63,0.39-0.65,2.85c-0.13-0.04-1.1,2.37-0.55,3.07c-0.04-0.04-0.13,4.12,2.48,5.92
									c0.05,0.04,2.12,1.86,5.53,2.04c0,0,3.72,0.36,4.59-0.63c-0.05-0.22,1.2-1.75,3-2.32c-0.05-0.18,1.17-1.04,2.63-0.94
									c1.46,0.1,2.18,0.61,2.75,0.34c0.57-0.28,1.01-0.11,1.72-0.21c0.71-0.1,2.34-0.1,2.34-0.1s1.77-0.04,1.9-0.22
									c0.13-0.18,0.96-0.51,0.57-1.96c0.09-0.09,0.82-0.86,1.53-0.87c0.71-0.02,2.08,0.13,2.65-0.15
									c0.57-0.28,2.09-1.51-0.17-1.95c0.13-0.05-0.74,0.46-2.35-0.12c-1.61-0.58-1.64-0.14-2.85-0.82
									c-1.21-0.68-3.13-1.66-3.93-1.95c-0.8-0.29-3.16-0.82-3.16-0.82s-2.16-3.84-2.43-5.65c0.18-0.05,0.83-4.27-0.16-5.08
									c-0.09,0-1.95-0.27-2.47,2.58c-0.04,0.05-0.1,1.55,0.31,4.15c-0.05-0.04,0.21,3.58-1.81,4.06c-0.04,0-2.25,0.45-1.87-0.71
									c0.09-0.04,0.02-3.01,0.58-3.95c-0.04,0,1.51-1.76,0.72-3.51c0.14,0.09-0.43-1.67-1.41-1.65c-0.14-0.08-0.77,1.12-1.72,2.12
									c-0.09-0.09-2.26,1.64-3.07-0.64c-0.18-0.08-2.92-1.75-4.6-1.84C51.28,135.7,49.56,135.74,49.6,135.47z"/>
								<path class="st4" d="M80.93,134.04c0.21,0.23,0.42,0.47,0.63,0.72c0.31,0.39,0.67,0.77,1.05,1.08c0,0,2.3,1.9,2.39,1.98
									c1.79,0.76,3.02,2.32,3.02,2.46c1.07,2.41,4.31,2.78,4.13,2.78c2.75,0.34,1.98,1.42,1.89,1.42
									c-0.39,0.41-2.19,1.07-2.28,1.07c-0.51,0.85-1.92,1.15-2.01,1.28c-1.59-0.01-2.94,0.99-3.03,0.91
									c-2.58,1.16-4.25,0.1-4.29,0.1c-0.91-1.22-3.12-1.08-3.03-1.17c-0.17,0.05-2.7,0.1-2.7,0.1c-2.12,0.09-3.75-1.55-3.79-1.55
									c-0.64-0.87-1.97-1.15-2.02-1.15c-2.06-1.28-1.91-2.35-1.87-2.44c0.24-1.24,1.01-0.16,1.01-0.16s0.41,0.3,0.45,0.25
									c1.74,0.76,0.36-1.6,0.27-1.73c-0.77-0.88-1.62-2.09-1.74-3.3c-0.03-0.25,0.12-0.45,0.2-0.68c0.09-0.23,0.09-0.47,0.11-0.72
									c0.04-0.62-0.14-1.32,0.09-1.92c0.15-0.4,0.54-0.86,0.99-0.93c0.47-0.07,1.03,0,1.33,0.41c0.21,0.28,0.26,0.66,0.49,0.93
									c0.31,0.38,0.86,0.33,1.3,0.38c0.37,0.04,0.74,0.12,1.11,0.05c0.31-0.06,0.59-0.24,0.86-0.41c0.57-0.37,1.04-0.85,1.48-1.36
									c0.07-0.07,0.28-0.26,0.28-0.37c0.01-0.68,0.97-0.12,1.22,0.02C79.44,132.63,80.21,133.27,80.93,134.04z"/>
								<path class="st4" d="M85.03,117.61c0,0-1.5-1.65-3-1.7c0.04-0.13-1.81,0.26-1.9,0.09c-0.09-0.18-1.3,1.31-1.16,1.62
									c0.14,0.31,0.29,3.22,0.3,3.44c0,0.22,0.19,2.56-0.16,2.84c-0.35,0.27-0.98,1.57-0.71,1.7c0.31,0.15,0.65,0.21,0.84,0.54
									c0.49,0.82-0.43,1.68-0.67,2.41c-0.3,0.92-0.97,1.67-1.24,2.6c0,0,2.32-2.71,6.72-1.34c0.04-0.05,1.64,0.18,1.57,2.97
									c-0.04,0.13,0.54,2.29,3.36,4.08c-0.04,0.05,2.52,1.8,2.92,1.93c-0.09,0,1.28,0.06-0.34-1.41c0.09,0-1.17-2.81-1.17-2.81
									l-0.48-1.71c0,0,0.09-1.77,1.23-0.38c0.05,0.04,1.13,1.08,1.57,1.07c-0.09,0.05,1.35,1.12,1.67,1.69
									c-0.17,0.27,2.73,1.66,3.36,1.87c0.05,0.13,1.04,0.77,1.04,0.77l-0.43-1.32c0,0-1.18-1.26-1.99-2.08
									c-0.04,0-0.35-1.63-0.35-1.63s0.37-1.07,1.2,0.11c0.04-0.09,1.52,0.72,2.58,0.56c0.04,0,2.02,1.33,2.29,1.5
									c0.27,0.17,0.67,0.34,0.98,0.42c0.31,0.08,1.29,0.19,1.29,0.19s1.28-0.12-0.97-2.06c0.05,0-1.32-1.83-0.16-3.22
									c0.04,0.04,1.71-2.78-0.72-2.64c0.18,0.04-5.06,1.26-4.63-1.18c0-0.05,0.04-2.08-3.93-3.72c-0.05-0.09-1.76-1.51-2.18-2.56
									c0.13,0-0.74-1.44-4.63-1.32c-0.09,0.05-1.49,0.52-2.2-1.32"/>
								<path class="st4" d="M61.74,122.15c-0.35,0.28-0.37-0.79-0.12-1.19c0.6-0.94,0.49-1.87-0.18-2.16
									c-0.67-0.29-1.16,1.53-1.19,2.06c-0.03,0.53,0.36,2.16,0.8,2.19c0.44,0.03,0.34,1.5,0.21,1.59
									c-0.13,0.09-0.37,1.47-1.29,1.71c-0.92,0.24-1.81,0.35-1.83,1.5c-0.02,1.15-0.89,1.83-0.97,1.97
									c-0.08,0.13-1.63,0.26-2.18-0.48c-0.55-0.74-0.91-1.26-1.21-2.76c-0.3-1.5-1.66-5.18-1.66-5.18s-0.05-2.17-0.91-1.09
									c0.18-0.09-1.5,4.33-0.35,6.34c-0.09-0.04,1.42,2.05,1.47,2.31c0.05,0.26,0.21,1.63,0.21,1.63s-0.75,0.1-0.98-0.24
									c-0.23-0.35-0.44-0.08-1.13-0.99c-0.68-0.91-1.84-3.19-1.89-3.36c-0.05-0.18-0.64-0.74-1.42-2.14
									c-0.79-1.4-0.28-2.47-0.28-2.47s0.19-1.46,0.66-2.27c0.47-0.81,1.93-4.51,1.93-4.51s1.38-1.44,1.19-2.33
									c-0.2-0.88,1.15-2.15,1.76-2.47c0.61-0.32,0.07-0.75,1.93-0.88c1.85-0.13,2.9-0.86,4.44-1.03c1.55-0.17,1.62-0.66,3-0.51
									c1.37,0.15,3.14-0.2,2.18,0.57c-0.96,0.77-1.08,1.35-0.24,1.29c0.84-0.06,1.16,0.28,1.94-0.26
									c0.78-0.55,0.88-0.15,1.63-0.17c0.75-0.02,1.68-0.08,1.76-0.22c0.09-0.14,0.66-0.02,0.45,0.52c0,0,0,0,0,0
									c-0.25,0.62-1.28,1.46-0.77,2.18c-0.5,0.01-1.03,0.08-1.53,0.05c-1.06-0.07-1.12,1.53-0.99,1.91
									c0.13,0.38-0.38,1.28-0.81,1.84C64.95,115.67,62.96,121.16,61.74,122.15z"/>
								<path class="st4" d="M64.8,118.44c-0.34,0.57-0.93,2.06-1.2,2.89c-0.14,0.42-0.27,0.98-0.74,1.15
									c-0.23,0.09-0.65-0.09-0.89,0.02c-0.03,0.01-0.05,0.03-0.08,0.05c-0.32,0.29,0.66,0.63,0.54,1.05
									c-0.21,0.71-0.96,2.5-1.06,3.87c-0.1,1.38,0.03,3.27-0.3,4.39c-0.33,1.11-0.11,0.98-0.1,1.55c0.01,0.57,0.67,0.21,0.93,0.2
									c0.26-0.01,2.77-0.77,3.26-0.56c0.49,0.21,3.87-1.15,3.96-1.11c0.96-0.69,4.09-1.29,3.91-1.1c2.67,0.87,1.93-2.83,2.02-2.43
									c0.31-1.91,2.66-3.78,2.61-3.77c1.84-3.01-0.32-10.61-0.32-10.61c0.04-0.31-1.38-0.32-1.53-1.03
									c-0.15-0.7-2.01-0.66-2.42-1.27c-0.41-0.61-0.86-0.69-2.42,0.45c-0.85,0.62-1.28,0.32-1.58-0.09c0,0-1.3-0.87-2.29,0
									c0,0.03-0.74,1.08-0.1,1.98c-0.14,0.09-0.29,1.39-0.75,1.96c0,0-0.04,0.86,1.22-0.14c-0.09-0.04,0.94-1.48,1.96-1.64
									c1.01-0.16,1.86,0.23,2.1,0.84c0.24,0.61-2.27,1.29-2.27,1.29s-2.3,0.09-2.99,0.73C66.13,117.06,65.33,117.58,64.8,118.44z"
									/>
								<path class="st4" d="M88.05,189.78c0.21,0.52,0.26,0.99,0.09,1.26c-0.34,0.54-2.58,0.53-2.94,0.6
									c-2.28,1.05-3.66-0.21-3.78-0.27c-1.15-1.15-3.19-0.4-3.49-0.51c-10.03,2.7-7.82-1.72-8-1.77c0.99-5.86,3.83-5.45,3.89-5.51
									c0.15-1,0.85-1.49,0.73-1.55c1.21-1.21,3.36-0.25,3.24-0.31c1.57-0.98,0.91-6.63,0.86-6.33c-0.06-2.89-7.94-4.19-7.88-4.07
									c-4.82,0.81-10.45-3.01-10.44-2.95c-0.9-0.92-5.06-2.07-5.12-2.07c-3.02-0.34-2.61-3.18-2.61-3.18
									c-0.03-1.53-0.96-3.22-1.07-3.28c1.81-0.87,2.2,0.78,2.2,0.78c1.13,0.5,3.31,0.28,3.49,0.45c1.24,0.21,3.53-0.55,3.47-0.37
									c1.28-0.8,1.69-0.98,1.63-0.98c1.41-0.03,3.8-1.62,3.74-1.62c2.17-0.46,1.43,0.79,1.26,1.09c-0.17,0.3-1.4,0.68-1.39,0.98
									c0.01,0.29-0.84,1.85-0.84,1.91c0.04,1.65,2.35,2.25,2.18,2.43c1.42-0.09,2.79,0.82,2.79,0.88
									c0.14,0.88,1.49,0.68,1.37,0.68c1.01,0.39,1.21-1.27,1.09-1.26c0.21-1.01-2.01-2.67-2.07-2.79
									c-1.09-1.1,0.56-1.49,0.98-0.96c0,0,2.3,2.26,1.65,4.76c0.05,0.13-1.65,1.37-0.76,1.43c0.09,0,2.47,1.76,3.32,2.01
									c0.84,0.25,4.77,1.89,4.88,4.76c0,0,0.26,5.79-1.11,7.9c-0.13-0.09-0.29,1.07-2.67,1.21c-0.13-0.09-1.86-0.18-2.05,1.37
									c-0.18-0.04-3.61,2.69-3.14,4.18c-0.04,0-0.42,2.88,3.87,1.15c0,0.13,2.38-0.32,3.49-0.21c0.53,0.08,3.21,1.21,4.23,1.19
									c0.11,0.07,1.81-0.04,2.45-0.36C85.61,190.42,87.92,189.37,88.05,189.78z"/>
								<path class="st4" d="M85.82,189.85c-0.18-0.17-0.89,0.79-3.24,0.45c0.09-0.13-1.7-0.76-2.01-1.02
									c-0.31-0.26-0.94-0.64-1.56-0.63c-0.62,0.01-2.25,0.45-3.18,0.07c-0.94-0.38-1.32,0.12-0.78-1.13
									c0.55-1.25,0.81-1.12,1.9-2.17c1.08-1.04,3.51-1.09,4.2-2.26c0.68-1.17,1.56-1.54,1.12-3.21c-0.43-1.67-0.96-7.37-1.52-8.55
									c-0.56-1.18-1.45-1.78-2.04-2.17c-0.58-0.39-3.29-0.59-3.88-1.55c-0.6-0.96-1.7-0.67-1.18-1.48c0,0.09,0.55-2.98-1.49-5.45
									c0,0-1.79-1.01-2.55-0.58c-0.06,0.06-0.7-2.11-0.94-2.22c-0.24-0.11,4.65,2.08,4.83,2.37c0.18,0.29,1.95,2.73,4.52,1.91
									c1.12-0.36,3.32,0.69,3.32,0.87c0,0.18,1.54,0.32,2.17,2.08c0.63,1.75,0.67,0.75,2.94,2.18c2.27,1.42,1.59,2.79,1.27,3.98
									c-0.33,1.19-0.06,2.72-0.1,3.72c-0.04,1-0.01,2,0.01,3.01c0.02,1-0.27,1.3-0.24,2.42c0.02,1.12-0.74,1.37-1.37,1.98
									c-0.63,0.6-2.84,2.24-2.9,2.36c-1.44,1.63-2.34,0.88-2.34,1.06c-1.11,0.38-0.51,0.9-0.51,0.96
									c1.48,0.44,0.97,0.98,0.79,1.04c-0.56,1.6,1.36,0.15,1.48,0.14c0.44-1.42,1.44-1.39,1.38-1.44c1.28-0.62,3.22,1.64,3.1,1.64
									c0.32,0.33,0.42,0.39,0.63,0.77C87.65,189,88.23,189.18,85.82,189.85z"/>
								<path class="st4" d="M61.77,135.95c-0.45-0.7-1.48-1.07-1.95-0.31c-0.47,0.76-1.01,2.5-2.42,2.53
									c0.04-0.04-0.79,0.42-1.85-1.51c0,0.04-2.42-1.27-4.06-1.5c0.09,0.04-1.72,0.13-1.86-0.09c-0.14-0.22-0.31-0.08-0.94-0.33
									c-0.62-0.25-1.06-0.07-1.19,0.03c-0.13,0.09-0.42,1.25-0.19,1.51c0.23,0.26,0.38,0.92,0.47,1.1
									c0.09,0.17,1.41,1.56,1.59,1.73c0.18,0.17,1.02,1.84,0.97,2.01c-0.04,0.18,0.33,2.87-0.06,3.19
									c-0.05-0.18-1.18-1.26-1.69-2.31c-0.51-1.05-0.56-1.27-0.56-1.27s-1.45-3.46-2.05-2.52c-0.22,0.01-0.32-0.43-0.56-1.54
									c-0.25-1.1-0.8-2.33-0.95-2.77c-0.14-0.44-0.54-2.24-1.44-2.98c-0.9-0.73-6.01-5.53-3.06-4.09c0,0,1.26,0.81,1.64-0.08
									c-0.04-0.04-0.57-1.71,0.61-0.41c0.04-0.04,0.87,1.31,0.96,1.48c0.09,0.17,0.6,1.09,0.74,1.31c0.14,0.22,0.86,0.91,1.22,0.9
									c0.35-0.01,0.26-0.09,0.85,0.69c0.59,0.78,0.75,1.8,0.66,2.06c-0.08,0.27,0.68,0.52,0.9,0.73c0.23,0.21,1.65,0.72,2.56-0.15
									c0.09,0.04,0.22-0.23,0.1-1.2c-0.11-0.97-0.33-0.92-0.43-1.67c-0.11-0.75,0.57-0.37,0.84,0.12
									c0.28,0.48,0.79,1.88,1.35,1.12c0.56-0.76,0.79-0.37,0.99-1.31c0.2-0.93-0.13-2.03-0.42-3.18
									c-0.29-1.14-0.83-1.35-0.85-2.33c-0.02-0.97,1.01-0.16,1.02,0.07c0,0.22,0.52,1.58,0.77,2.9c0.25,1.32,0.04,1.81,0.28,2.51
									c0.24,0.7,1.94,1.82,2.76,0.83c0.82-0.99,1.92-1.19,2.43-2.27c0.51-1.07,0.85-1.61,1.07-1.71c0.22-0.09,0.41,0.66,0.41,0.66
									s0.21,1.41-0.47,2.93c-0.67,1.52-0.74,2.54-0.11,3.01c0.63,0.47,1.03,0.64,2.13,0.22c1.1-0.42,2.47-0.23,3.18-0.25
									c0.71-0.02,1.46,0.15-1.33,1.93c0,0-0.49,3.9-0.29,4.87c0.2,0.97,0.32,2.2-0.21,2.57c-0.52,0.36-1.8,2.52-1.51-0.14
									C62.02,142.98,64.34,139.92,61.77,135.95z"/>
								<path class="st4" d="M77.37,131.1"/>
								<path class="st4" d="M37.31,78.3c0,0,0.52,0.63,2.19,0.02c0.04-0.02,1.41-1.16,1.88,0.16c0.11,0.32,0.62,0.42,0.89,0.51
									c0.24,0.08,0.48,0.15,0.73,0.18c0.24,0.03,0.52-0.09,0.76-0.03c0.37,0.09,0.65,0.44,0.87,0.72
									c0.09,0.11,0.58,0.97,0.63,0.97c0.02,0,2.31,1.61,1.33,2.09c-0.04,0.05-1.21,0.4-1.21,0.4s-0.39,0.14,0,0.8
									c0.02,0.02,0.23,0.33,0.14,0.55c0.04,0-0.25-0.19-0.82-0.14c-0.04,0-0.87-0.58-0.87-0.58c-0.35-0.2-0.69-0.43-1.02-0.67
									c-0.54-0.4-0.88-0.94-1.32-1.42c-0.65-0.71-1.38-1.37-2.1-2c-0.35-0.31-0.71-0.61-1.08-0.89c-0.17-0.13-0.34-0.25-0.52-0.37
									C37.66,78.51,37.41,78.42,37.31,78.3z"/>
								<path class="st4" d="M106.91,136.59c0,0,8.95,4.67,11.39,22.93c0,0.18,4.87,8.3,8.01,10.35c0.09,0.09,4.7,4.58,6.57,4.99
									c-0.09-0.09,7.09,0.37,5.22,11.92c0.09,0,5.4,12.27,5.99,14.56c0.08-0.27,3.57,9.56-9,9.22
									c-0.43,0.36-10.94,1.39-12.38,0.27c0.89,0.16-3.57-9.21,5.54-9.68c0.26-0.27,2.14,0.75,3.2,0.64
									c1.06-0.11,1.92-1.1,3.76-2.21c1.83-1.1,1.56-1.63,2.03-4.2c0.47-2.58,0.18-3.9-0.29-5.3c-0.47-1.4-1.08-4.66-0.96-7.68
									c0.11-3.01,0.36-3.63-2.94-5.07c-3.31-1.43-9.04-4.4-9.04-4.4s-0.15,1.33-3.89-3.63c-3.74-4.96-6.73-4.18-5.86-8.98
									c0.87-4.8-1.4-7.22-1.26-9.09c0.14-1.86-4.69-8.04-4.69-8.04s-5.01-2.63-7.03-1.79c-2.02,0.84-3.16,1.22-5.38,0.65
									c-2.23-0.57-2.75-0.29-3.92-1.33c-1.17-1.03-1.17-1.12,0.07-1.06c1.24,0.06,2.85,0.65,2.65-0.24
									c-0.2-0.88-0.83-1.66-1.47-2.36c-0.64-0.69-0.29-1.06,0.88-0.02c1.17,1.04,0.57,1.76,3.22,1.61
									c2.65-0.15,4.88,0.42,4.15-0.53c-0.73-0.96-1.43-0.59-1.98-1.37c-0.55-0.78-1.56-2.8-0.58-2.29
									c0.98,0.51,1.51,0.23,2.68,1.18C102.75,136.59,105.43,137.77,106.91,136.59z"/>
								<path class="st4" d="M95.92,143.65c0,0-3.12,7.15-12.02,8.58c0-0.09-3.52,1.05-5.08,2.41c0.09,0.26-3.69,1.32-4.75,1.34
									c-1.06,0.03-3.7,0.53-3.7,0.53s-0.96,0.73-0.24,1.07c0.72,0.34,2.49,0.39,3.21,1.26c0.73,0.87,2,2.34,3.23,1.96
									c1.23-0.38,2.98-1.39,4.24-0.45c1.26,0.95,1.81,1.73,2.17,2.25c0.37,0.52,0.96-0.47,1-2.59c0.04-2.13-3.51-2.49-1.68-3.77
									c1.83-1.28,2.7-1.92,3.61-0.97c0.91,0.95-0.86,0.99,3.02,0.55c3.88-0.44,7.79,0.18,9.08-1.62c1.29-1.8,0.9,0.69,1.54-2.51
									c0.64-3.2,0.64-3.2,3.19-3.96c2.55-0.76,2.29-0.4,2.88-2.01c0.58-1.61,1.7-2.96-2.01-3.05c-3.72-0.09-5.49-0.32-5.92,0.49
									C97.25,143.97,96.61,143.01,95.92,143.65z"/>
								<path class="st4" d="M105.66,148.21c0.35,0.03-1.66,1.01-2.52,1.91c-0.86,0.9-1.3,1.44-0.73,2.76
									c0.56,1.32,1.83,2.7,2.54,3.04c0.72,0.34,4.08,0.26,4,0.88c-0.08,0.62,0.35,3.8,1.16,4.58c0.81,0.78,1.3,2.8,2.65,3.92
									c1.35,1.12,6.04,5,7.04,6.13c1,1.13,3.62,3.55,4.86,3.79c1.24,0.24,3.57,1.16,3.87,2.92c0.3,1.76-4.92-2.19-7.68-3.01
									c-2.76-0.83-5.55,0.92-3.76,2.12c1.8,1.2,8.12,2.92,9.35,2.89c1.24-0.03,0.93,2.01-2.01,1.2c-2.94-0.82-6.57-1.09-8.37-2.47
									c-1.8-1.38-4.26-0.53-5.07-1.21c-0.81-0.69-1.75,0.66-2.33-1.28c-0.57-1.93-0.53,0.01-0.42-3c0.11-3.01,0.77-5.24-0.05-6.28
									c-0.82-1.04-2.36-2.78-3.64-4.61c-1.28-1.83,0.13-2.04-3.89-3.98c0,0-0.68-2.93-0.58-3.47
									C100.2,154.49,100.22,147.71,105.66,148.21z"/>
								<path class="st4" d="M86.63,157.27c0,0-0.68,1.37-0.91,1.43c-0.23,0.07-0.7,0.55-0.51,0.84c0.18,0.29-0.01-0.24,0.55,0.99
									c0.56,1.23,1.9,3.2,2.56,3.6c0,0,2.65,2.6,4.14,3.15c1.49,0.56,4.8,3.49,5.86,3.53c1.06,0.04-0.5-1.34-2.25-3.13
									c-1.75-1.79-3.8-0.98-5.21-3.36c-1.41-2.39-2.57-4.07,2.89-5.55c5.45-1.48,4.55-2.11,4.55-2.11S92.6,155.13,86.63,157.27z"
									/>
								<path class="st4" d="M99,162.91c1.88,1.07,1.84,1.2,1.86,2c0.02,0.8,1.74,2.75,2.47,3.53c0.72,0.78,0.11,1.06,0.09,2.25
									c-0.02,1.19-0.69,0.55-0.7,0.41c0-0.13-0.96-1.53-1.11-2.05c-0.15-0.53-0.25-1.23-0.81-2.5c-0.56-1.27-1.85-1.51-3.19-2.41
									c-1.35-0.9-2.01-0.88-2.37-1.01c-0.36-0.13-1.24-0.15-0.41,1.25c0.83,1.4,2.54,0.78,3.81,2.44
									c1.28,1.65,1.22,1.08,1.68,2.22c0.47,1.14,1.48,2.67,1.48,2.67s0.56,1.18,0.42,1.05c-0.13-0.13-0.61,0.23-1.7-0.89
									c-1.09-1.13-0.68-0.56-1.15-1.83c-0.47-1.27-1.11-2.23-2.14-2.92c-1.03-0.68-2.77-1.44-3.05-1.83
									c-0.27-0.39-1.62-1.03-2.4-2.56c-0.79-1.53-0.13-1.86,0.26-2.13c0.39-0.27,6.75-2.8,6.75-2.8c1.28,0.02,2.07,1.77,2.12,2.03
									c0,0,2.45,2.02,2.67,2.24c0.23,0.22,4.5,5.52,4.08,8.49c-0.04,0.13-0.19,5.36-0.14,5.62c0-0.18-0.55,1.12-0.69-3.3
									c0.08-0.13,1.08-3.16-4.75-10.55c0,0-4.17-0.51-3.02,0.64"/>
								<path class="st4" d="M121.9,182.31c-1.86,0.08,3.05,3.83,3.05,3.83s3.03,1.04,4.19,3.45c1.16,2.41,1.91,2.35,2.32,4.64
									c0.4,2.29,0.5,2.56,0.17,3.71c-0.33,1.16,1.1,1.65-0.94,1.53c-2.04-0.13-2.29,0.54-2.29,0.54s-2.09-0.61-2.4-0.61
									c-0.31,0.01-1.15-0.07-2.05,1.5c0,0.05-0.24,1.11-0.15,1.33c0-0.18,1.16-1.57,1.16-1.57s0.84-0.11,1.24-0.03
									c0.4,0.08,0.49,0.17,1.37,0.19c0.88,0.03,0.49,0.08,1.5-0.17c1.01-0.24,1.5-0.34,1.9-0.22c0.4,0.12-0.59,1.52,1.03,0.33
									c1.61-1.19,1.36-0.3,2.57-1.69c1.21-1.4,1.49-0.74,1.71-2.47c0.23-1.73-0.08-1.46-0.13-3.71c-0.05-2.26-0.81-2.77-0.9-4.8
									c-0.09-2.03-0.79-3.79-0.8-3.92c0-0.13-0.73-2.81-0.95-3.03c-0.22-0.22-2.83-2.02-2.83-2.02s-1.11-0.15-1.19,0.07
									c-0.08,0.22,0.1,0.57,0.33,0.88c0.23,0.31,0.26-0.49,1,1.44c0.75,1.93,1.37,1.87,2.02,3.49c0.66,1.62-1.25,3.3-1.58,2.56
									c-0.33-0.74-1.79-2.7-1.81-3.68c-0.02-0.97-3.89,0.22-4.52-0.56C124.29,182.52,124.15,182.21,121.9,182.31z"/>
								<path class="st4" d="M105.51,127.84c0.37-0.32,0.75-0.58,1.08-0.73c1.37-0.61,2.98-0.79,4.45-1.08
									c3.89-0.76,7.94-0.94,11.87-0.48c1.22,0.14,2.44,0.36,3.63,0.69c0.49,0.14,3.18,0.7,3.34,1.17
									c-0.28-0.79,14.66,6.84,19.91,0.35c3.18-3.93,4-9.73,3.2-14.57c-0.31-1.88-0.73-3.91-1.81-5.53
									c-1.3-1.95-3.73-2.87-5.81-3.76c-3.01-1.29-8.25-2.2-10.68,0.64c-1.62,1.89-2.42,4.55-5.24,5.06
									c-2.36,0.43-3.99-0.66-3.93-3.15c0.26-0.18,1.25-3.66,5.89-5.62c0,0,2-1.46,6.87-1.3c0.18,0,23.41-1.67,21.1,22.27
									c0.27,0.26-1.07,11.08-10.28,14.56c-0.26,0.01,6.34-5.45,7.26-7.68c0.93-2.23,1.01-2.41,1.56-5.52
									c0.55-3.11,1.13-8.87-0.9-12.9c-2.03-4.02-4.64-5.65-4.8-4.76c-0.16,0.89-0.13,1.86,0.58,2.02
									c0.71,0.16,1.29,2.27,2.18,2.69c0.9,0.42,1.45,1.47,1.73,2.26c0.28,0.79,0.36,4.06-0.02,2.92c-0.38-1.14-1.14-3.16-1.5-3.6
									c-0.36-0.43-2.87-1.7-1.13,1c1.74,2.7,2.28,2.87,2.21,4.11c-0.06,1.24,1.3,2.89,0.57,5.92c-0.73,3.02-1.63,6.14-1.98,6.59
									c-0.02-0.97,1.29-9.76,0.36-11.69c0.17-0.18-0.88,12.41-3.31,14.32c0.09,0.09,1.8-6.76,1.58-8.44
									c-0.18,0.09-1.99,10.13-5.83,12.43c0,0-5.4,3.75-18.77-0.65c-0.1-0.26,9.92,0.58,12.74,0.25c-0.01-0.26,4.23-0.8,4.27-2.93
									c0,0-6.4,2.53-17.92,1.55c-1.53-0.47-3.38-0.46-4.96-0.59c-3.01-0.24-6.04-0.23-9.02,0.26c-2,0.33-3.81,2.11-5.94,1.58
									c-0.63-0.15-0.77-0.34-0.56-1.06c0.25-0.85,2.89-2.8,2.56-3.75c-0.41-1.2-3.75,0.79-4.27,1.04
									c-0.57,0.28-1.44-0.41-1.61-0.88C103.86,129.83,104.63,128.63,105.51,127.84z"/>
							</g>
							<path class="st4" d="M106.64,143.85c0,0,1.16,4.31-1.34,5.47c0.05-0.05-3.67,2.29-1.32,4.5c0.13,0.09,2.83,1.8,5.08,1.79
								c0-0.13,1.14-0.42,1.12,4.71c-0.26,0.05,1.94,3.63,3.02,4.62c0,0,6.59,5.91,6.77,6.18c0-0.09,3.66,3.63-1.44-2.89
								c0.05,0-3.83-3.1-4.05-3.31c-0.23-0.22-2.41-3.04-2.16-3.85c0.25-0.8,0.4-0.05,0.63-1.43c0.23-1.38,0.54-1.47,0.11-2.83
								c-0.43-1.36-1.22-3.2-0.97-3.91c0.25-0.72,0.22-2.09-0.28-2.78c-0.5-0.7-1.49-1.3-1.96-2.57
								C109.39,146.27,106.58,141.29,106.64,143.85z"/>
						</g>
						
							<use xlink:href="#SVGID_1_"  style="overflow:visible;fill-rule:evenodd;clip-rule:evenodd;fill:none;stroke:#FFFFFF;stroke-width:0.706;"/>
					</g>
				</g>
				<g>
					<path class="st4" d="M48.48,154.13l8.73-9.93l2.01,1.76l-8.74,9.93L48.48,154.13z"/>
					<path class="st4" d="M53.1,158.24l7.34-11.01l2.16,1.44l-0.4,10.35l4.9-7.35l2.06,1.38l-7.34,11.01l-2.23-1.49l0.35-10.13
						l-4.78,7.18L53.1,158.24z"/>
					<path class="st4" d="M70.31,153.68l4.5,1.9c1.01,0.43,1.75,0.83,2.22,1.21c0.63,0.51,1.08,1.15,1.36,1.9
						c0.28,0.75,0.39,1.58,0.33,2.47c-0.06,0.89-0.34,1.91-0.82,3.05c-0.42,1-0.91,1.81-1.47,2.43c-0.68,0.76-1.42,1.29-2.21,1.6
						c-0.6,0.23-1.31,0.32-2.14,0.24c-0.61-0.06-1.38-0.28-2.29-0.66l-4.63-1.96L70.31,153.68z M71.89,156.78l-3.41,8.07l1.84,0.78
						c0.69,0.29,1.2,0.46,1.54,0.51c0.44,0.07,0.84,0.04,1.21-0.09c0.36-0.13,0.74-0.43,1.14-0.9c0.4-0.48,0.79-1.18,1.19-2.13
						c0.4-0.94,0.62-1.7,0.67-2.27c0.05-0.57-0.02-1.07-0.2-1.48c-0.18-0.41-0.48-0.76-0.9-1.05c-0.31-0.22-0.97-0.55-1.97-0.97
						L71.89,156.78z"/>
					<path class="st4" d="M78.39,170.91l3.48-12.76l2.58,0.7l-3.48,12.76L78.39,170.91z"/>
					<path class="st4" d="M96.15,174.11l-2.88-0.38l-0.75-3.13l-5.24-0.69l-1.47,2.84l-2.81-0.37l6.83-12.44l2.8,0.37L96.15,174.11z
						 M91.96,168.28l-1.17-5.1l-2.41,4.63L91.96,168.28z"/>
					<path class="st4" d="M102.49,167.58c-0.18-1.34-0.13-2.48,0.14-3.44c0.21-0.71,0.53-1.36,0.98-1.96
						c0.44-0.6,0.95-1.07,1.53-1.41c0.77-0.46,1.69-0.76,2.75-0.9c1.93-0.26,3.56,0.13,4.88,1.17c1.32,1.04,2.13,2.63,2.42,4.76
						c0.29,2.12-0.06,3.85-1.05,5.2c-0.99,1.35-2.44,2.16-4.37,2.42c-1.95,0.27-3.58-0.12-4.89-1.15
						C103.57,171.23,102.77,169.67,102.49,167.58z M105.2,167.12c0.2,1.48,0.7,2.56,1.49,3.24c0.79,0.67,1.71,0.94,2.77,0.79
						c1.05-0.14,1.87-0.64,2.44-1.49c0.57-0.85,0.76-2.04,0.55-3.56c-0.2-1.5-0.69-2.58-1.44-3.23c-0.76-0.65-1.68-0.9-2.77-0.75
						c-1.09,0.15-1.92,0.64-2.48,1.48C105.18,164.44,105,165.62,105.2,167.12z"/>
					<path class="st4" d="M119.03,171.49l-4.19-12.55l4.07-1.36c1.54-0.51,2.57-0.79,3.08-0.82c0.78-0.05,1.52,0.16,2.22,0.63
						c0.7,0.47,1.21,1.2,1.54,2.2c0.26,0.77,0.33,1.46,0.23,2.08c-0.1,0.62-0.32,1.15-0.65,1.59c-0.33,0.44-0.7,0.79-1.12,1.03
						c-0.56,0.32-1.42,0.67-2.57,1.06l-1.65,0.55l1.58,4.73L119.03,171.49z M118.08,160.22l1.19,3.56l1.39-0.46
						c1-0.33,1.64-0.62,1.94-0.87c0.29-0.24,0.49-0.54,0.59-0.88c0.1-0.34,0.09-0.7-0.04-1.07c-0.15-0.46-0.41-0.79-0.78-1
						c-0.37-0.21-0.77-0.28-1.2-0.22c-0.32,0.04-0.94,0.22-1.85,0.52L118.08,160.22z"/>
					<path class="st4" d="M131.49,167l-6.32-11.62l8.62-4.69l1.07,1.97l-6.27,3.41l1.4,2.58l5.83-3.17l1.06,1.96l-5.83,3.17
						l1.72,3.16l6.49-3.53l1.06,1.96L131.49,167z"/>
					<path class="st4" d="M143.03,160.38l-8.33-10.28l2.02-1.64l9.77,3.46l-5.56-6.86l1.93-1.56l8.33,10.28l-2.08,1.69l-9.57-3.34
						l5.43,6.7L143.03,160.38z"/>
				</g>
				<g>
					<path class="st5" d="M86.64,115.7c0,0,14.17-32.03,11.09-46.5c-0.15-0.15,11.4-7.55,11.4-7.55s-18.02,54.05-19.56,56.2
						C89.41,117.55,86.64,115.7,86.64,115.7z"/>
					<path class="st5" d="M91.41,119.86c0,0,18.32-22.02,30.95-60.98c0.31,0,10.78-4.47,10.78-4.47s-9.39,36.03-38.19,68.21
						L91.41,119.86z"/>
					<path class="st5" d="M98.65,124.94c0,0,38.19-51.58,61.75-59.59c0.15,0.15,12.32,4.16,12.32,4.16s-55.43,31.26-69.65,59.55
						C103.11,129.1,98.65,124.94,98.65,124.94z"/>
					<path class="st5" d="M106.04,131.1l50.51-40.5l14.17,0.15c0,0-45.58,32.34-61.75,42.96L106.04,131.1z"/>
					<path class="st5" d="M110.66,134.95c0,0,29.23-18.56,46.87-24.14c-0.06-0.04,8.56,5.66,8.56,5.66s-26.48,3.08-54.05,19.71
						C112.04,136.34,110.66,134.95,110.66,134.95z"/>
					<path class="st5" d="M84.48,117.55c0,0,13.7,15.86,24.64,20.17c0,0.15-4,3.7-4,3.7s-11.39-5.39-24.18-19.09
						C80.79,122.48,84.48,117.55,84.48,117.55z"/>
					<path class="st5" d="M79.24,124.63c0,0,12.01,13.09,24.33,19.25c0-0.15-4.31,8.16-12.47,10.78c0-0.15-10.93,2.62-18.32-8.93
						c-0.15-0.31-4.93-9.55,3.54-18.63C76.47,126.94,79.24,124.63,79.24,124.63z"/>
				</g>
			</g>
		</g>
	</g>
	<g>
		<path class="st4" d="M41.77,64.24l0.02-0.03l-3.92-4.13l1.36-2.7l5.89,6.98L50,66.8l-1.25,2.49l-4.87-2.45l-9.12-0.57l1.41-2.81
			L41.77,64.24z"/>
		<path class="st4" d="M44.93,57.22c-0.65-0.61-1.12-1.24-1.43-1.89c-0.31-0.64-0.41-1.32-0.32-2.03c0.09-0.71,0.45-1.48,1.09-2.32
			c0.63-0.83,1.28-1.39,1.94-1.67c0.66-0.28,1.34-0.36,2.05-0.24c0.71,0.12,1.44,0.41,2.2,0.87c0.77,0.46,1.56,1.01,2.4,1.64
			c0.84,0.64,1.59,1.27,2.23,1.88c0.64,0.61,1.12,1.24,1.42,1.88c0.31,0.65,0.41,1.32,0.3,2.02c-0.11,0.7-0.48,1.46-1.11,2.3
			c-0.63,0.84-1.27,1.4-1.91,1.69c-0.64,0.29-1.32,0.37-2.02,0.25c-0.71-0.12-1.44-0.41-2.2-0.86c-0.76-0.46-1.56-1-2.41-1.65
			C46.32,58.46,45.58,57.84,44.93,57.22z M50.78,58.26c0.55,0.36,1.03,0.61,1.44,0.75c0.41,0.14,0.76,0.17,1.06,0.08
			c0.3-0.09,0.58-0.3,0.83-0.63c0.25-0.33,0.38-0.65,0.38-0.97c0-0.32-0.12-0.65-0.36-1.01c-0.24-0.35-0.61-0.75-1.1-1.18
			c-0.5-0.43-1.11-0.93-1.86-1.5c-0.74-0.56-1.39-1.02-1.93-1.38c-0.54-0.36-1.02-0.61-1.44-0.75c-0.41-0.14-0.77-0.17-1.07-0.08
			c-0.3,0.09-0.58,0.3-0.83,0.63c-0.25,0.33-0.38,0.65-0.38,0.97c0,0.32,0.12,0.65,0.37,1.01c0.25,0.36,0.61,0.75,1.1,1.18
			c0.49,0.43,1.1,0.92,1.85,1.49C49.58,57.44,50.23,57.9,50.78,58.26z"/>
		<path class="st4" d="M62.36,47.27l0.02-0.02l-6.26-7.12l1.93-1.7l9.15,10.39l-2.39,2.1l-8.96-5.02l-0.03,0.03l6.41,7.28l-1.93,1.7
			l-9.15-10.39l2.42-2.13L62.36,47.27z"/>
		<path class="st4" d="M69.82,34.61l-4.27,2.5l1.66,2.82l4.01-2.36l1.16,1.97l-4.02,2.36l1.89,3.22l4.43-2.6l1.15,1.97L69,48.51
			l-7.01-11.95l6.67-3.92L69.82,34.61z"/>
		<path class="st4" d="M75.21,30.2l3.2,3.61l0.14-4.82l2.87-1.03l-0.7,7.54l5.63,5.42l-2.96,1.07l-3.48-3.74l-0.27,5.09l-2.88,1.04
			l0.87-7.76l-5.32-5.37L75.21,30.2z"/>
		<path class="st4" d="M91.02,34.49l-5.38,1.01l-0.42-2.24l5.38-1.01L91.02,34.49z"/>
		<path class="st4" d="M95.76,35.74c0.01,0.32,0.05,0.61,0.11,0.88c0.06,0.26,0.17,0.48,0.31,0.66c0.15,0.18,0.35,0.31,0.59,0.41
			c0.24,0.1,0.55,0.14,0.91,0.12c0.43-0.01,0.8-0.17,1.14-0.46c0.33-0.29,0.49-0.73,0.47-1.31c-0.01-0.31-0.06-0.58-0.15-0.8
			c-0.09-0.22-0.24-0.42-0.44-0.6c-0.2-0.17-0.46-0.33-0.78-0.47c-0.32-0.13-0.72-0.27-1.19-0.41c-0.63-0.18-1.17-0.39-1.63-0.62
			c-0.46-0.23-0.85-0.5-1.16-0.82c-0.31-0.32-0.55-0.69-0.71-1.12c-0.16-0.43-0.25-0.93-0.27-1.49c-0.05-1.37,0.29-2.4,1.03-3.11
			c0.74-0.7,1.77-1.07,3.11-1.12c0.62-0.02,1.19,0.03,1.72,0.14c0.53,0.12,0.99,0.32,1.38,0.61c0.39,0.29,0.7,0.67,0.93,1.13
			c0.23,0.47,0.36,1.03,0.38,1.69l0.01,0.39l-2.68,0.1c-0.03-0.66-0.16-1.16-0.4-1.51c-0.25-0.34-0.64-0.51-1.18-0.49
			c-0.31,0.01-0.57,0.07-0.77,0.16c-0.2,0.1-0.36,0.23-0.48,0.38c-0.12,0.15-0.2,0.33-0.23,0.52c-0.04,0.19-0.05,0.4-0.04,0.6
			c0.01,0.43,0.12,0.78,0.31,1.07c0.19,0.29,0.59,0.54,1.19,0.76l2.19,0.85c0.54,0.21,0.98,0.44,1.32,0.68
			c0.35,0.24,0.62,0.5,0.84,0.78c0.21,0.28,0.36,0.6,0.45,0.94c0.09,0.35,0.14,0.73,0.16,1.16c0.05,1.46-0.33,2.54-1.15,3.24
			c-0.82,0.7-1.99,1.07-3.5,1.13c-1.58,0.06-2.71-0.24-3.42-0.9c-0.7-0.66-1.08-1.63-1.12-2.91l-0.02-0.56l2.79-0.1L95.76,35.74z"/>
		<path class="st4" d="M106.84,35.9c-0.05,0.35-0.08,0.67-0.07,0.96c0,0.29,0.05,0.56,0.14,0.78c0.09,0.23,0.23,0.42,0.43,0.57
			c0.19,0.15,0.45,0.25,0.77,0.3c0.33,0.05,0.61,0.03,0.83-0.06c0.22-0.09,0.41-0.23,0.56-0.43c0.15-0.19,0.27-0.43,0.36-0.71
			c0.09-0.28,0.16-0.59,0.21-0.94l1.41-9.57l2.76,0.41l-1.41,9.56c-0.13,0.87-0.35,1.57-0.68,2.11c-0.33,0.53-0.72,0.94-1.18,1.21
			c-0.46,0.27-0.96,0.43-1.5,0.47c-0.54,0.04-1.09,0.02-1.66-0.07c-0.56-0.08-1.1-0.22-1.61-0.39c-0.51-0.18-0.95-0.46-1.31-0.83
			c-0.36-0.37-0.62-0.87-0.78-1.48c-0.16-0.61-0.17-1.38-0.04-2.3l1.41-9.56l2.76,0.41L106.84,35.9z"/>
		<path class="st4" d="M121.37,39.11l0.04,0.02l3.22-8.91l2.41,0.87l-4.7,13.01l-2.99-1.08l0.08-10.27l-0.04-0.01l-3.29,9.11
			l-2.41-0.87l4.7-13.02l3.03,1.09L121.37,39.11z"/>
		<path class="st4" d="M135.68,35.34c0.99,0.61,1.61,1.33,1.85,2.17c0.24,0.84,0.05,1.77-0.58,2.8c-0.49,0.79-1.04,1.34-1.67,1.65
			c-0.63,0.3-1.31,0.33-2.07,0.06l-0.02,0.03c0.54,0.45,0.86,0.92,0.96,1.38c0.09,0.47-0.03,1.05-0.37,1.76
			c-0.11,0.23-0.24,0.48-0.39,0.75c-0.15,0.27-0.31,0.56-0.5,0.89c-0.37,0.64-0.63,1.14-0.8,1.49c-0.14,0.37-0.13,0.69,0.01,0.94
			l-0.07,0.11l-2.58-1.58c-0.02-0.24,0.02-0.48,0.12-0.71c0.1-0.24,0.21-0.47,0.35-0.71l1.33-2.31c0.26-0.48,0.37-0.91,0.32-1.31
			c-0.05-0.39-0.31-0.74-0.81-1.04l-1.27-0.78l-3.07,5.01l-2.38-1.46l7.24-11.81L135.68,35.34z M131.5,39.88
			c0.57,0.35,1.09,0.49,1.57,0.41c0.47-0.08,0.91-0.44,1.3-1.08c0.67-1.09,0.45-1.97-0.65-2.65l-1.13-0.69l-2.09,3.4L131.5,39.88z"
			/>
		<path class="st4" d="M142.46,39.4l2.14,1.78l-8.86,10.65l-2.14-1.78L142.46,39.4z"/>
		<path class="st4" d="M142.57,51.39c-0.24,0.22-0.44,0.44-0.6,0.66c-0.16,0.22-0.26,0.44-0.3,0.67c-0.03,0.23-0.01,0.47,0.08,0.71
			c0.09,0.25,0.25,0.51,0.5,0.78c0.29,0.32,0.66,0.51,1.1,0.58c0.44,0.07,0.87-0.1,1.3-0.49c0.23-0.21,0.4-0.42,0.51-0.64
			c0.11-0.22,0.17-0.46,0.17-0.72c0-0.27-0.05-0.57-0.15-0.9c-0.11-0.34-0.26-0.73-0.46-1.18c-0.27-0.6-0.46-1.15-0.59-1.65
			c-0.13-0.5-0.17-0.97-0.13-1.42c0.04-0.45,0.17-0.87,0.39-1.27c0.22-0.4,0.55-0.79,0.97-1.17c1.01-0.93,2.02-1.34,3.03-1.23
			c1.01,0.11,1.97,0.65,2.87,1.63c0.42,0.46,0.76,0.92,1.01,1.4c0.25,0.48,0.4,0.96,0.43,1.45c0.03,0.48-0.05,0.97-0.25,1.44
			c-0.2,0.48-0.55,0.94-1.04,1.38l-0.28,0.26l-1.8-1.97c0.48-0.44,0.78-0.87,0.88-1.29c0.1-0.41-0.03-0.82-0.4-1.22
			c-0.21-0.23-0.42-0.39-0.63-0.48c-0.21-0.09-0.41-0.13-0.6-0.12c-0.19,0.01-0.38,0.06-0.55,0.16c-0.17,0.1-0.34,0.22-0.49,0.36
			c-0.31,0.29-0.52,0.6-0.61,0.93c-0.09,0.33-0.03,0.8,0.2,1.41l0.78,2.23c0.19,0.55,0.31,1.04,0.35,1.46
			c0.04,0.42,0.03,0.8-0.05,1.15c-0.08,0.35-0.22,0.66-0.42,0.96c-0.21,0.29-0.46,0.58-0.78,0.87c-1.08,0.99-2.15,1.39-3.21,1.22
			c-1.07-0.18-2.11-0.82-3.14-1.94c-1.07-1.17-1.58-2.23-1.54-3.2c0.04-0.97,0.54-1.88,1.48-2.75l0.41-0.38l1.88,2.05L142.57,51.39z
			"/>
		<path class="st4" d="M159.31,60.27l-2.68-4.15l-2.74,1.77l2.53,3.91l-1.92,1.24l-2.53-3.91l-3.13,2.02l2.79,4.32l-1.92,1.24
			l-4.3-6.66l11.63-7.51l4.19,6.49L159.31,60.27z"/>
	</g>
</g>
</svg>
