<?xml version="1.0" encoding="utf-8"?>
<!-- Generator: Adobe Illustrator 16.0.0, SVG Export Plug-In . SVG Version: 6.00 Build 0)  -->
<!DOCTYPE svg PUBLIC "-//W3C//DTD SVG 1.1//EN" "http://www.w3.org/Graphics/SVG/1.1/DTD/svg11.dtd">
<svg version="1.1" id="Layer_1" xmlns="http://www.w3.org/2000/svg" xmlns:xlink="http://www.w3.org/1999/xlink" x="0px" y="0px"
	 width="76px" height="30px" viewBox="0 0 76 30" enable-background="new 0 0 76 30" xml:space="preserve">
<g>
	<path fill="#DC1027" d="M18.423,6.368c-0.247,1.18-1.104,1.944-3.265,1.944h-2.211l0.836-3.884h2.186
		C18.303,4.427,18.69,5.113,18.423,6.368 M17.565,13.587c-0.316,1.479-1.399,2.139-3.979,2.139h-2.21l0.905-4.271h2.214
		C17.075,11.452,17.861,12.114,17.565,13.587 M55.68,1.137c-3.396,0-4.237,2.423-4.237,2.423l-3.648,8.652h-0.071L46.788,1.137
		h-5.74c-2.755,0-3.864,2.51-3.864,2.51l-4.368,8.565h-0.074L32.718,1.138h-3.893c-2.576,0-3.14,1.394-3.251,2.183
		c-0.744-1.43-2.802-2.183-6.467-2.183H9.872c-2.989,0-3.257,2.229-3.257,2.229L3.247,18.866h13.065
		c3.828,0,5.056-0.393,6.433-1.373c0.932-0.664,1.69-1.818,1.986-3.193c0.639-3.043-1.521-4.25-3.979-4.395v-0.05
		c2.24-0.515,4.149-1.503,4.859-3.499l0.281,12.51h6.237c3.571,0,4.893-3.252,4.893-3.252l3.821-7.525h0.075l0.883,10.777h5.567
		c4.035,0,5.408-3.5,5.408-3.5l4.902-10.934l-3.062,14.434h3.326c4.302,0,4.873-3.428,4.873-3.428l0.67-3.15h4.779
		c3.678,0,4.205-2.799,4.205-2.799l0.199-0.934h-8.396l0.781-3.686h5.279c3.607,0,4.122-2.669,4.122-2.669l0.224-1.062H55.68V1.137z
		"/>
	<g enable-background="new    ">
		<path fill="#FFFFFF" d="M5.784,26.253c0.066-0.109,0.135-0.217,0.206-0.322s0.145-0.211,0.221-0.317l2.687-3.798
			c0.081-0.112,0.173-0.182,0.276-0.208c0.105-0.026,0.206-0.039,0.3-0.039h1.307l-1.699,7.215H7.622l0.975-4.199
			c0.021-0.09,0.048-0.188,0.081-0.295c0.033-0.106,0.07-0.219,0.109-0.334l-2.636,3.724c-0.081,0.11-0.178,0.194-0.292,0.25
			c-0.115,0.054-0.238,0.082-0.367,0.082H5.269c-0.13,0-0.239-0.029-0.33-0.086c-0.091-0.056-0.149-0.14-0.175-0.246l-0.9-3.734
			c-0.02,0.111-0.037,0.221-0.053,0.326c-0.019,0.105-0.036,0.201-0.056,0.287l-0.967,4.225H1.319l1.699-7.211h1.265
			c0.071,0,0.134,0,0.188,0c0.055,0,0.103,0.008,0.144,0.021c0.04,0.016,0.075,0.039,0.102,0.072
			c0.027,0.033,0.048,0.081,0.062,0.145l0.893,3.803C5.72,25.821,5.757,26.034,5.784,26.253z"/>
		<path fill="#FFFFFF" d="M16.496,28.782h-1.285c-0.143,0-0.253-0.031-0.333-0.096c-0.08-0.065-0.123-0.15-0.129-0.256l-0.089-1.297
			h-2.525l-0.69,1.297c-0.047,0.093-0.129,0.174-0.245,0.246c-0.117,0.069-0.241,0.104-0.374,0.104H9.52l4.331-7.215h1.702
			L16.496,28.782z M12.719,26.034h1.866l-0.139-2.061c-0.012-0.172-0.026-0.346-0.043-0.522s-0.029-0.337-0.037-0.483
			c-0.036,0.08-0.081,0.17-0.137,0.271s-0.108,0.198-0.162,0.294c-0.053,0.097-0.104,0.187-0.151,0.269s-0.083,0.145-0.104,0.184
			L12.719,26.034z"/>
		<path fill="#FFFFFF" d="M22.805,21.567l-0.312,1.277h-1.887l-1.398,5.938h-1.652l1.389-5.938h-1.897l0.301-1.277H22.805z"/>
		<path fill="#FFFFFF" d="M24.791,27.534c0.188,0,0.35-0.014,0.491-0.042c0.141-0.028,0.263-0.063,0.366-0.106
			c0.103-0.043,0.191-0.09,0.265-0.141c0.074-0.052,0.141-0.099,0.199-0.141c0.06-0.045,0.114-0.08,0.165-0.107
			s0.103-0.042,0.158-0.042c0.054,0,0.098,0.009,0.132,0.027c0.034,0.018,0.058,0.039,0.072,0.062l0.508,0.68
			c-0.363,0.373-0.777,0.656-1.241,0.849c-0.465,0.192-0.979,0.291-1.544,0.291c-0.469,0-0.876-0.08-1.222-0.241
			c-0.344-0.158-0.626-0.38-0.843-0.66c-0.218-0.279-0.369-0.613-0.456-0.998c-0.087-0.386-0.105-0.801-0.057-1.246
			c0.044-0.414,0.135-0.805,0.27-1.174c0.137-0.369,0.308-0.712,0.515-1.025s0.445-0.596,0.717-0.848
			c0.27-0.25,0.562-0.463,0.877-0.639c0.314-0.175,0.647-0.311,0.998-0.402c0.35-0.096,0.71-0.143,1.081-0.143
			c0.279,0,0.53,0.025,0.754,0.077s0.423,0.122,0.599,0.213c0.177,0.091,0.33,0.198,0.462,0.323
			c0.134,0.127,0.246,0.266,0.339,0.416l-0.652,0.654c-0.046,0.047-0.098,0.088-0.157,0.125c-0.058,0.034-0.131,0.053-0.22,0.053
			c-0.058,0-0.109-0.012-0.154-0.039c-0.045-0.025-0.089-0.06-0.135-0.096c-0.045-0.039-0.096-0.08-0.151-0.127
			c-0.057-0.047-0.125-0.089-0.206-0.127c-0.081-0.037-0.178-0.07-0.293-0.097c-0.113-0.024-0.251-0.039-0.41-0.039
			c-0.313,0-0.611,0.063-0.896,0.192s-0.539,0.312-0.763,0.553c-0.226,0.238-0.412,0.529-0.562,0.871
			c-0.148,0.342-0.248,0.724-0.293,1.146c-0.033,0.307-0.023,0.58,0.026,0.821s0.132,0.444,0.248,0.612
			c0.113,0.166,0.259,0.293,0.433,0.381S24.576,27.534,24.791,27.534z"/>
		<path fill="#FFFFFF" d="M33.479,28.782h-1.673l0.72-3.07h-2.683l-0.72,3.07H27.45l1.699-7.215h1.673l-0.717,3.045h2.683
			l0.717-3.045h1.672L33.479,28.782z"/>
		<path fill="#FFFFFF" d="M39.887,27.534c0.187,0,0.351-0.014,0.491-0.042s0.262-0.063,0.365-0.106
			c0.103-0.043,0.193-0.09,0.266-0.141c0.074-0.052,0.141-0.099,0.199-0.141c0.059-0.045,0.113-0.08,0.164-0.107
			s0.104-0.042,0.158-0.042c0.054,0,0.098,0.009,0.132,0.027c0.034,0.018,0.058,0.039,0.073,0.062l0.506,0.68
			c-0.362,0.373-0.775,0.656-1.24,0.849s-0.979,0.291-1.544,0.291c-0.47,0-0.876-0.08-1.221-0.241
			c-0.344-0.158-0.626-0.38-0.843-0.66c-0.219-0.279-0.369-0.613-0.456-0.998c-0.086-0.385-0.105-0.8-0.058-1.246
			c0.044-0.412,0.135-0.804,0.271-1.174c0.136-0.369,0.307-0.711,0.514-1.023c0.207-0.314,0.446-0.596,0.717-0.848
			c0.271-0.25,0.562-0.463,0.877-0.64c0.313-0.175,0.647-0.31,0.997-0.403c0.352-0.095,0.711-0.142,1.081-0.142
			c0.278,0,0.53,0.024,0.755,0.077c0.225,0.052,0.423,0.122,0.6,0.213c0.176,0.091,0.33,0.199,0.461,0.324
			c0.133,0.125,0.246,0.265,0.338,0.416l-0.651,0.652c-0.045,0.047-0.099,0.088-0.156,0.125c-0.058,0.035-0.131,0.055-0.22,0.055
			c-0.059,0-0.109-0.014-0.154-0.041c-0.045-0.024-0.089-0.059-0.135-0.096c-0.045-0.039-0.098-0.08-0.15-0.127
			c-0.058-0.046-0.125-0.088-0.207-0.125c-0.08-0.039-0.179-0.07-0.293-0.098c-0.113-0.025-0.252-0.039-0.41-0.039
			c-0.313,0-0.611,0.064-0.896,0.191c-0.284,0.13-0.538,0.313-0.762,0.554c-0.227,0.239-0.412,0.528-0.562,0.871
			c-0.15,0.342-0.246,0.724-0.294,1.147c-0.032,0.307-0.022,0.58,0.027,0.82c0.05,0.241,0.132,0.445,0.247,0.612
			c0.113,0.166,0.259,0.293,0.433,0.381C39.479,27.491,39.672,27.534,39.887,27.534z"/>
		<path fill="#FFFFFF" d="M48.374,22.81h-2.75l-0.412,1.744h2.105l-0.293,1.197h-2.097l-0.418,1.787h2.771l-0.299,1.243h-4.437
			l1.699-7.215h4.426L48.374,22.81z"/>
		<path fill="#FFFFFF" d="M50.585,21.574c0.049,0.005,0.092,0.017,0.129,0.034c0.037,0.02,0.068,0.045,0.096,0.076
			c0.027,0.033,0.055,0.076,0.078,0.13l2.124,4.457c0.019-0.115,0.041-0.226,0.065-0.332c0.025-0.104,0.049-0.204,0.068-0.298
			l0.94-4.074h1.469l-1.698,7.215h-0.867c-0.129,0-0.234-0.018-0.314-0.055c-0.082-0.035-0.146-0.107-0.197-0.213l-2.113-4.451
			c-0.018,0.092-0.034,0.182-0.051,0.268c-0.02,0.086-0.035,0.166-0.051,0.242l-0.965,4.209h-1.469l1.699-7.215h0.877
			C50.476,21.567,50.536,21.569,50.585,21.574z"/>
		<path fill="#FFFFFF" d="M61.636,21.567l-0.312,1.277h-1.887l-1.397,5.938h-1.652l1.39-5.938h-1.897l0.302-1.277H61.636z"/>
		<path fill="#FFFFFF" d="M72.75,22.81h-2.748l-0.414,1.744h2.107l-0.293,1.197h-2.098l-0.416,1.787h2.768l-0.297,1.243h-4.438
			l1.699-7.215h4.429L72.75,22.81z"/>
		<path fill="#FFFFFF" d="M62.908,26.089l-0.634,2.693h-1.652l1.689-7.215h2.254c0.455,0,0.839,0.047,1.15,0.141
			c0.311,0.094,0.559,0.225,0.745,0.389c0.187,0.166,0.312,0.361,0.384,0.588c0.067,0.227,0.088,0.472,0.06,0.734
			c-0.028,0.269-0.093,0.521-0.191,0.758c-0.098,0.238-0.229,0.457-0.39,0.656s-0.352,0.376-0.57,0.529
			c-0.219,0.154-0.463,0.279-0.732,0.379c0.099,0.057,0.187,0.124,0.268,0.203c0.081,0.08,0.143,0.179,0.18,0.298l0.807,2.54h-1.498
			c-0.141,0-0.254-0.025-0.344-0.079c-0.09-0.053-0.148-0.128-0.174-0.228l-0.576-2.135c-0.027-0.093-0.07-0.158-0.129-0.195
			c-0.06-0.039-0.149-0.057-0.271-0.057H62.908L62.908,26.089z M63.69,22.771l-0.521,2.203h0.607c0.237,0,0.442-0.035,0.618-0.105
			c0.175-0.072,0.32-0.166,0.437-0.285c0.117-0.119,0.207-0.258,0.271-0.416c0.062-0.158,0.104-0.324,0.123-0.5
			c0.014-0.136,0.006-0.258-0.021-0.369c-0.027-0.11-0.082-0.205-0.16-0.283c-0.078-0.076-0.181-0.137-0.307-0.18
			c-0.127-0.043-0.278-0.063-0.455-0.063L63.69,22.771L63.69,22.771z"/>
	</g>
</g>
</svg>
