<?xml version="1.0" encoding="utf-8"?>
<!-- Generator: Adobe Illustrator 27.0.0, SVG Export Plug-In . SVG Version: 6.00 Build 0)  -->
<svg version="1.1" id="Layer_1" xmlns="http://www.w3.org/2000/svg" xmlns:xlink="http://www.w3.org/1999/xlink" x="0px" y="0px"
	 viewBox="0 0 524.88 207.16" style="enable-background:new 0 0 524.88 207.16;" xml:space="preserve">
<style type="text/css">
	.st0{fill:none;}
	.st1{fill:#FFFFFF;}
	.st2{fill:#DB0011;}
</style>
<g>
	<rect y="0" class="st0" width="524.88" height="207.16"/>
	<g>
		<rect x="411.36" y="82.94" class="st1" width="41.29" height="41.29"/>
		<polygon class="st2" points="473.29,103.58 452.65,82.94 452.65,124.22 		"/>
		<polygon class="st2" points="432.01,103.58 452.65,82.94 411.36,82.94 		"/>
		<polygon class="st2" points="390.72,103.58 411.36,124.22 411.36,82.94 		"/>
		<polygon class="st2" points="432.01,103.58 411.36,124.22 452.65,124.22 		"/>
		<g>
			<g>
				<path class="st2" d="M345.67,82.19h-14.89h-0.75h-2.59c-3.26,0-4.07,2.36-4.07,2.36l-3.5,8.46h-0.07l-0.9-10.82h-5.51
					c-2.64,0-3.71,2.45-3.71,2.45l-4.19,8.37h-0.07l-0.03-10.82h-3.73c-2.48,0-3.01,1.36-3.12,2.13c-0.71-1.4-2.69-2.13-6.2-2.13
					h-8.86c-2.87,0-3.13,2.18-3.13,2.18l-3.24,15.14h12.54c3.67,0,4.85-0.38,6.17-1.34c0.89-0.65,1.62-1.78,1.9-3.12
					c0.61-2.97-1.45-4.15-3.82-4.3V90.7c2.16-0.5,3.98-1.47,4.66-3.42l0.27,12.22h5.99c3.43,0,4.69-3.18,4.69-3.18l3.66-7.35h0.08
					l0.84,10.53h5.34c3.87,0,5.19-3.42,5.19-3.42l4.7-10.68l-2.94,14.1h3.19c4.13,0,4.67-3.35,4.67-3.35l0.64-3.07h4.58
					c3.53,0,4.04-2.74,4.04-2.74l0.19-0.91h-8.06l0.75-3.6h5.06c3.46,0,3.95-2.61,3.95-2.61L345.67,82.19z M286.44,89.2l0.8-3.79
					h2.1c2.24,0,2.61,0.66,2.36,1.89c-0.23,1.15-1.06,1.9-3.13,1.9H286.44z M284.93,96.44l0.87-4.17h2.12
					c2.48,0,3.23,0.65,2.94,2.08c-0.31,1.44-1.35,2.09-3.81,2.09H284.93z"/>
				<polygon class="st1" points="217.58,92.13 210.09,92.13 210.09,99.52 206.34,99.52 206.34,82.22 210.09,82.22 210.09,89.31 
					217.58,89.31 217.58,82.22 221.34,82.22 221.34,99.52 217.58,99.52 				"/>
				<path class="st1" d="M230.33,99.83c-3.73,0-6.79-1.48-6.87-5.62h3.76c0.05,1.84,1.12,2.94,3.18,2.94c1.53,0,3.25-0.77,3.25-2.49
					c0-1.34-1.17-1.77-3.11-2.32l-1.25-0.36c-2.73-0.79-5.43-1.84-5.43-4.95c0-3.85,3.59-5.14,6.87-5.14c3.37,0,6.27,1.17,6.29,5
					h-3.76c-0.14-1.58-1.05-2.49-2.82-2.49c-1.39,0-2.78,0.74-2.78,2.27c0,1.27,1.15,1.65,3.59,2.42l1.43,0.46
					c2.97,0.93,4.83,1.96,4.83,4.83C237.53,98.32,233.73,99.83,230.33,99.83"/>
				<path class="st1" d="M239.65,82.22h6c1.89,0,2.66,0.05,3.4,0.22c2.11,0.48,3.69,1.84,3.69,4.16c0,2.23-1.41,3.37-3.45,3.9
					c2.34,0.43,4.07,1.63,4.07,4.19c0,3.92-3.87,4.83-6.91,4.83h-6.79V82.22z M245.68,89.43c1.65,0,3.32-0.33,3.32-2.34
					c0-1.79-1.58-2.27-3.09-2.27h-2.63v4.62H245.68z M246.04,96.94c1.75,0,3.47-0.41,3.47-2.51c0-2.06-1.48-2.54-3.25-2.54h-2.97
					v5.05H246.04z"/>
				<path class="st1" d="M263.15,99.83c-5.57,0-8.09-3.57-8.09-8.83c0-5.21,2.78-9.12,8.28-9.12c3.45,0,6.8,1.53,6.89,5.46h-3.88
					c-0.19-1.72-1.34-2.63-3.02-2.63c-3.37,0-4.4,3.64-4.4,6.41c0,2.75,1.03,5.96,4.28,5.96c1.7,0,2.94-0.91,3.21-2.66h3.9
					C269.89,98.35,266.74,99.83,263.15,99.83"/>
			</g>
			<g>
				<path class="st1" d="M195.54,124.96l-3.92-14.38l-3.99,14.38h-4.6l-4.91-17.59h4.01l3.41,14.35l3.89-14.35h4.62l3.79,14.35
					l3.33-14.35h3.75l-4.79,17.59H195.54z"/>
				<path class="st1" d="M210.51,125.25c-4.09,0-6.64-2.34-6.64-6.47c0-4.09,2.75-6.42,6.74-6.42c4.04,0,6.59,2.33,6.59,6.42
					C217.2,122.87,214.55,125.25,210.51,125.25z M210.51,114.5c-2.38,0-2.94,2.34-2.94,4.31c0,1.94,0.56,4.33,2.94,4.33
					c2.36,0,2.99-2.38,2.99-4.33C213.51,116.83,212.87,114.5,210.51,114.5z"/>
				<path class="st1" d="M225.59,115.66c-2.29,0-3.19,1.31-3.19,3.5v5.79h-3.55v-9.27c0-0.97-0.1-1.97-0.1-2.99h3.43l0.1,2.26
					c0.8-1.61,2.02-2.34,3.79-2.34c0.19,0,0.37,0,0.58,0.02v3.09C226.27,115.69,225.93,115.66,225.59,115.66z"/>
				<path class="st1" d="M228.17,107.37h3.55v17.59h-3.55V107.37z"/>
				<path class="st1" d="M242.64,123.33c-1.09,1.29-2.09,1.87-3.82,1.87c-3.75,0-5.43-2.94-5.43-6.35c0-3.09,1.51-6.45,5.3-6.45
					c1.7,0,2.92,0.51,3.96,1.85v-6.88h3.55v14.3c0,1.07,0,2.19,0.1,3.28h-3.58L242.64,123.33z M239.72,114.64
					c-2.19,0-2.7,2.26-2.7,4.06c0,1.95,0.51,4.21,2.9,4.21c2.19,0,2.82-2.36,2.82-4.14C242.74,116.86,241.98,114.64,239.72,114.64z"
					/>
				<path class="st1" d="M262.12,124.96h-3.82v-14.79h-5.5v-2.8h14.81v2.8h-5.5V124.96z"/>
				<path class="st1" d="M271.96,125.25c-4.09,0-6.64-2.34-6.64-6.47c0-4.09,2.75-6.42,6.74-6.42c4.04,0,6.59,2.33,6.59,6.42
					C278.65,122.87,276,125.25,271.96,125.25z M271.96,114.5c-2.38,0-2.94,2.34-2.94,4.31c0,1.94,0.56,4.33,2.94,4.33
					c2.36,0,2.99-2.38,2.99-4.33C274.96,116.83,274.32,114.5,271.96,114.5z"/>
				<path class="st1" d="M288.72,123.08c-1.09,1.41-2.21,2.07-4.01,2.07c-3.02,0-4.48-1.58-4.48-4.53v-7.93h3.55v6.52
					c0,1.7,0.07,3.58,2.29,3.58c2.21,0,2.63-1.97,2.63-3.75v-6.35h3.55v7.73c0,1.51,0,2.99,0.07,4.53h-3.55L288.72,123.08z"/>
				<path class="st1" d="M301,115.66c-2.29,0-3.19,1.31-3.19,3.5v5.79h-3.55v-9.27c0-0.97-0.1-1.97-0.1-2.99h3.43l0.1,2.26
					c0.8-1.61,2.02-2.34,3.8-2.34c0.19,0,0.36,0,0.58,0.02v3.09C301.68,115.69,301.34,115.66,301,115.66z"/>
				<path class="st1" d="M313.79,114.79h7.39v2.7h-7.39v7.47h-3.75v-17.59h11.6v2.72h-7.86V114.79z"/>
				<path class="st1" d="M323.64,107.37h3.7v2.82h-3.7V107.37z M323.71,112.67h3.55v12.28h-3.55V112.67z"/>
				<path class="st1" d="M337.69,118.46c0-1.7-0.12-3.58-2.31-3.58c-2.24,0-2.58,2.51-2.58,3.89v6.18h-3.55v-9.85
					c0-0.78-0.03-1.58-0.1-2.41h3.53l0.05,1.87c1.1-1.41,2.24-2.07,4.04-2.07c2.99,0,4.48,1.6,4.48,4.53v7.93h-3.55V118.46z"/>
				<path class="st1" d="M350.95,123.28c-1,1.46-2.19,1.92-3.92,1.92c-2.38,0-4.28-1.17-4.28-3.75c0-3.82,4.35-4.16,7.2-4.16h1
					v-0.46c0-1.29-0.27-2.55-1.85-2.55c-1.36,0-1.9,0.78-1.9,1.92h-3.62c0.05-3.02,2.9-3.87,5.47-3.87c3.31,0,5.35,0.76,5.35,4.77
					v3.65c0,1.39,0,2.77,0.19,4.21h-3.36C351.04,124.4,350.97,123.86,350.95,123.28z M350.95,119.02c-0.34,0-0.58-0.02-0.92-0.02
					c-1.51,0-3.77,0.34-3.77,2.26c0,1.12,0.92,1.83,2,1.83c2.29,0,2.7-1.99,2.7-3.84V119.02z"/>
				<path class="st1" d="M356.73,107.37h3.55v17.59h-3.55V107.37z"/>
				<path class="st1" d="M367.48,125.27c-2.9,0-5.5-0.88-5.5-4.23h3.58c0.05,1.41,0.63,2.19,2.09,2.19c0.97,0,2.02-0.56,2.02-1.63
					c0-0.92-0.88-1.39-2.33-1.73l-1.34-0.32c-1.83-0.44-3.67-1.17-3.67-3.45c0-2.92,2.92-3.72,5.26-3.72c2.7,0,5.13,0.95,5.3,3.96
					h-3.48c-0.05-1.17-0.68-1.97-1.87-1.97c-0.85,0-1.85,0.39-1.85,1.36c0,0.92,0.88,1.31,2.36,1.65l1.39,0.32
					c1.9,0.44,3.82,1.19,3.82,3.53C373.25,124.42,370.11,125.27,367.48,125.27z"/>
			</g>
		</g>
		<g>
			<g>
				<g>
					<path class="st2" d="M98.74,64.79L98.74,64.79c-0.47,0.19-1.06,0.44-1.75,0.78c-3.18-4.4-12.54-12.35-12.54-12.35
						c-11.41,5.06-18,12.59-18,12.59c9.63,2.42,19.13,6.98,19.13,6.98c1.03-0.84,1.98-1.58,2.86-2.24c0.48,0.29,2.92,1.96,6.07,4.28
						c1.15-1.26,4.34-4.13,8.37-5.91c-0.07-0.15-0.81-1.7-2.9-4.58C99.49,64.51,99.02,64.68,98.74,64.79L98.74,64.79z"/>
				</g>
				<g>
					<path class="st2" d="M88.88,83.72c-5.55-1.54-9.63-1.93-9.63-1.93c-0.24,0.41-0.57,0.96-0.9,1.5c-0.6,1-1.18,1.96-1.16,1.93
						c0,0-8.61-0.54-23.23,2.11c0,0-4,11.65-1.63,25.93c0,0,10.22-8.16,23.11-13.33c0,0-0.27-1.42-0.17-3.89
						c6.82-1.95,11.46-2.5,11.89-2.55C87.08,90.64,87.67,86.8,88.88,83.72z"/>
				</g>
				<g>
					<path class="st2" d="M89.47,103.92c-0.08,0.04-5.89,3.16-10.02,6.83l0.75,1.36c0.33,0.59,0.67,1.14,1.03,1.68
						c-1.16,1.13-9.14,8.88-15.75,20.02c0,0,0.75,0.86,2.19,2.17c0.55,0.5,1.19,1.06,1.94,1.67l-2.13,4.65
						c11.56,11.69,22.38,13.92,22.38,13.92l0.54-8.35c-3.06-0.6-4.95-1.18-4.95-1.19c0,0,0.96-9.91,6.87-23.54
						c0,0-1.22-0.39-3.19-1.69c0.1-0.16,3.94-6.59,6-9.43C92.66,109.61,90.56,106.76,89.47,103.92z"/>
				</g>
				<g>
					<path class="st2" d="M129.8,139.33c-1.09,0.88-2.3,1.68-3.55,2.41c-0.16-0.26-4.75-7.66-8.06-18c0,0-1.04,0.42-2.98,0.92
						c-0.14-0.67-0.76-3.8-0.97-5.06c-2.79,0.18-7.65-0.74-9.64-1.57c-0.05,0.16-1.29,4.55-1.6,7.7l0,0c0,0,0.25,0.03,0.68,0.07
						c0.3,0.03,0.59,0.05,0.83,0.06c0.03,0,1.01,0.05,1.55,0.07c-0.05,0.53-0.98,10.18,1.46,21.82c0,0,0.98-0.14,1.38-0.2
						c0.16-0.03,0.33-0.05,0.5-0.08c1.05-0.17,2.19-0.37,2.62-0.47c1.41,4.96,3.37,10.83,3.37,10.83
						c11.9-1.53,21.89-8.93,21.89-8.93C134.43,145.85,129.8,139.33,129.8,139.33z"/>
				</g>
				<g>
					<path class="st2" d="M161.11,100.39c-0.32-9.04-3.82-17.29-3.82-17.29c-7.82,3.64-12.97,5.15-12.97,5.15
						c0.34,0.91,0.62,1.93,0.87,2.99l-5.08,0.91c0.12,2.36-0.43,7.45-1.71,10.39c2.94,0.79,8.31,1.61,8.31,1.61
						c0.01-0.56,0.01-1.1,0-1.62c-0.01-0.62-0.03-1.22-0.06-1.8C152.75,101.27,161.11,100.39,161.11,100.39z"/>
				</g>
				<g>
					<path class="st2" d="M136.51,57.75c0,0-2.21,5.98-5.3,11.44l2.27,1.88l-1.86,2.59c2.07,1.85,4.73,5.25,6.08,8.35
						c0.4-0.24,0.98-0.62,1.43-0.9c0.86-0.52,1.58-0.97,1.58-0.97c-0.18-0.31-0.35-0.61-0.52-0.9c-0.31-0.53-0.62-1.03-0.97-1.54
						c0.15-0.13,4.51-3.85,9.5-9.02C148.71,68.68,143.96,62.45,136.51,57.75z"/>
				</g>
				<g>
					<path class="st2" d="M122.85,68.27l0.84-3.41l0,0c0,0-0.3-0.13-0.82-0.32c-0.01,0-0.01,0-0.02-0.01c-0.49-0.19-1.18-0.43-2-0.7
						c0.09-0.78,0.79-7.36,0.47-13.04c0,0-6.7-2.58-17.69-2.05c0,0,3.12,6.15,5.27,13.63c0,0,1.08-0.14,3.19,0.01
						c0.1,0.48,0.45,2.38,0.66,4.26C116.4,66.47,119.36,67.07,122.85,68.27z"/>
				</g>
				<path class="st2" d="M146.32,111.16c-0.1,1.04-0.35,2.19-0.68,3.37c-0.04-0.02-5.64-2.31-10.91-5.41
					c-2.65,3.48-6.13,6.28-10.15,8.11c0.56,0.92,1.6,2.57,1.6,2.57c0.4-0.29,0.81-0.61,1.17-0.91c0.69-0.56,1.21-1.04,1.2-1.03
					c0,0,3.34,4.44,10.58,10.95c0,0,0.01-0.02,0.02-0.02c0.3-0.42,0.58-0.81,0.75-1.05c0.01-0.01,0.02-0.03,0.03-0.04
					c0.32-0.47,0.71-1.08,1.16-1.83c6.04,4.53,11.54,7.55,11.54,7.55c6.21-9.72,7.59-18.88,7.59-18.88
					C153.37,113.37,146.32,111.16,146.32,111.16z"/>
			</g>
			<g>
				<g>
					<g>
						<path class="st1" d="M89.43,82.2c0.38-0.83,0.79-1.63,1.25-2.41c-1.32-0.61-4.24-1.86-8.32-3.04c0,0-1.21,1.74-2.04,3.19
							c-0.74-0.14-11.94-2.23-22.56-1.5c0,0-1.39,2.58-2.61,5.84c12.83-1.7,21.32-1.15,23.2-0.98l0,0c0.33-0.54,0.65-1.1,0.9-1.5
							c0.42-0.76,0.66-1.17,1.08-1.86C80.69,79.99,84.59,80.67,89.43,82.2z"/>
					</g>
					<path class="st1" d="M65.46,133.81L65.46,133.81c-1.31-1.34-2.09-2.31-2.09-2.31c6.95-10.48,15.98-18.65,16.82-19.4l-0.75-1.36
						c-0.4-0.78-0.78-1.6-0.78-1.6c3.57-2.89,8.57-5.6,10.21-6.46c-0.32-0.83-0.6-1.68-0.84-2.55c-0.95,0.38-2.84,1.16-4.71,2.08
						c-2.64,1.28-6.15,3.28-6.15,3.28c0.38,1.11,0.77,2.13,1.5,3.66c-8.43,6.17-16.67,14.81-20.54,20.09
						c2.4,4.66,5.47,8.53,7.42,10.76l2.12-4.02c0,0,0,0,0,0C66.21,134.68,65.46,133.81,65.46,133.81z"/>
					<g>
						<path class="st1" d="M104.52,125.85c-0.24-0.01-0.53-0.04-0.83-0.06c-0.43-0.04-0.68-0.07-0.68-0.07l0,0
							c-0.94-0.1-1.83-0.21-1.88-0.22c-0.04,0.19-2.27,10-1.83,22.79c0,0,2.71,0.08,5.46-0.22
							C103.12,136.96,104.32,127.3,104.52,125.85z"/>
						<path class="st1" d="M100.67,116.29c-0.59,1.51-2.24,5.76-3,8.46c0,0,2.02,0.56,3.46,0.74c0.36-2.57,1.56-6.55,2.01-7.97
							C102.29,117.16,101.47,116.74,100.67,116.29z"/>
						<g>
							<path class="st1" d="M112.06,158.08c0,0-1.55-5.74-2.65-10.64c-0.17,0.03-0.34,0.06-0.5,0.08c-0.4,0.06-1.38,0.2-1.38,0.2
								c-1.07,0.16-2.2,0.29-2.78,0.32c0,0,0.95,7.13,1.77,10.44c0,0,2.87-0.06,5.56-0.32L112.06,158.08z"/>
						</g>
					</g>
					<path class="st1" d="M120.96,118.67c0.3,0.67,1.11,2.49,1.49,3.42c0,0,1.1-0.51,2.62-1.46c-0.07-0.13-1.18-2.13-1.55-2.83
						C122.68,118.13,121.83,118.42,120.96,118.67z"/>
					<g>
						<path class="st1" d="M125.07,120.62c0.09,0.15,4.12,7.32,9.79,13.68c0,0,1.49-1.6,2.82-3.47
							c-6.31-6.37-9.84-11.22-10.33-11.93c-0.36,0.3-0.77,0.62-1.17,0.91C125.82,120.08,125.44,120.35,125.07,120.62z"/>
					</g>
					<path class="st1" d="M136.79,106.15c5.1,2.14,9.61,3.42,9.61,3.42c0.27-2.08,0.28-3.62,0.28-3.62s-6.01-1.24-8.68-2.2
						C137.63,104.58,137.23,105.38,136.79,106.15z"/>
					<g>
						<g>
							<path class="st1" d="M146.7,102.53c0.01,0.52,0.01,1.06,0,1.62c0.01,0.59,0,1.17-0.04,1.8c7.8,1.53,14.59,1.69,14.59,1.69
								c0.14-1.47,0.16-4.76,0.16-4.79C160.64,102.9,152.47,103.31,146.7,102.53z"/>
						</g>
					</g>
					<g>
						<g>
							<path class="st1" d="M150.47,70.62c-5.09,4.77-10.03,8.43-10.29,8.63c0.17,0.29,0.34,0.59,0.52,0.9
								c0.32,0.54,0.65,1.11,0.95,1.69c0,0,5.92-3.36,11.22-7.72C152.88,74.12,151.96,72.57,150.47,70.62z"/>
						</g>
						<g>
							<path class="st1" d="M138.46,83.64c0.32,0.83,0.6,1.68,0.83,2.56c0.45-0.18,2.45-0.99,3.68-1.58c0,0-0.6-1.47-1.31-2.78
								L138.46,83.64z"/>
						</g>
					</g>
					<path class="st1" d="M125.62,65.67l-0.96,3.28c0.82,0.37,1.61,0.79,2.38,1.24c0.23-0.5,0.74-1.73,1.29-3.15
						C128.33,67.05,126.82,66.16,125.62,65.67z"/>
					<g>
						<g>
							<path class="st1" d="M123.95,51.45c0.05,5.66-1.09,13.08-1.1,13.08c0,0,0.01,0,0.01,0c0.52,0.2,0.82,0.32,0.82,0.32l0,0
								c0.01,0,1.83,0.75,1.93,0.8c0.17-0.59,1.71-6.13,2.41-12.64C128.03,53.03,125.86,52.13,123.95,51.45z"/>
						</g>
					</g>
					<g>
						<path class="st1" d="M104.98,62.9c-0.84,0.18-3.16,0.81-3.16,0.81c-4.34-7.35-9.8-13.14-9.8-13.14
							c-2.58,0.7-4.51,1.46-4.97,1.65c0.62,0.57,8.81,8.2,11.69,12.57l0,0c0.28-0.11,0.75-0.28,1.24-0.45
							c0.89-0.31,1.84-0.63,1.84-0.63c1.4,2.13,2.21,3.7,2.61,4.5c0.84-0.31,1.7-0.58,2.58-0.81
							C106.26,65.53,104.98,62.9,104.98,62.9z"/>
					</g>
				</g>
				<g>
					<path class="st1" d="M139.15,128.79c-0.01,0.01-0.02,0.02-0.02,0.02c-0.66,0.94-1.45,2-1.45,2.01c0.1,0.1,5.17,5.15,10.18,8.8
						c0,0,1.45-1.69,3.05-3.84c-0.57-0.36-5.64-3.59-10.99-8.08c-0.01,0.01-0.02,0.03-0.03,0.04
						C139.73,127.98,139.45,128.37,139.15,128.79z"/>
				</g>
			</g>
			
				<ellipse transform="matrix(0.9966 -0.0825 0.0825 0.9966 -7.2913 9.6973)" class="st1" cx="113.73" cy="93.1" rx="22.83" ry="22.83"/>
		</g>
	</g>
</g>
</svg>
