<?xml version="1.0" encoding="utf-8"?>
<!-- Generator: Adobe Illustrator 16.0.0, SVG Export Plug-In . SVG Version: 6.00 Build 0)  -->
<!DOCTYPE svg PUBLIC "-//W3C//DTD SVG 1.1//EN" "http://www.w3.org/Graphics/SVG/1.1/DTD/svg11.dtd">
<svg version="1.1" id="Layer_1" xmlns="http://www.w3.org/2000/svg" xmlns:xlink="http://www.w3.org/1999/xlink" x="0px" y="0px"
	 width="300px" height="100px" viewBox="0 0 300 100" enable-background="new 0 0 300 100" xml:space="preserve">
<g>
	<rect x="250.052" y="34.252" fill="#FFFFFF" width="31.301" height="31.302"/>
	<g>
		<g>
			<polygon fill="#DB0011" points="297,49.902 281.353,34.252 281.353,65.554 			"/>
			<polygon fill="#DB0011" points="265.702,49.902 281.353,34.252 250.052,34.252 			"/>
			<polygon fill="#DB0011" points="234.466,49.902 250.052,65.554 250.052,34.252 			"/>
			<polygon fill="#DB0011" points="265.702,49.902 250.052,65.554 281.353,65.554 			"/>
		</g>
		<g>
			<g>
				<path fill="#DB0011" d="M227.815,21.082h-13.238h-0.649h-2.283c-2.935,0-3.651,2.086-3.651,2.086l-3.132,7.497h-0.064
					l-0.786-9.649h-4.891c-2.344,0-3.323,2.152-3.323,2.152l-3.713,7.566h-0.073v-9.652h-3.32c-2.217,0-2.675,1.238-2.807,1.893
					c-0.646-1.241-2.408-1.893-5.538-1.893h-7.896c-2.542,0-2.806,1.955-2.806,1.955l-2.87,13.498h11.154
					c3.264,0,4.302-0.325,5.476-1.172c0.784-0.588,1.436-1.566,1.697-2.805c0.523-2.672-1.302-3.715-3.394-3.845v-0.068
					c1.895-0.456,3.529-1.304,4.176-3.062l0.265,10.89h5.347c3.063,0,4.173-2.806,4.173-2.806l3.255-6.52h0.073l0.777,9.388h4.763
					c3.457,0,4.629-3.063,4.629-3.063l4.176-9.521l-2.609,12.583h2.87c3.648,0,4.172-3,4.172-3l0.585-2.738h4.106
					c3.13,0,3.591-2.414,3.591-2.414l0.199-0.781h-7.174l0.649-3.193h4.502c3.06,0,3.52-2.35,3.52-2.35L227.815,21.082z
					 M175.058,27.339l0.722-3.389h1.886c2.022,0,2.356,0.588,2.094,1.694c-0.198,1.046-0.919,1.695-2.805,1.695H175.058z
					 M173.758,33.796l0.779-3.717h1.892c2.222,0,2.87,0.585,2.608,1.826c-0.262,1.304-1.173,1.891-3.393,1.891H173.758z"/>
				<g>
					<g>
						<path fill="#FFFFFF" d="M113.765,29.947h-6.653v6.587h-3.325V21.082h3.325v6.328h6.653v-6.328h3.325v15.39h-3.325V29.947z"/>
						<path fill="#FFFFFF" d="M125.112,36.796c-3.329,0-6.067-1.304-6.13-5.022h3.324c0.064,1.63,0.979,2.609,2.806,2.609
							c1.367,0,2.869-0.65,2.869-2.215c0-1.173-1.047-1.566-2.741-2.088l-1.108-0.325c-2.413-0.718-4.827-1.63-4.827-4.435
							c0-3.456,3.195-4.566,6.131-4.566c2.999,0,5.608,1.043,5.608,4.436h-3.326c-0.131-1.436-0.916-2.215-2.544-2.215
							c-1.241,0-2.477,0.649-2.477,2.02c0,1.109,1.042,1.499,3.195,2.152l1.304,0.391c2.674,0.846,4.303,1.761,4.303,4.303
							C131.5,35.424,128.11,36.796,125.112,36.796z"/>
						<path fill="#FFFFFF" d="M133.39,21.082h5.351c1.692,0,2.347,0.065,2.996,0.195c1.896,0.456,3.261,1.628,3.261,3.717
							c0,1.955-1.234,3.001-3.062,3.457c2.083,0.392,3.65,1.435,3.65,3.718c0,3.518-3.456,4.304-6.128,4.304h-6.068V21.082z
							 M138.804,27.537c1.498,0,2.933-0.328,2.933-2.085c0-1.566-1.435-2.022-2.737-2.022h-2.347v4.107H138.804L138.804,27.537z
							 M139.128,34.189c1.565,0,3.067-0.393,3.067-2.221c0-1.822-1.303-2.279-2.868-2.279h-2.676v4.5H139.128z"/>
						<path fill="#FFFFFF" d="M154.322,36.796c-4.953,0-7.172-3.194-7.172-7.89c0-4.63,2.476-8.085,7.371-8.085
							c3.061,0,6.064,1.367,6.127,4.823h-3.456c-0.198-1.566-1.173-2.346-2.671-2.346c-3.001,0-3.916,3.26-3.916,5.738
							c0,2.477,0.915,5.283,3.782,5.283c1.506,0,2.606-0.786,2.869-2.352h3.454C160.321,35.493,157.517,36.796,154.322,36.796z"/>
					</g>
				</g>
			</g>
			<g>
				<path fill="#FFFFFF" d="M118.394,43.446h3.781l2.738,11.675h0.067l2.478-11.675h3.194l-3.978,15.52h-3.716l-2.806-11.864h-0.062
					l-3,11.864h-3.785l-3.781-15.52h3.457l2.415,11.675h0.062L118.394,43.446z"/>
				<path fill="#FFFFFF" d="M136.129,59.29c-3.518,0-5.607-2.345-5.607-5.739c0-3.386,2.089-5.734,5.607-5.734
					c3.523,0,5.607,2.348,5.607,5.734C141.806,57.009,139.716,59.29,136.129,59.29z M136.129,57.144
					c1.958,0,2.283-1.821,2.283-3.593c0-1.754-0.325-3.581-2.283-3.581c-1.954,0-2.281,1.827-2.281,3.581
					C133.848,55.322,134.175,57.144,136.129,57.144z"/>
				<path fill="#FFFFFF" d="M146.37,48.21l0.063,1.954h0.067c0.718-1.697,2.084-2.153,3.651-2.084v2.867h-1.369
					c-0.522,0.064-1.24,0.325-1.564,0.782c-0.33,0.585-0.393,1.174-0.461,1.894v5.343h-3.194v-8.672c0-0.456-0.063-1.365-0.13-2.15
					h2.937V48.21z"/>
				<path fill="#FFFFFF" d="M155.298,43.446v15.52h-3.257v-15.52H155.298z"/>
				<path fill="#FFFFFF" d="M165.476,43.446h3.194v13.373c0,0.712,0.063,1.432,0.13,2.146h-3.263
					c-0.062-0.522-0.062-1.037-0.062-1.498h-0.063c-0.721,1.237-1.893,1.822-3.328,1.822c-3.194,0-4.629-2.934-4.629-5.739
					c0-2.932,1.695-5.734,5.088-5.734c1.11,0,2.283,0.65,2.869,1.567h0.063V43.446L165.476,43.446z M163.194,57.144
					c1.758,0,2.343-2.084,2.343-3.593c0-1.498-0.585-3.581-2.343-3.581c-2.086,0-2.349,1.89-2.349,3.581
					C160.846,55.247,161.108,57.144,163.194,57.144z"/>
				<path fill="#FFFFFF" d="M173.497,43.446h12.587v2.612h-4.629v12.907h-3.327V45.99h-4.631V43.446L173.497,43.446z"/>
				<path fill="#FFFFFF" d="M190.515,59.29c-3.519,0-5.604-2.345-5.604-5.739c0-3.386,2.085-5.734,5.604-5.734
					c3.52,0,5.612,2.348,5.612,5.734C196.189,57.009,194.034,59.29,190.515,59.29z M190.515,57.144c1.958,0,2.283-1.821,2.283-3.593
					c0-1.754-0.325-3.581-2.283-3.581s-2.282,1.827-2.282,3.581C188.232,55.322,188.557,57.144,190.515,57.144z"/>
				<path fill="#FFFFFF" d="M205.121,57.666c-0.717,0.975-1.695,1.624-3.328,1.624c-1.038,0-3.125-0.847-3.52-2.408
					c-0.198-0.65-0.198-1.371-0.198-1.696v-7.042h3.268V54.6c0,1.173,0.324,2.48,1.957,2.48c1.038,0,1.886-0.921,1.952-2.48v-6.456
					h3.264v8.865c0,0.657,0.063,1.308,0.126,1.957h-3.196L205.121,57.666z"/>
				<path fill="#FFFFFF" d="M213.928,48.21l0.065,1.954h0.061c0.723-1.697,2.085-2.153,3.657-2.084v2.867h-1.375
					c-0.522,0.064-1.234,0.325-1.56,0.782c-0.331,0.585-0.397,1.174-0.461,1.894v5.343h-3.193v-8.672c0-0.456-0.062-1.365-0.13-2.15
					h2.936V48.21z"/>
			</g>
		</g>
	</g>
	<g>
		<g>
			<g>
				<path fill="#FFFFFF" d="M53.314,22.974c10.171,0,18.521,8.278,18.521,18.518c0,10.237-8.281,18.521-18.521,18.521
					c-10.172,0-18.519-8.284-18.519-18.521C34.795,31.252,43.077,22.974,53.314,22.974"/>
			</g>
		</g>
	</g>
	<g>
		<g>
			<path fill="#DB0011" d="M41.186,18.54L41.186,18.54c-0.392,0.13-0.848,0.389-1.435,0.649c-2.607-3.587-10.173-9.976-10.173-9.976
				c-9.259,4.107-14.606,10.173-14.606,10.173c7.825,1.955,15.52,5.671,15.52,5.671c0.848-0.649,1.63-1.304,2.348-1.825
				c0.392,0.26,2.347,1.562,4.892,3.458c0.911-1.046,3.521-3.329,6.78-4.764c-0.063-0.129-0.653-1.367-2.346-3.713
				C41.772,18.277,41.381,18.471,41.186,18.54L41.186,18.54z"/>
		</g>
		<g>
			<path fill="#DB0011" d="M33.164,33.864c-4.499-1.241-7.824-1.566-7.824-1.566c-0.196,0.325-0.458,0.781-0.719,1.236
				c-0.455,0.786-0.977,1.566-0.913,1.566c0,0-6.977-0.456-18.78,1.696c0,0-3.259,9.456-1.304,20.996c0,0,8.283-6.585,18.715-10.823
				c0,0-0.196-1.172-0.129-3.131c5.541-1.565,9.258-2.021,9.65-2.083C31.73,39.472,32.186,36.34,33.164,33.864z"/>
		</g>
		<g>
			<path fill="#DB0011" d="M33.621,50.232c-0.064,0.062-4.759,2.543-8.151,5.541l0.587,1.109c0.261,0.46,0.521,0.91,0.847,1.369
				c-0.912,0.912-7.369,7.177-12.781,16.232c0,0,0.586,0.723,1.761,1.762c0.457,0.396,0.977,0.848,1.565,1.371l-1.696,3.78
				c9.39,9.455,18.128,11.289,18.128,11.289l0.455-6.786c-2.476-0.46-4.041-0.975-4.041-0.975s0.783-8.022,5.543-19.049
				c0,0-0.978-0.322-2.609-1.36c0.065-0.138,3.195-5.353,4.891-7.634C36.229,54.86,34.534,52.514,33.621,50.232z"/>
		</g>
		<g>
			<path fill="#DB0011" d="M66.292,78.924c-0.914,0.713-1.891,1.371-2.868,1.959c-0.131-0.2-3.85-6.199-6.521-14.61
				c0,0-0.849,0.327-2.414,0.713c-0.129-0.523-0.585-3.06-0.783-4.104c-2.282,0.127-6.193-0.587-7.823-1.309
				c-0.067,0.136-1.045,3.717-1.305,6.263l0,0c0,0,0.196,0,0.521,0.062c0.263,0,0.458,0.072,0.654,0.072
				c0,0,0.848,0.064,1.239,0.064c-0.066,0.449-0.783,8.211,1.174,17.667c0,0,0.781-0.124,1.106-0.189
				c0.13,0,0.262-0.072,0.392-0.072c0.849-0.127,1.76-0.326,2.153-0.388c1.172,4.04,2.739,8.744,2.739,8.744
				c9.649-1.247,17.738-7.246,17.738-7.246C70.073,84.201,66.292,78.924,66.292,78.924z"/>
		</g>
		<g>
			<path fill="#DB0011" d="M91.657,47.362c-0.26-7.303-3.065-14.021-3.065-14.021c-6.326,2.932-10.498,4.172-10.498,4.172
				c0.261,0.718,0.523,1.566,0.718,2.415l-4.109,0.716c0.13,1.891-0.326,6.063-1.367,8.409c2.414,0.654,6.716,1.305,6.716,1.305
				c0-0.456,0-0.912,0-1.305c0-0.519,0-0.973-0.067-1.434C84.875,48.08,91.657,47.362,91.657,47.362z"/>
		</g>
		<g>
			<path fill="#DB0011" d="M71.769,12.863c0,0-1.759,4.827-4.303,9.263l1.827,1.497l-1.503,2.089
				c1.696,1.497,3.849,4.235,4.892,6.781c0.328-0.195,0.784-0.525,1.175-0.719c0.716-0.392,1.305-0.779,1.305-0.779
				c-0.131-0.262-0.261-0.524-0.392-0.717c-0.263-0.461-0.524-0.85-0.783-1.241c0.129-0.13,3.652-3.131,7.694-7.304
				C81.616,21.67,77.769,16.647,71.769,12.863z"/>
		</g>
		<g>
			<path fill="#DB0011" d="M60.684,21.341l0.651-2.739l0,0c0,0-0.261-0.131-0.651-0.261l0,0c-0.392-0.127-0.979-0.325-1.632-0.587
				c0.066-0.649,0.653-5.932,0.391-10.561c0,0-5.412-2.089-14.346-1.634c0,0,2.544,4.959,4.241,11.021c0,0,0.846-0.13,2.608,0
				c0.063,0.392,0.392,1.959,0.521,3.456C55.467,19.905,57.877,20.365,60.684,21.341z"/>
		</g>
		<path fill="#DB0011" d="M79.725,56.098c-0.065,0.848-0.26,1.758-0.521,2.741c-0.068,0-4.566-1.894-8.805-4.366
			c-2.151,2.796-4.956,5.078-8.218,6.587c0.458,0.712,1.304,2.085,1.304,2.085c0.329-0.263,0.655-0.522,0.979-0.722
			c0.586-0.454,0.979-0.85,0.979-0.85s2.674,3.593,8.542,8.871l0,0c0.259-0.325,0.457-0.652,0.585-0.849l0,0
			c0.261-0.389,0.589-0.851,0.915-1.499c4.89,3.657,9.325,6.127,9.325,6.127c5.021-7.885,6.129-15.258,6.129-15.258
			C85.397,57.855,79.725,56.098,79.725,56.098z"/>
	</g>
	<g>
		<g>
			<g>
				<path fill="#FFFFFF" d="M33.621,32.624c0.327-0.655,0.653-1.304,1.043-1.959c-1.043-0.519-3.455-1.498-6.715-2.477
					c0,0-0.978,1.436-1.631,2.609c-0.586-0.132-9.652-1.826-18.259-1.236c0,0-1.107,2.083-2.085,4.76
					c10.368-1.373,17.28-0.916,18.779-0.786l0,0c0.262-0.456,0.522-0.911,0.718-1.236c0.328-0.587,0.522-0.916,0.848-1.501
					C26.515,30.864,29.709,31.382,33.621,32.624z"/>
			</g>
			<path fill="#FFFFFF" d="M14.189,74.422L14.189,74.422c-1.044-1.11-1.697-1.892-1.697-1.892
				c5.608-8.476,12.977-15.124,13.629-15.711l-0.585-1.11c-0.327-0.649-0.654-1.307-0.654-1.307c2.869-2.35,6.912-4.564,8.282-5.217
				c-0.261-0.651-0.455-1.369-0.652-2.084c-0.781,0.323-2.281,0.91-3.846,1.696c-2.151,1.041-4.957,2.67-4.957,2.67
				c0.327,0.912,0.653,1.696,1.24,2.935c-6.848,5.024-13.498,11.997-16.628,16.24c1.957,3.779,4.434,6.91,6,8.733l1.695-3.259l0,0
				C14.841,75.144,14.189,74.422,14.189,74.422z"/>
			<g>
				<path fill="#FFFFFF" d="M45.814,67.97c-0.195,0-0.455,0-0.651-0.072c-0.327,0-0.521-0.062-0.521-0.062l0,0
					c-0.785-0.064-1.501-0.198-1.501-0.198c-0.065,0.134-1.825,8.092-1.5,18.46c0,0,2.216,0.063,4.434-0.198
					C44.708,76.968,45.685,69.146,45.814,67.97z"/>
				<path fill="#FFFFFF" d="M42.686,60.273c-0.458,1.238-1.825,4.691-2.413,6.85c0,0,1.63,0.449,2.804,0.586
					c0.261-2.093,1.239-5.286,1.631-6.461C44.054,60.923,43.337,60.599,42.686,60.273z"/>
				<g>
					<path fill="#FFFFFF" d="M51.946,94.12c0,0-1.241-4.629-2.152-8.608c-0.131,0-0.262,0.065-0.393,0.065
						c-0.324,0.061-1.107,0.196-1.107,0.196c-0.848,0.126-1.761,0.259-2.283,0.259c0,0,0.783,5.802,1.435,8.474
						c0,0,2.349-0.062,4.5-0.261V94.12z"/>
				</g>
			</g>
			<path fill="#FFFFFF" d="M59.183,62.159c0.261,0.523,0.914,2.022,1.24,2.745c0,0,0.913-0.389,2.152-1.174
				c-0.066-0.135-0.979-1.696-1.24-2.285C60.554,61.771,59.836,61.969,59.183,62.159z"/>
			<g>
				<path fill="#FFFFFF" d="M62.508,63.73c0.066,0.127,3.327,5.929,7.957,11.08c0,0,1.239-1.301,2.282-2.798
					c-5.087-5.152-7.956-9.067-8.347-9.655c-0.26,0.265-0.654,0.524-0.977,0.723C63.097,63.332,62.771,63.533,62.508,63.73z"/>
			</g>
			<path fill="#FFFFFF" d="M71.965,52.053c4.109,1.76,7.76,2.745,7.76,2.745c0.196-1.697,0.196-2.938,0.196-2.938
				s-4.891-0.979-7.042-1.759C72.681,50.75,72.355,51.405,71.965,52.053z"/>
			<g>
				<g>
					<path fill="#FFFFFF" d="M79.984,49.122c0,0.456,0,0.848,0,1.303c0,0.457,0,0.98,0,1.435c6.325,1.24,11.803,1.365,11.803,1.365
						c0.13-1.173,0.13-3.842,0.13-3.842C91.267,49.384,84.681,49.771,79.984,49.122z"/>
				</g>
			</g>
			<g>
				<g>
					<path fill="#FFFFFF" d="M83.051,23.233c-4.109,3.846-8.151,6.847-8.349,6.977c0.13,0.261,0.261,0.455,0.393,0.717
						c0.261,0.455,0.522,0.913,0.783,1.371c0,0,4.824-2.738,9.064-6.262C85.005,26.103,84.289,24.863,83.051,23.233z"/>
				</g>
				<g>
					<g>
						<path fill="#FFFFFF" d="M73.335,33.796c0.261,0.654,0.456,1.371,0.651,2.088c0.39-0.13,1.956-0.784,2.999-1.304
							c0,0-0.457-1.177-1.042-2.283L73.335,33.796z"/>
					</g>
				</g>
			</g>
			<g>
				<path fill="#FFFFFF" d="M62.899,19.256l-0.78,2.671c0.652,0.329,1.305,0.654,1.956,0.979c0.196-0.389,0.586-1.366,1.044-2.54
					C65.119,20.365,63.878,19.646,62.899,19.256z"/>
			</g>
			<g>
				<g>
					<path fill="#FFFFFF" d="M61.596,7.711c0.066,4.566-0.912,10.629-0.912,10.565l0,0c0.456,0.131,0.651,0.263,0.651,0.263l0,0
						c0,0,1.501,0.584,1.564,0.649c0.131-0.456,1.372-4.954,1.958-10.238C64.857,9.017,63.097,8.299,61.596,7.711z"/>
				</g>
			</g>
			<g>
				<path fill="#FFFFFF" d="M46.208,16.973c-0.653,0.131-2.545,0.651-2.545,0.651c-3.519-5.933-7.953-10.63-7.953-10.63
					c-2.088,0.589-3.653,1.178-4.044,1.305c0.521,0.458,7.108,6.653,9.456,10.172l0,0c0.196-0.063,0.586-0.257,0.978-0.388
					c0.717-0.262,1.501-0.523,1.501-0.523c1.109,1.696,1.761,3,2.086,3.65c0.653-0.258,1.37-0.456,2.087-0.65
					C47.25,19.125,46.208,16.973,46.208,16.973z"/>
			</g>
		</g>
		<g>
			<path fill="#FFFFFF" d="M73.856,70.38L73.856,70.38c-0.521,0.786-1.175,1.633-1.175,1.633c0.066,0.063,4.173,4.169,8.218,7.101
				c0,0,1.173-1.361,2.478-3.125c-0.457-0.259-4.566-2.937-8.871-6.52l0,0C74.376,69.731,74.116,70.054,73.856,70.38z"/>
		</g>
	</g>
	<g>
		<g>
			<g>
				<path fill="#BA8748" d="M119.373,69.792c-0.131-1.562-0.979-2.346-2.61-2.346c-1.237,0-2.478,0.65-2.478,2.022
					c0,1.697,1.501,1.885,2.87,2.22c2.349,0.586,5.868,1.298,5.868,4.429c0,3.846-3.325,5.217-6.717,5.217
					c-3.52,0-6.062-1.371-5.933-5.346h3.393c-0.13,1.691,0.845,2.874,2.608,2.874c1.305,0,3.13-0.397,3.13-2.095
					c0-1.822-2.218-1.957-3.523-2.284c-2.152-0.521-5.151-1.559-5.151-4.303c0-3.581,3.262-5.15,6.457-5.15
					c3,0,5.346,1.632,5.346,4.762H119.373z"/>
				<path fill="#BA8748" d="M131.5,79.637c-0.715,0.984-1.694,1.697-3.324,1.697c-1.11,0-3.195-0.848-3.523-2.41
					c-0.194-0.657-0.194-1.371-0.194-1.695v-7.048h3.194v6.523c0,1.174,0.33,2.481,1.958,2.481c1.043,0,1.89-0.919,1.958-2.481
					v-6.523h3.195v8.933c0,0.658,0.062,1.309,0.131,1.958h-3.199L131.5,79.637z"/>
				<path fill="#BA8748" d="M140.108,71.354L140.108,71.354c0.654-0.909,1.827-1.562,2.936-1.562c3.326,0,5.085,2.806,5.085,5.739
					c0,2.808-1.499,5.739-4.629,5.739c-1.371,0-2.608-0.588-3.261-1.895h-0.064v5.676h-3.198V72.203
					c0-0.714-0.063-1.435-0.131-2.149h3.262V71.354z M142.455,79.113c2.089,0,2.35-1.885,2.35-3.582c0-1.694-0.261-3.589-2.35-3.589
					c-1.761,0-2.347,2.092-2.347,3.589C140.108,77.029,140.694,79.113,142.455,79.113z"/>
				<path fill="#BA8748" d="M152.303,76.38c0,1.435,0.198,2.733,1.823,2.733c1.108,0,1.694-0.387,1.959-1.434h2.929
					c-0.258,2.681-2.344,3.591-4.888,3.591c-3.714,0-5.216-2.085-5.216-5.739c0-3.257,1.894-5.8,5.216-5.8
					c2.02,0,3.716,0.713,4.63,2.606c0.333,0.587,0.459,1.236,0.521,1.958c0.072,0.649,0.072,1.361,0.072,2.084H152.303z
					 M156.085,74.224c0-1.172-0.327-2.281-1.888-2.281c-1.508,0-1.829,1.109-1.829,2.281H156.085z"/>
				<path fill="#BA8748" d="M163.716,70.119l0.065,1.957h0.061c0.723-1.696,2.088-2.156,3.655-2.085v2.869h-1.371
					c-0.522,0.064-1.236,0.323-1.562,0.776c-0.326,0.587-0.396,1.246-0.46,1.957v5.414h-3.194v-8.67
					c0-0.462-0.064-1.372-0.126-2.157h2.932V70.119z"/>
				<path fill="#BA8748" d="M173.823,68.16c1.306-0.588,2.605-1.3,3.716-2.148h2.996v14.935h-3.192V69.207
					c-1.113,0.784-2.285,1.436-3.52,1.959V68.16L173.823,68.16z"/>
				<path fill="#BA8748" d="M187.971,81.271c-4.106,0-5.218-4.178-5.218-7.761c0-3.652,1.111-7.821,5.218-7.821
					c4.24,0,5.351,4.169,5.351,7.821C193.258,77.167,192.148,81.271,187.971,81.271z M188.038,67.836
					c-2.088,0-1.89,5.286-1.89,5.674c0,0.389-0.198,5.604,1.89,5.604s1.89-5.276,1.89-5.604
					C189.928,73.122,190.126,67.836,188.038,67.836z"/>
				<path fill="#BA8748" d="M199.906,81.271c-4.109,0-5.213-4.178-5.213-7.761c0-3.652,1.104-7.821,5.213-7.821
					c4.24,0,5.346,4.169,5.346,7.821C205.252,77.167,204.146,81.271,199.906,81.271z M199.971,67.836
					c-2.085,0-1.896,5.286-1.896,5.674c0,0.389-0.189,5.604,1.896,5.604c2.084,0,1.895-5.276,1.895-5.604
					C201.865,73.122,202.055,67.836,199.971,67.836z"/>
				<path fill="#BA8748" d="M211.835,81.271c-4.106,0-5.217-4.178-5.217-7.761c0-3.652,1.11-7.821,5.217-7.821
					c4.242,0,5.351,4.169,5.351,7.821C217.186,77.167,216.077,81.271,211.835,81.271z M211.905,67.836
					c-2.091,0-1.893,5.286-1.893,5.674c0,0.389-0.198,5.604,1.893,5.604c2.088,0,1.888-5.276,1.888-5.604
					C213.857,73.122,213.993,67.836,211.905,67.836z"/>
			</g>
		</g>
	</g>
</g>
</svg>
