<?xml version="1.0" encoding="utf-8"?>
<!-- Generator: Adobe Illustrator 16.0.0, SVG Export Plug-In . SVG Version: 6.00 Build 0)  -->
<!DOCTYPE svg PUBLIC "-//W3C//DTD SVG 1.1//EN" "http://www.w3.org/Graphics/SVG/1.1/DTD/svg11.dtd">
<svg version="1.1" id="Layer_1" xmlns="http://www.w3.org/2000/svg" xmlns:xlink="http://www.w3.org/1999/xlink" x="0px" y="0px"
	 width="300px" height="100px" viewBox="0 0 300 100" enable-background="new 0 0 300 100" xml:space="preserve">
<g>
	<rect x="250.051" y="34.251" fill="#FFFFFF" width="31.3" height="31.302"/>
	<g>
		<g>
			<polygon fill="#DB0011" points="297,49.902 281.351,34.251 281.351,65.553 			"/>
			<polygon fill="#DB0011" points="265.702,49.902 281.351,34.251 250.051,34.251 			"/>
			<polygon fill="#DB0011" points="234.466,49.902 250.051,65.553 250.051,34.251 			"/>
			<polygon fill="#DB0011" points="265.702,49.902 250.051,65.553 281.351,65.553 			"/>
		</g>
		<g>
			<g>
				<path fill="#DB0011" d="M227.815,21.079h-13.238h-0.652h-2.283c-2.934,0-3.649,2.087-3.649,2.087l-3.131,7.499h-0.065
					l-0.784-9.65h-4.89c-2.348,0-3.326,2.151-3.326,2.151l-3.716,7.564h-0.065v-9.651h-3.326c-2.216,0-2.673,1.239-2.805,1.892
					c-0.65-1.239-2.413-1.892-5.542-1.892h-7.891c-2.541,0-2.805,1.956-2.805,1.956l-2.867,13.499h11.151
					c3.259,0,4.304-0.326,5.477-1.174c0.782-0.588,1.436-1.564,1.695-2.805c0.522-2.673-1.305-3.717-3.391-3.847v-0.065
					c1.891-0.457,3.521-1.305,4.172-3.064l0.264,10.89h5.345c3.066,0,4.176-2.804,4.176-2.804l3.259-6.521h0.065l0.783,9.391h4.759
					c3.458,0,4.631-3.064,4.631-3.064l4.172-9.521l-2.608,12.585h2.871c3.65,0,4.173-3,4.173-3l0.586-2.739h4.108
					c3.131,0,3.588-2.412,3.588-2.412l0.195-0.782h-7.174l0.652-3.196h4.499c3.065,0,3.521-2.347,3.521-2.347L227.815,21.079z
					 M175.06,27.339l0.718-3.39h1.891c2.021,0,2.349,0.586,2.088,1.695c-0.195,1.043-0.913,1.694-2.804,1.694H175.06z
					 M173.755,33.796l0.784-3.718h1.891c2.217,0,2.869,0.587,2.608,1.826c-0.262,1.304-1.175,1.892-3.391,1.892H173.755z"/>
				<g>
					<g>
						<path fill="#FFFFFF" d="M113.764,29.947h-6.651v6.587h-3.326V21.079h3.326v6.326h6.651v-6.326h3.325v15.39h-3.325V29.947z"/>
						<path fill="#FFFFFF" d="M125.109,36.795c-3.325,0-6.064-1.305-6.129-5.021h3.325c0.065,1.63,0.979,2.608,2.804,2.608
							c1.369,0,2.869-0.652,2.869-2.217c0-1.174-1.043-1.565-2.738-2.087l-1.108-0.326c-2.413-0.717-4.825-1.63-4.825-4.434
							c0-3.456,3.194-4.565,6.129-4.565c3,0,5.608,1.043,5.608,4.435h-3.325c-0.131-1.435-0.914-2.217-2.544-2.217
							c-1.238,0-2.478,0.652-2.478,2.021c0,1.108,1.044,1.499,3.195,2.151l1.305,0.391c2.673,0.849,4.303,1.762,4.303,4.305
							C131.5,35.425,128.109,36.795,125.109,36.795z"/>
						<path fill="#FFFFFF" d="M133.391,21.079h5.348c1.695,0,2.348,0.065,3,0.195c1.892,0.457,3.261,1.631,3.261,3.718
							c0,1.956-1.239,2.999-3.065,3.456c2.087,0.391,3.652,1.435,3.652,3.717c0,3.521-3.456,4.304-6.131,4.304h-6.064V21.079z
							 M138.804,27.534c1.499,0,2.935-0.325,2.935-2.086c0-1.565-1.436-2.021-2.738-2.021h-2.349v4.108L138.804,27.534
							L138.804,27.534z M139.13,34.187c1.565,0,3.064-0.391,3.064-2.218c0-1.825-1.304-2.281-2.868-2.281h-2.675v4.499H139.13z"/>
						<path fill="#FFFFFF" d="M154.323,36.795c-4.955,0-7.173-3.195-7.173-7.891c0-4.629,2.478-8.085,7.368-8.085
							c3.066,0,6.066,1.369,6.13,4.825h-3.456c-0.195-1.566-1.175-2.348-2.674-2.348c-3,0-3.912,3.26-3.912,5.738
							c0,2.478,0.912,5.282,3.782,5.282c1.5,0,2.608-0.783,2.87-2.349h3.456C160.322,35.49,157.518,36.795,154.323,36.795z"/>
					</g>
				</g>
			</g>
			<g>
				<path fill="#FFFFFF" d="M118.394,43.446h3.782l2.738,11.673h0.065l2.478-11.673h3.196l-3.979,15.519h-3.717l-2.804-11.866
					h-0.066l-2.999,11.866h-3.782l-3.782-15.519h3.456l2.413,11.673h0.065L118.394,43.446z"/>
				<path fill="#FFFFFF" d="M136.13,59.293c-3.521,0-5.607-2.348-5.607-5.74c0-3.391,2.087-5.737,5.607-5.737
					c3.522,0,5.608,2.347,5.608,5.737C141.804,57.011,139.717,59.293,136.13,59.293z M136.13,57.141
					c1.957,0,2.282-1.824,2.282-3.588c0-1.759-0.325-3.586-2.282-3.586c-1.956,0-2.282,1.827-2.282,3.586
					C133.848,55.316,134.174,57.141,136.13,57.141z"/>
				<path fill="#FFFFFF" d="M146.367,48.206l0.066,1.956h0.064c0.718-1.694,2.087-2.151,3.652-2.086v2.868h-1.37
					c-0.521,0.065-1.238,0.327-1.564,0.784c-0.326,0.586-0.392,1.174-0.456,1.891v5.346h-3.196v-8.672
					c0-0.457-0.064-1.369-0.13-2.151h2.934V48.206z"/>
				<path fill="#FFFFFF" d="M155.302,43.446v15.519h-3.261V43.446H155.302z"/>
				<path fill="#FFFFFF" d="M165.475,43.446h3.195v13.369c0,0.716,0.065,1.433,0.131,2.149h-3.262
					c-0.064-0.52-0.064-1.043-0.064-1.499h-0.065c-0.716,1.24-1.891,1.827-3.324,1.827c-3.195,0-4.631-2.936-4.631-5.74
					c0-2.934,1.695-5.737,5.085-5.737c1.109,0,2.283,0.652,2.87,1.564h0.065V43.446L165.475,43.446z M163.193,57.141
					c1.759,0,2.346-2.088,2.346-3.588s-0.587-3.586-2.346-3.586c-2.088,0-2.35,1.891-2.35,3.586S161.105,57.141,163.193,57.141z"/>
				<path fill="#FFFFFF" d="M173.496,43.446h12.584v2.608h-4.629v12.91h-3.325V45.989h-4.63V43.446L173.496,43.446z"/>
				<path fill="#FFFFFF" d="M190.515,59.293c-3.521,0-5.607-2.348-5.607-5.74c0-3.391,2.086-5.737,5.607-5.737
					s5.608,2.347,5.608,5.737C196.188,57.011,194.036,59.293,190.515,59.293z M190.515,57.141c1.956,0,2.281-1.824,2.281-3.588
					c0-1.759-0.325-3.586-2.281-3.586s-2.281,1.827-2.281,3.586C188.233,55.316,188.559,57.141,190.515,57.141z"/>
				<path fill="#FFFFFF" d="M205.121,57.661c-0.717,0.979-1.695,1.632-3.325,1.632c-1.043,0-3.129-0.848-3.521-2.414
					c-0.195-0.652-0.195-1.367-0.195-1.695v-7.042h3.261v6.456c0,1.173,0.326,2.477,1.956,2.477c1.043,0,1.893-0.912,1.956-2.477
					v-6.456h3.261v8.869c0,0.65,0.065,1.304,0.13,1.954h-3.195L205.121,57.661z"/>
				<path fill="#FFFFFF" d="M213.925,48.206l0.066,1.956h0.063c0.718-1.694,2.086-2.151,3.653-2.086v2.868h-1.371
					c-0.521,0.065-1.237,0.327-1.564,0.784c-0.326,0.586-0.391,1.174-0.456,1.891v5.346h-3.195v-8.672
					c0-0.457-0.065-1.369-0.13-2.151h2.934V48.206z"/>
			</g>
		</g>
	</g>
	<g>
		<g>
			<g>
				<path fill="#FFFFFF" d="M53.314,22.971c10.173,0,18.52,8.281,18.52,18.519c0,10.239-8.282,18.521-18.52,18.521
					c-10.173,0-18.52-8.281-18.52-18.521C34.795,31.252,43.077,22.971,53.314,22.971"/>
			</g>
		</g>
	</g>
	<g>
		<g>
			<path fill="#DB0011" d="M41.186,18.536L41.186,18.536c-0.391,0.131-0.848,0.392-1.435,0.652
				c-2.607-3.587-10.173-9.978-10.173-9.978c-9.26,4.108-14.606,10.173-14.606,10.173c7.825,1.957,15.52,5.673,15.52,5.673
				c0.848-0.652,1.631-1.304,2.348-1.825c0.392,0.261,2.348,1.565,4.891,3.456c0.913-1.043,3.521-3.326,6.781-4.761
				c-0.064-0.131-0.651-1.369-2.347-3.717C41.772,18.275,41.381,18.471,41.186,18.536L41.186,18.536z"/>
		</g>
		<g>
			<path fill="#DB0011" d="M33.165,33.86c-4.499-1.239-7.825-1.565-7.825-1.565c-0.195,0.326-0.456,0.783-0.718,1.239
				c-0.455,0.783-0.978,1.565-0.912,1.565c0,0-6.978-0.456-18.781,1.695c0,0-3.26,9.455-1.304,20.998c0,0,8.282-6.586,18.715-10.825
				c0,0-0.195-1.174-0.13-3.13c5.542-1.565,9.26-2.022,9.65-2.087C31.73,39.468,32.187,36.338,33.165,33.86z"/>
		</g>
		<g>
			<path fill="#DB0011" d="M33.621,50.229c-0.064,0.064-4.76,2.543-8.151,5.542l0.587,1.108c0.262,0.457,0.522,0.914,0.848,1.369
				c-0.912,0.912-7.368,7.174-12.781,16.236c0,0,0.588,0.719,1.762,1.764c0.456,0.391,0.978,0.846,1.565,1.367l-1.696,3.781
				c9.391,9.457,18.129,11.283,18.129,11.283l0.455-6.781c-2.478-0.457-4.042-0.98-4.042-0.98s0.783-8.02,5.543-19.041
				c0,0-0.979-0.324-2.608-1.367c0.064-0.133,3.194-5.35,4.891-7.631C36.229,54.857,34.535,52.51,33.621,50.229z"/>
		</g>
		<g>
			<path fill="#DB0011" d="M66.291,78.92c-0.913,0.719-1.892,1.369-2.868,1.957c-0.131-0.195-3.849-6.195-6.521-14.609
				c0,0-0.848,0.328-2.413,0.719c-0.131-0.521-0.586-3.062-0.783-4.108c-2.282,0.132-6.193-0.586-7.824-1.304
				c-0.065,0.131-1.044,3.717-1.304,6.262l0,0c0,0,0.195,0,0.521,0.064c0.261,0,0.456,0.064,0.651,0.064c0,0,0.848,0.066,1.24,0.066
				c-0.066,0.455-0.783,8.217,1.173,17.672c0,0,0.782-0.131,1.108-0.197c0.131,0,0.261-0.064,0.392-0.064
				c0.848-0.131,1.76-0.328,2.151-0.391c1.174,4.041,2.739,8.738,2.739,8.738c9.65-1.24,17.737-7.238,17.737-7.238
				C70.073,84.201,66.291,78.92,66.291,78.92z"/>
		</g>
		<g>
			<path fill="#DB0011" d="M91.657,47.358c-0.261-7.303-3.064-14.02-3.064-14.02c-6.325,2.935-10.499,4.173-10.499,4.173
				c0.261,0.718,0.522,1.565,0.718,2.413l-4.108,0.717c0.131,1.892-0.326,6.064-1.369,8.412c2.413,0.652,6.717,1.305,6.717,1.305
				c0-0.456,0-0.913,0-1.305c0-0.521,0-0.978-0.066-1.434C84.876,48.076,91.657,47.358,91.657,47.358z"/>
		</g>
		<g>
			<path fill="#DB0011" d="M71.769,12.863c0,0-1.76,4.825-4.304,9.26l1.826,1.5l-1.5,2.086c1.695,1.5,3.848,4.238,4.891,6.782
				c0.326-0.196,0.783-0.522,1.174-0.718c0.717-0.391,1.305-0.782,1.305-0.782c-0.131-0.261-0.262-0.522-0.392-0.718
				c-0.261-0.456-0.522-0.848-0.782-1.238c0.13-0.131,3.651-3.13,7.694-7.304C81.615,21.666,77.769,16.645,71.769,12.863z"/>
		</g>
		<g>
			<path fill="#DB0011" d="M60.684,21.341l0.652-2.739l0,0c0,0-0.262-0.131-0.652-0.262l0,0c-0.392-0.13-0.979-0.325-1.631-0.586
				c0.065-0.652,0.652-5.934,0.392-10.563c0,0-5.413-2.087-14.346-1.631c0,0,2.542,4.956,4.238,11.021c0,0,0.848-0.131,2.608,0
				c0.065,0.391,0.392,1.956,0.521,3.456C55.467,19.905,57.88,20.362,60.684,21.341z"/>
		</g>
		<path fill="#DB0011" d="M79.725,56.098c-0.065,0.848-0.262,1.759-0.521,2.738c-0.065,0-4.565-1.891-8.804-4.369
			c-2.151,2.803-4.956,5.085-8.217,6.586c0.457,0.717,1.305,2.086,1.305,2.086c0.326-0.261,0.652-0.52,0.979-0.715
			c0.586-0.459,0.978-0.85,0.978-0.85s2.674,3.588,8.543,8.869l0,0c0.26-0.326,0.456-0.652,0.586-0.848l0,0
			c0.262-0.393,0.588-0.848,0.913-1.5c4.892,3.652,9.325,6.129,9.325,6.129c5.021-7.889,6.13-15.26,6.13-15.26
			C85.397,57.856,79.725,56.098,79.725,56.098z"/>
	</g>
	<g>
		<g>
			<g>
				<path fill="#FFFFFF" d="M33.621,32.621c0.326-0.652,0.652-1.305,1.043-1.956c-1.043-0.521-3.456-1.5-6.716-2.479
					c0,0-0.978,1.436-1.63,2.608c-0.587-0.13-9.651-1.825-18.259-1.238c0,0-1.108,2.086-2.087,4.761
					c10.368-1.37,17.28-0.914,18.78-0.783l0,0c0.261-0.456,0.521-0.913,0.717-1.239c0.327-0.586,0.522-0.912,0.849-1.5
					C26.514,30.861,29.709,31.383,33.621,32.621z"/>
			</g>
			<path fill="#FFFFFF" d="M14.189,74.42L14.189,74.42c-1.044-1.107-1.696-1.891-1.696-1.891
				c5.608-8.477,12.977-15.127,13.629-15.714l-0.587-1.108c-0.325-0.654-0.651-1.305-0.651-1.305
				c2.868-2.35,6.912-4.566,8.281-5.218c-0.261-0.652-0.456-1.369-0.652-2.086c-0.782,0.325-2.282,0.912-3.847,1.694
				c-2.152,1.043-4.956,2.674-4.956,2.674c0.326,0.914,0.652,1.695,1.238,2.936C18.102,59.424,11.45,66.4,8.32,70.639
				c1.956,3.781,4.435,6.912,6,8.738l1.694-3.262l0,0C14.842,75.139,14.189,74.42,14.189,74.42z"/>
			<g>
				<path fill="#FFFFFF" d="M45.815,67.965c-0.195,0-0.456,0-0.652-0.064c-0.326,0-0.521-0.064-0.521-0.064l0,0
					c-0.782-0.068-1.5-0.195-1.5-0.195c-0.064,0.127-1.825,8.084-1.499,18.453c0,0,2.217,0.064,4.434-0.195
					C44.707,76.963,45.686,69.141,45.815,67.965z"/>
				<path fill="#FFFFFF" d="M42.686,60.27c-0.456,1.24-1.826,4.695-2.412,6.848c0,0,1.629,0.455,2.804,0.588
					c0.26-2.088,1.238-5.281,1.63-6.457C44.056,60.924,43.337,60.597,42.686,60.27z"/>
				<g>
					<path fill="#FFFFFF" d="M51.945,94.113c0,0-1.239-4.629-2.151-8.607c-0.131,0-0.262,0.066-0.392,0.066
						c-0.326,0.064-1.109,0.195-1.109,0.195c-0.848,0.131-1.76,0.26-2.282,0.26c0,0,0.782,5.803,1.435,8.479
						c0,0,2.349-0.066,4.5-0.262V94.113z"/>
				</g>
			</g>
			<path fill="#FFFFFF" d="M59.184,62.16c0.261,0.522,0.912,2.021,1.238,2.74c0,0,0.914-0.391,2.152-1.174
				c-0.065-0.131-0.979-1.695-1.238-2.282C60.553,61.77,59.836,61.965,59.184,62.16z"/>
			<g>
				<path fill="#FFFFFF" d="M62.509,63.727c0.065,0.131,3.326,5.934,7.955,11.086c0,0,1.24-1.305,2.283-2.805
					c-5.087-5.15-7.955-9.064-8.348-9.652c-0.26,0.264-0.651,0.522-0.977,0.719C63.097,63.335,62.771,63.531,62.509,63.727z"/>
			</g>
			<path fill="#FFFFFF" d="M71.965,52.053c4.108,1.762,7.76,2.74,7.76,2.74c0.195-1.695,0.195-2.936,0.195-2.936
				s-4.891-0.977-7.043-1.76C72.682,50.75,72.355,51.402,71.965,52.053z"/>
			<g>
				<g>
					<path fill="#FFFFFF" d="M79.984,49.119c0,0.457,0,0.848,0,1.305s0,0.979,0,1.434c6.326,1.24,11.804,1.371,11.804,1.371
						c0.13-1.176,0.13-3.849,0.13-3.849C91.267,49.38,84.681,49.771,79.984,49.119z"/>
				</g>
			</g>
			<g>
				<g>
					<path fill="#FFFFFF" d="M83.05,23.231c-4.108,3.848-8.151,6.847-8.347,6.978c0.131,0.26,0.261,0.456,0.392,0.717
						c0.261,0.457,0.521,0.913,0.782,1.369c0,0,4.826-2.738,9.063-6.26C85.006,26.101,84.289,24.861,83.05,23.231z"/>
				</g>
				<g>
					<g>
						<path fill="#FFFFFF" d="M73.334,33.796c0.261,0.651,0.457,1.369,0.652,2.086c0.391-0.13,1.956-0.782,2.999-1.305
							c0,0-0.457-1.174-1.043-2.282L73.334,33.796z"/>
					</g>
				</g>
			</g>
			<g>
				<path fill="#FFFFFF" d="M62.9,19.254l-0.782,2.673c0.652,0.326,1.305,0.652,1.956,0.979c0.196-0.392,0.587-1.369,1.043-2.543
					C65.117,20.362,63.878,19.645,62.9,19.254z"/>
			</g>
			<g>
				<g>
					<path fill="#FFFFFF" d="M61.596,7.712c0.065,4.564-0.912,10.628-0.912,10.563l0,0c0.456,0.131,0.652,0.261,0.652,0.261l0,0
						c0,0,1.499,0.587,1.564,0.652c0.13-0.456,1.37-4.956,1.956-10.238C64.856,9.016,63.097,8.298,61.596,7.712z"/>
				</g>
			</g>
			<g>
				<path fill="#FFFFFF" d="M46.207,16.971c-0.652,0.131-2.544,0.652-2.544,0.652c-3.521-5.934-7.955-10.629-7.955-10.629
					c-2.087,0.587-3.651,1.174-4.043,1.304c0.521,0.457,7.108,6.652,9.456,10.173l0,0c0.195-0.064,0.586-0.261,0.978-0.391
					c0.717-0.262,1.5-0.521,1.5-0.521c1.108,1.695,1.761,2.999,2.087,3.651c0.652-0.262,1.369-0.457,2.086-0.652
					C47.25,19.123,46.207,16.971,46.207,16.971z"/>
			</g>
		</g>
		<g>
			<path fill="#FFFFFF" d="M73.855,70.377L73.855,70.377c-0.521,0.783-1.174,1.631-1.174,1.631c0.065,0.066,4.173,4.174,8.217,7.107
				c0,0,1.174-1.367,2.478-3.131c-0.457-0.26-4.564-2.932-8.868-6.52l0,0C74.377,69.727,74.116,70.051,73.855,70.377z"/>
		</g>
	</g>
	<g>
		<g>
			<g>
				<path fill="#BD6228" d="M124.197,69.855c-0.131-1.564-0.979-2.348-2.608-2.348c-1.239,0-2.479,0.652-2.479,2.023
					c0,1.695,1.5,1.891,2.869,2.217c2.348,0.586,5.869,1.305,5.869,4.434c0,3.848-3.391,5.215-6.717,5.215
					c-3.521,0-6.064-1.367-5.934-5.344h3.391c-0.13,1.695,0.849,2.867,2.608,2.867c1.304,0,3.13-0.391,3.13-2.086
					c0-1.826-2.217-1.957-3.587-2.281c-2.151-0.523-5.151-1.568-5.151-4.307c0-3.586,3.261-5.15,6.456-5.15
					c3,0,5.348,1.631,5.348,4.76H124.197z"/>
				<path fill="#BD6228" d="M136.325,79.639c-0.717,0.977-1.694,1.693-3.325,1.693c-1.108,0-3.194-0.848-3.521-2.412
					c-0.196-0.652-0.196-1.369-0.196-1.695v-7.043h3.261v6.521c0,1.174,0.325,2.479,1.956,2.479c1.044,0,1.892-0.914,1.956-2.479
					v-6.521h3.261v8.934c0,0.652,0.064,1.305,0.131,1.957h-3.261L136.325,79.639z"/>
				<path fill="#BD6228" d="M144.934,71.355L144.934,71.355c0.652-0.912,1.826-1.564,2.935-1.564c3.392,0,5.086,2.803,5.086,5.738
					c0,2.805-1.499,5.74-4.63,5.74c-1.369,0-2.608-0.588-3.261-1.893h-0.064v5.674h-3.261V72.203c0-0.717-0.065-1.434-0.131-2.152
					h3.261L144.934,71.355z M147.281,79.115c2.087,0,2.347-1.891,2.347-3.586s-0.26-3.586-2.347-3.586
					c-1.761,0-2.348,2.086-2.348,3.586S145.521,79.115,147.281,79.115z"/>
				<path fill="#BD6228" d="M157.127,76.443c0,1.434,0.195,2.738,1.826,2.738c1.109,0,1.695-0.391,1.957-1.434h2.934
					c-0.26,2.672-2.346,3.584-4.891,3.584c-3.717,0-5.217-2.086-5.217-5.738c0-3.26,1.891-5.803,5.217-5.803
					c2.022,0,3.718,0.717,4.631,2.607c0.325,0.586,0.455,1.24,0.521,1.957c0.066,0.652,0.066,1.369,0.066,2.088H157.127z
					 M160.91,74.289c0-1.172-0.325-2.281-1.891-2.281c-1.502,0-1.827,1.109-1.827,2.281H160.91z"/>
				<path fill="#BD6228" d="M168.538,70.117l0.067,1.957h0.064c0.718-1.697,2.086-2.152,3.651-2.088v2.869h-1.37
					c-0.521,0.066-1.236,0.324-1.563,0.783c-0.327,0.586-0.391,1.238-0.457,1.955v5.412h-3.196v-8.672
					c0-0.457-0.064-1.369-0.128-2.152h2.932V70.117z"/>
				<path fill="#BD6228" d="M180.472,77.289c0.065,1.045,0.85,1.893,1.893,1.893c1.629,0,2.151-1.893,2.151-3.197
					c0-1.236-0.651-2.672-2.086-2.672c-0.979,0-1.631,0.781-1.893,1.695l-3.129-0.064l0.325-8.805h9.13v2.152h-6.26l-0.195,3.912
					c0.718-0.717,1.694-1.043,2.737-1.043c2.675,0,4.565,1.629,4.565,5.15c0,2.74-2.413,5.154-5.477,5.154
					c-2.608,0-4.892-1.176-5.021-4.045h3.259V77.289z"/>
				<path fill="#BD6228" d="M194.101,81.332c-4.108,0-5.217-4.172-5.217-7.76c0-3.65,1.108-7.824,5.217-7.824
					c4.239,0,5.349,4.174,5.349,7.824C199.449,77.16,198.34,81.332,194.101,81.332z M194.166,67.836
					c-2.086,0-1.891,5.281-1.891,5.672s-0.195,5.607,1.891,5.607c2.088,0,1.893-5.281,1.893-5.607
					C196.059,73.18,196.254,67.836,194.166,67.836z"/>
				<path fill="#BD6228" d="M205.644,81.332c-4.108,0-5.218-4.172-5.218-7.76c0-3.65,1.109-7.824,5.218-7.824
					c4.239,0,5.348,4.174,5.348,7.824C210.991,77.16,209.883,81.332,205.644,81.332z M205.709,67.836
					c-2.088,0-1.893,5.281-1.893,5.672s-0.195,5.607,1.893,5.607c2.086,0,1.891-5.281,1.891-5.607
					C207.6,73.18,207.795,67.836,205.709,67.836z"/>
			</g>
		</g>
	</g>
</g>
</svg>
