<?xml version="1.0" encoding="utf-8"?>
<!-- Generator: Adobe Illustrator 16.0.0, SVG Export Plug-In . SVG Version: 6.00 Build 0)  -->
<!DOCTYPE svg PUBLIC "-//W3C//DTD SVG 1.1//EN" "http://www.w3.org/Graphics/SVG/1.1/DTD/svg11.dtd">
<svg version="1.1" id="Layer_1" xmlns="http://www.w3.org/2000/svg" xmlns:xlink="http://www.w3.org/1999/xlink" x="0px" y="0px"
	 width="300px" height="100px" viewBox="0 0 300 100" enable-background="new 0 0 300 100" xml:space="preserve">
<g>
	<rect x="250.051" y="34.252" fill="#FFFFFF" width="31.301" height="31.301"/>
	<g>
		<g>
			<g>
				<g>
					<path fill="#FFFFFF" d="M53.315,22.972c10.172,0,18.519,8.28,18.519,18.519s-8.282,18.521-18.519,18.521
						c-10.174,0-18.521-8.282-18.521-18.521S43.077,22.972,53.315,22.972"/>
				</g>
			</g>
		</g>
		<g>
			<g>
				<g>
					<g>
						<path fill="#FFFFFF" d="M33.621,32.622c0.326-0.652,0.652-1.305,1.044-1.957c-1.044-0.521-3.457-1.499-6.717-2.478
							c0,0-0.978,1.435-1.63,2.608c-0.587-0.131-9.651-1.825-18.259-1.238c0,0-1.108,2.086-2.087,4.76
							c10.369-1.37,17.281-0.913,18.78-0.782l0,0c0.261-0.457,0.521-0.913,0.717-1.24c0.327-0.586,0.522-0.912,0.849-1.499
							C26.514,30.861,29.708,31.383,33.621,32.622z"/>
					</g>
					<path fill="#FFFFFF" d="M14.189,74.421L14.189,74.421c-1.044-1.108-1.696-1.891-1.696-1.891
						c5.608-8.478,12.977-15.128,13.629-15.715l-0.586-1.108c-0.327-0.654-0.652-1.304-0.652-1.304
						c2.869-2.35,6.912-4.567,8.281-5.218c-0.261-0.653-0.456-1.369-0.652-2.087c-0.782,0.326-2.282,0.913-3.847,1.695
						c-2.152,1.042-4.956,2.674-4.956,2.674c0.326,0.913,0.652,1.694,1.238,2.936C18.102,59.425,11.45,66.4,8.32,70.64
						c1.956,3.781,4.435,6.912,6,8.736l1.694-3.26l0,0C14.842,75.14,14.189,74.421,14.189,74.421z"/>
					<g>
						<path fill="#FFFFFF" d="M45.815,67.965c-0.195,0-0.456,0-0.652-0.064c-0.326,0-0.521-0.064-0.521-0.064l0,0
							c-0.782-0.067-1.5-0.195-1.5-0.195c-0.064,0.128-1.825,8.085-1.5,18.452c0,0,2.218,0.066,4.435-0.195
							C44.708,76.964,45.686,69.141,45.815,67.965z"/>
						<path fill="#FFFFFF" d="M42.686,60.271c-0.456,1.24-1.826,4.694-2.412,6.848c0,0,1.629,0.455,2.804,0.587
							c0.26-2.087,1.238-5.281,1.631-6.456C44.055,60.924,43.337,60.597,42.686,60.271z"/>
						<g>
							<path fill="#FFFFFF" d="M51.945,94.114c0,0-1.239-4.629-2.151-8.608c-0.131,0-0.262,0.067-0.392,0.067
								c-0.326,0.063-1.108,0.195-1.108,0.195c-0.849,0.129-1.761,0.26-2.283,0.26c0,0,0.783,5.803,1.435,8.477
								c0,0,2.349-0.065,4.5-0.261V94.114z"/>
						</g>
					</g>
					<path fill="#FFFFFF" d="M59.184,62.161c0.261,0.522,0.913,2.021,1.239,2.739c0,0,0.913-0.391,2.151-1.173
						c-0.065-0.131-0.979-1.697-1.238-2.283C60.553,61.77,59.836,61.965,59.184,62.161z"/>
					<g>
						<path fill="#FFFFFF" d="M62.509,63.728c0.065,0.13,3.326,5.933,7.955,11.085c0,0,1.239-1.305,2.283-2.805
							c-5.087-5.151-7.956-9.064-8.348-9.651c-0.26,0.263-0.651,0.522-0.977,0.718C63.096,63.335,62.771,63.532,62.509,63.728z"/>
					</g>
					<path fill="#FFFFFF" d="M71.965,52.054c4.108,1.761,7.76,2.74,7.76,2.74c0.195-1.695,0.195-2.936,0.195-2.936
						s-4.891-0.978-7.043-1.759C72.682,50.75,72.356,51.403,71.965,52.054z"/>
					<g>
						<g>
							<path fill="#FFFFFF" d="M79.985,49.12c0,0.457,0,0.848,0,1.304c0,0.457,0,0.979,0,1.435
								c6.325,1.24,11.803,1.369,11.803,1.369c0.131-1.174,0.131-3.846,0.131-3.846C91.267,49.382,84.681,49.772,79.985,49.12z"/>
						</g>
					</g>
					<g>
						<g>
							<path fill="#FFFFFF" d="M83.05,23.231c-4.108,3.849-8.151,6.848-8.347,6.978c0.131,0.261,0.262,0.456,0.392,0.718
								c0.261,0.456,0.521,0.913,0.782,1.368c0,0,4.826-2.737,9.063-6.26C85.007,26.102,84.29,24.862,83.05,23.231z"/>
						</g>
						<g>
							<g>
								<path fill="#FFFFFF" d="M73.334,33.796c0.26,0.652,0.457,1.369,0.652,2.087c0.391-0.13,1.956-0.782,2.999-1.305
									c0,0-0.456-1.174-1.043-2.283L73.334,33.796z"/>
							</g>
						</g>
					</g>
					<g>
						<path fill="#FFFFFF" d="M62.9,19.254l-0.782,2.673c0.652,0.327,1.305,0.652,1.956,0.979c0.196-0.391,0.587-1.369,1.044-2.542
							C65.118,20.363,63.878,19.646,62.9,19.254z"/>
					</g>
					<g>
						<g>
							<path fill="#FFFFFF" d="M61.596,7.712c0.066,4.565-0.912,10.629-0.912,10.563l0,0c0.457,0.131,0.652,0.262,0.652,0.262l0,0
								c0,0,1.5,0.586,1.564,0.652c0.131-0.457,1.37-4.957,1.956-10.239C64.856,9.017,63.096,8.299,61.596,7.712z"/>
						</g>
					</g>
					<g>
						<path fill="#FFFFFF" d="M46.207,16.972c-0.652,0.131-2.544,0.652-2.544,0.652c-3.521-5.934-7.955-10.63-7.955-10.63
							c-2.087,0.588-3.651,1.175-4.043,1.305c0.521,0.456,7.108,6.651,9.456,10.173l0,0c0.195-0.065,0.586-0.261,0.979-0.392
							c0.717-0.261,1.499-0.521,1.499-0.521c1.109,1.695,1.761,3,2.087,3.652c0.652-0.262,1.369-0.457,2.086-0.652
							C47.25,19.123,46.207,16.972,46.207,16.972z"/>
					</g>
				</g>
				<g>
					<path fill="#FFFFFF" d="M73.855,70.377L73.855,70.377c-0.521,0.783-1.174,1.631-1.174,1.631
						c0.065,0.065,4.174,4.174,8.217,7.108c0,0,1.174-1.368,2.478-3.131c-0.457-0.26-4.565-2.933-8.868-6.521l0,0
						C74.377,69.727,74.116,70.052,73.855,70.377z"/>
				</g>
			</g>
			<g>
				<g>
					<g>
						<polygon fill="#DB0011" points="297,49.903 281.352,34.252 281.352,65.553 						"/>
						<polygon fill="#DB0011" points="265.701,49.903 281.352,34.252 250.051,34.252 						"/>
						<polygon fill="#DB0011" points="234.465,49.903 250.051,65.553 250.051,34.252 						"/>
						<polygon fill="#DB0011" points="265.701,49.903 250.051,65.553 281.352,65.553 						"/>
					</g>
					<g>
						<g>
							<path fill="#DB0011" d="M227.814,21.08h-13.237h-0.653h-2.282c-2.935,0-3.649,2.087-3.649,2.087l-3.131,7.498h-0.065
								l-0.784-9.65h-4.89c-2.349,0-3.327,2.152-3.327,2.152l-3.715,7.564h-0.066V21.08h-3.326c-2.215,0-2.672,1.239-2.804,1.892
								c-0.65-1.24-2.413-1.892-5.543-1.892h-7.891c-2.541,0-2.804,1.956-2.804,1.956l-2.868,13.498h11.152
								c3.259,0,4.304-0.326,5.477-1.174c0.781-0.587,1.436-1.564,1.694-2.804c0.522-2.673-1.304-3.718-3.39-3.847v-0.066
								c1.891-0.456,3.521-1.304,4.172-3.063l0.263,10.89h5.345c3.067,0,4.176-2.805,4.176-2.805l3.259-6.521h0.065l0.784,9.39
								h4.759c3.458,0,4.631-3.064,4.631-3.064l4.172-9.521l-2.608,12.585h2.871c3.649,0,4.172-2.999,4.172-2.999l0.587-2.739h4.108
								c3.131,0,3.588-2.412,3.588-2.412l0.194-0.783h-7.173l0.652-3.195h4.499c3.064,0,3.521-2.347,3.521-2.347L227.814,21.08z
								 M175.059,27.34l0.718-3.391h1.891c2.022,0,2.35,0.587,2.089,1.695c-0.196,1.043-0.914,1.695-2.805,1.695H175.059z
								 M173.755,33.796l0.784-3.717h1.891c2.218,0,2.869,0.586,2.608,1.825c-0.262,1.305-1.175,1.892-3.391,1.892H173.755z"/>
							<g>
								<g>
									<path fill="#FFFFFF" d="M113.764,29.948h-6.651v6.586h-3.326V21.08h3.326v6.325h6.651V21.08h3.325v15.39h-3.325V29.948z"/>
									<path fill="#FFFFFF" d="M125.109,36.796c-3.325,0-6.063-1.305-6.129-5.021h3.325c0.065,1.63,0.979,2.608,2.804,2.608
										c1.37,0,2.869-0.652,2.869-2.217c0-1.174-1.043-1.565-2.738-2.087l-1.108-0.326c-2.413-0.717-4.825-1.63-4.825-4.435
										c0-3.456,3.194-4.564,6.129-4.564c3,0,5.608,1.043,5.608,4.434h-3.326c-0.13-1.435-0.913-2.216-2.543-2.216
										c-1.238,0-2.479,0.652-2.479,2.021c0,1.109,1.045,1.5,3.196,2.152l1.305,0.391c2.673,0.849,4.304,1.761,4.304,4.305
										C131.501,35.426,128.109,36.796,125.109,36.796z"/>
									<path fill="#FFFFFF" d="M133.391,21.08h5.348c1.695,0,2.348,0.065,2.999,0.195c1.893,0.456,3.262,1.63,3.262,3.717
										c0,1.957-1.239,3-3.065,3.456c2.087,0.391,3.652,1.436,3.652,3.718c0,3.521-3.456,4.304-6.13,4.304h-6.065V21.08z
										 M138.804,27.535c1.499,0,2.934-0.326,2.934-2.086c0-1.565-1.435-2.022-2.737-2.022h-2.349v4.109L138.804,27.535
										L138.804,27.535z M139.129,34.188c1.566,0,3.066-0.392,3.066-2.218s-1.305-2.281-2.869-2.281h-2.675v4.499H139.129z"/>
									<path fill="#FFFFFF" d="M154.322,36.796c-4.954,0-7.172-3.196-7.172-7.891c0-4.63,2.478-8.086,7.368-8.086
										c3.066,0,6.065,1.369,6.13,4.825h-3.457c-0.194-1.565-1.174-2.348-2.673-2.348c-3,0-3.912,3.261-3.912,5.739
										c0,2.478,0.912,5.281,3.782,5.281c1.5,0,2.608-0.782,2.869-2.348h3.457C160.321,35.491,157.518,36.796,154.322,36.796z"/>
								</g>
							</g>
						</g>
						<g>
							<path fill="#FFFFFF" d="M118.393,43.446h3.783l2.738,11.672h0.065l2.478-11.672h3.196l-3.978,15.52h-3.718l-2.804-11.867
								h-0.066l-2.999,11.867h-3.782l-3.781-15.52h3.455l2.413,11.672h0.065L118.393,43.446z"/>
							<path fill="#FFFFFF" d="M136.13,59.293c-3.521,0-5.607-2.348-5.607-5.739c0-3.391,2.087-5.737,5.607-5.737
								c3.521,0,5.607,2.347,5.607,5.737C141.804,57.012,139.717,59.293,136.13,59.293z M136.13,57.141
								c1.957,0,2.283-1.824,2.283-3.587c0-1.76-0.326-3.586-2.283-3.586c-1.956,0-2.282,1.826-2.282,3.586
								C133.848,55.316,134.174,57.141,136.13,57.141z"/>
							<path fill="#FFFFFF" d="M146.368,48.207l0.065,1.956h0.065c0.718-1.695,2.086-2.151,3.651-2.086v2.868h-1.37
								c-0.521,0.064-1.238,0.327-1.563,0.783c-0.326,0.586-0.393,1.175-0.458,1.891v5.347h-3.195v-8.671
								c0-0.459-0.064-1.37-0.129-2.153h2.934V48.207z"/>
							<path fill="#FFFFFF" d="M155.301,43.446v15.52h-3.26v-15.52H155.301z"/>
							<path fill="#FFFFFF" d="M165.475,43.446h3.194v13.369c0,0.716,0.065,1.433,0.132,2.15h-3.263
								c-0.063-0.521-0.063-1.044-0.063-1.5h-0.066c-0.716,1.24-1.891,1.827-3.324,1.827c-3.194,0-4.631-2.936-4.631-5.739
								c0-2.935,1.695-5.737,5.086-5.737c1.108,0,2.284,0.651,2.869,1.565h0.066V43.446L165.475,43.446z M163.192,57.141
								c1.76,0,2.346-2.088,2.346-3.587c0-1.5-0.586-3.586-2.346-3.586c-2.087,0-2.349,1.891-2.349,3.586
								S161.105,57.141,163.192,57.141z"/>
							<path fill="#FFFFFF" d="M173.495,43.446h12.584v2.608h-4.629v12.911h-3.324V45.99h-4.631V43.446L173.495,43.446z"/>
							<path fill="#FFFFFF" d="M190.515,59.293c-3.522,0-5.608-2.348-5.608-5.739c0-3.391,2.086-5.737,5.608-5.737
								c3.521,0,5.607,2.347,5.607,5.737C196.188,57.012,194.036,59.293,190.515,59.293z M190.515,57.141
								c1.957,0,2.281-1.824,2.281-3.587c0-1.76-0.324-3.586-2.281-3.586s-2.282,1.826-2.282,3.586
								C188.232,55.316,188.558,57.141,190.515,57.141z"/>
							<path fill="#FFFFFF" d="M205.12,57.662c-0.715,0.979-1.695,1.631-3.324,1.631c-1.043,0-3.129-0.849-3.522-2.413
								c-0.194-0.652-0.194-1.368-0.194-1.695v-7.043h3.26v6.457c0,1.173,0.327,2.477,1.957,2.477c1.043,0,1.892-0.913,1.956-2.477
								v-6.457h3.261v8.87c0,0.65,0.065,1.304,0.13,1.954h-3.195L205.12,57.662z"/>
							<path fill="#FFFFFF" d="M213.924,48.207l0.066,1.956h0.064c0.718-1.695,2.086-2.151,3.653-2.086v2.868h-1.372
								c-0.521,0.064-1.236,0.327-1.563,0.783c-0.327,0.586-0.391,1.175-0.457,1.891v5.347h-3.194v-8.671
								c0-0.459-0.066-1.37-0.13-2.153h2.933V48.207z"/>
						</g>
					</g>
				</g>
				<g>
					<g>
						<path fill="#DB0011" d="M41.186,18.537L41.186,18.537c-0.391,0.131-0.848,0.391-1.435,0.652
							c-2.608-3.587-10.173-9.978-10.173-9.978c-9.26,4.108-14.606,10.173-14.606,10.173c7.824,1.956,15.52,5.673,15.52,5.673
							c0.848-0.652,1.63-1.305,2.348-1.826c0.392,0.262,2.349,1.565,4.891,3.456c0.913-1.043,3.521-3.325,6.781-4.761
							c-0.064-0.13-0.651-1.368-2.347-3.716C41.772,18.275,41.382,18.472,41.186,18.537L41.186,18.537z"/>
					</g>
					<g>
						<path fill="#DB0011" d="M33.165,33.86c-4.499-1.238-7.825-1.565-7.825-1.565c-0.195,0.327-0.456,0.783-0.718,1.24
							c-0.455,0.782-0.978,1.565-0.912,1.565c0,0-6.978-0.457-18.781,1.695c0,0-3.26,9.455-1.304,20.997
							c0,0,8.282-6.585,18.715-10.824c0,0-0.195-1.175-0.13-3.131c5.543-1.565,9.26-2.021,9.65-2.087
							C31.73,39.469,32.187,36.339,33.165,33.86z"/>
					</g>
					<g>
						<path fill="#DB0011" d="M33.621,50.229c-0.064,0.066-4.76,2.543-8.151,5.543l0.588,1.108c0.261,0.456,0.521,0.913,0.847,1.368
							c-0.912,0.913-7.368,7.175-12.78,16.237c0,0,0.587,0.718,1.76,1.763c0.458,0.391,0.979,0.846,1.566,1.368l-1.696,3.781
							c9.391,9.456,18.129,11.283,18.129,11.283l0.456-6.783c-2.479-0.456-4.043-0.979-4.043-0.979s0.783-8.021,5.543-19.041
							c0,0-0.979-0.325-2.608-1.368c0.064-0.132,3.194-5.349,4.891-7.63C36.229,54.857,34.534,52.51,33.621,50.229z"/>
					</g>
					<g>
						<path fill="#DB0011" d="M66.291,78.92c-0.913,0.719-1.892,1.37-2.868,1.956c-0.131-0.195-3.849-6.194-6.521-14.607
							c0,0-0.848,0.327-2.413,0.718c-0.131-0.521-0.586-3.062-0.782-4.107c-2.283,0.131-6.194-0.587-7.825-1.305
							c-0.065,0.132-1.044,3.718-1.304,6.262l0,0c0,0,0.195,0,0.521,0.064c0.261,0,0.456,0.064,0.651,0.064
							c0,0,0.849,0.066,1.24,0.066c-0.066,0.455-0.783,8.217,1.173,17.671c0,0,0.782-0.129,1.108-0.196
							c0.131,0,0.261-0.064,0.392-0.064c0.848-0.131,1.76-0.327,2.152-0.391c1.173,4.042,2.738,8.738,2.738,8.738
							c9.65-1.24,17.737-7.238,17.737-7.238C70.073,84.201,66.291,78.92,66.291,78.92z"/>
					</g>
					<g>
						<path fill="#DB0011" d="M91.657,47.359c-0.26-7.303-3.063-14.02-3.063-14.02c-6.326,2.934-10.499,4.173-10.499,4.173
							c0.26,0.718,0.521,1.565,0.716,2.413l-4.107,0.717c0.131,1.892-0.326,6.064-1.369,8.412c2.413,0.651,6.717,1.304,6.717,1.304
							c0-0.455,0-0.913,0-1.304c0-0.522,0-0.978-0.065-1.435C84.876,48.077,91.657,47.359,91.657,47.359z"/>
					</g>
					<g>
						<path fill="#DB0011" d="M71.769,12.863c0,0-1.761,4.825-4.304,9.261l1.825,1.5l-1.499,2.086
							c1.695,1.499,3.848,4.238,4.891,6.782c0.326-0.197,0.783-0.522,1.174-0.718c0.717-0.392,1.305-0.782,1.305-0.782
							c-0.131-0.261-0.262-0.522-0.391-0.718c-0.262-0.457-0.522-0.848-0.783-1.238c0.13-0.131,3.651-3.131,7.695-7.305
							C81.615,21.667,77.769,16.646,71.769,12.863z"/>
					</g>
					<g>
						<path fill="#DB0011" d="M60.684,21.341l0.652-2.738l0,0c0,0-0.262-0.131-0.652-0.262l0,0c-0.392-0.13-0.979-0.325-1.631-0.586
							c0.065-0.652,0.652-5.935,0.392-10.564c0,0-5.413-2.087-14.346-1.63c0,0,2.542,4.955,4.238,11.021c0,0,0.848-0.131,2.608,0
							c0.065,0.391,0.392,1.956,0.521,3.456C55.466,19.906,57.879,20.363,60.684,21.341z"/>
					</g>
					<path fill="#DB0011" d="M79.725,56.098c-0.065,0.848-0.261,1.76-0.521,2.738c-0.065,0-4.564-1.891-8.804-4.369
						c-2.151,2.804-4.955,5.086-8.217,6.586c0.457,0.717,1.305,2.087,1.305,2.087c0.326-0.261,0.652-0.521,0.979-0.716
						c0.586-0.459,0.979-0.85,0.979-0.85s2.673,3.587,8.542,8.87l0,0c0.261-0.327,0.456-0.653,0.586-0.849l0,0
						c0.262-0.392,0.588-0.849,0.913-1.5c4.892,3.653,9.325,6.13,9.325,6.13c5.021-7.889,6.13-15.26,6.13-15.26
						C85.397,57.857,79.725,56.098,79.725,56.098z"/>
				</g>
				<g>
					<g>
						<g>
							<path fill="#8A8C8E" d="M124.132,69.855c-0.131-1.564-0.978-2.347-2.608-2.347c-1.238,0-2.478,0.652-2.478,2.022
								c0,1.695,1.499,1.891,2.869,2.218c2.348,0.586,5.868,1.304,5.868,4.433c0,3.848-3.391,5.216-6.717,5.216
								c-3.521,0-6.064-1.368-5.999-5.345h3.392c-0.131,1.759,0.848,2.867,2.607,2.867c1.305,0,3.131-0.391,3.131-2.086
								c0-1.826-2.218-1.957-3.587-2.281c-2.151-0.522-5.151-1.567-5.151-4.306c0-3.586,3.261-5.151,6.456-5.151
								c2.999,0,5.347,1.632,5.347,4.76H124.132z"/>
							<path fill="#8A8C8E" d="M136.325,79.702c-0.717,0.979-1.695,1.695-3.325,1.695c-1.108,0-3.194-0.846-3.521-2.412
								c-0.196-0.651-0.196-1.369-0.196-1.76v-7.044h3.261v6.521c0,1.174,0.326,2.478,1.956,2.478c1.044,0,1.892-0.913,1.956-2.478
								v-6.521h3.261v8.935c0,0.651,0.065,1.304,0.13,1.955h-3.26L136.325,79.702z"/>
							<path fill="#8A8C8E" d="M144.868,71.422L144.868,71.422c0.652-0.913,1.826-1.566,2.935-1.566
								c3.391,0,5.087,2.805,5.087,5.738c0,2.805-1.5,5.739-4.631,5.739c-1.368,0-2.608-0.586-3.325-1.891h-0.065v5.672h-3.261
								V72.269c0-0.718-0.065-1.433-0.13-2.151h3.261L144.868,71.422z M147.217,79.181c2.086,0,2.347-1.955,2.347-3.587
								c0-1.695-0.261-3.586-2.347-3.586c-1.762,0-2.349,2.087-2.349,3.586C144.868,77.094,145.455,79.181,147.217,79.181z"/>
							<path fill="#8A8C8E" d="M157.127,76.443c0,1.434,0.195,2.737,1.826,2.737c1.108,0,1.695-0.391,1.956-1.433h2.934
								c-0.259,2.672-2.345,3.585-4.89,3.585c-3.717,0-5.217-2.086-5.217-5.739c0-3.259,1.891-5.803,5.217-5.803
								c2.022,0,3.718,0.718,4.631,2.608c0.324,0.586,0.455,1.24,0.521,1.955c0.064,0.653,0.064,1.371,0.064,2.089H157.127z
								 M160.844,74.29c0-1.173-0.326-2.282-1.891-2.282c-1.5,0-1.826,1.109-1.826,2.282H160.844z"/>
							<path fill="#8A8C8E" d="M168.474,70.182l0.064,1.958h0.067c0.717-1.695,2.086-2.153,3.649-2.088v2.87h-1.368
								c-0.522,0.063-1.24,0.327-1.564,0.781c-0.326,0.587-0.392,1.24-0.458,1.956v5.412h-3.194v-8.672
								c0-0.455-0.064-1.368-0.132-2.152h2.936V70.182z"/>
							<path fill="#8A8C8E" d="M186.992,66.01v2.804l-4.562,12.129h-3.195l4.759-12.52h-6.585V66.01H186.992z"/>
							<path fill="#8A8C8E" d="M191.56,77.289c0.063,1.045,0.846,1.892,1.891,1.892c1.63,0,2.149-1.892,2.149-3.195
								c0-1.237-0.65-2.673-2.086-2.673c-0.978,0-1.63,0.782-1.891,1.695l-3.131-0.064l0.327-8.805h9.13v2.152h-6.262l-0.196,3.913
								c0.719-0.718,1.698-1.044,2.74-1.044c2.673,0,4.565,1.63,4.565,5.151c0,2.74-2.414,5.153-5.479,5.153
								c-2.608,0-4.89-1.175-5.021-4.044h3.263V77.289z"/>
							<path fill="#8A8C8E" d="M205.188,81.333c-4.109,0-5.217-4.172-5.217-7.76c0-3.651,1.107-7.825,5.217-7.825
								c4.236,0,5.346,4.174,5.346,7.825C210.533,77.161,209.424,81.333,205.188,81.333z M205.252,67.9
								c-2.086,0-1.891,5.28-1.891,5.673c0,0.391-0.195,5.607,1.891,5.607s1.891-5.282,1.891-5.607
								C207.208,73.181,207.338,67.9,205.252,67.9z"/>
						</g>
					</g>
				</g>
			</g>
		</g>
	</g>
</g>
</svg>
